<ttFont>
    <TTGlyph name="A" xMin="20" yMin="0" xMax="1464" yMax="1352">
      <contour>
        <pt x="461" y="53" on="1"/>
        <pt x="461" y="0" on="1"/>
        <pt x="20" y="0" on="1"/>
        <pt x="20" y="53" on="1"/>
        <pt x="172" y="80" on="1"/>
        <pt x="629" y="1352" on="1"/>
        <pt x="819" y="1352" on="1"/>
        <pt x="1294" y="80" on="1"/>
        <pt x="1464" y="53" on="1"/>
        <pt x="1464" y="0" on="1"/>
        <pt x="897" y="0" on="1"/>
        <pt x="897" y="53" on="1"/>
        <pt x="1077" y="80" on="1"/>
        <pt x="944" y="467" on="1"/>
        <pt x="416" y="467" on="1"/>
        <pt x="281" y="80" on="1"/>
      </contour>
      <contour>
        <pt x="676" y="1208" on="1"/>
        <pt x="446" y="557" on="1"/>
        <pt x="913" y="557" on="1"/>
      </contour>
    </TTGlyph>
    <TTGlyph name="AE" xMin="20" yMin="0" xMax="1718" yMax="1341">
      <contour>
        <pt x="731" y="53" on="1"/>
        <pt x="883" y="80" on="1"/>
        <pt x="883" y="467" on="1"/>
        <pt x="471" y="467" on="1"/>
        <pt x="264" y="80" on="1"/>
        <pt x="422" y="53" on="1"/>
        <pt x="422" y="0" on="1"/>
        <pt x="20" y="0" on="1"/>
        <pt x="20" y="53" on="1"/>
        <pt x="156" y="80" on="1"/>
        <pt x="803" y="1270" on="1"/>
        <pt x="639" y="1288" on="1"/>
        <pt x="639" y="1341" on="1"/>
        <pt x="1634" y="1341" on="1"/>
        <pt x="1634" y="1020" on="1"/>
        <pt x="1569" y="1020" on="1"/>
        <pt x="1536" y="1237" on="1"/>
        <pt x="1424" y="1251" on="0"/>
        <pt x="1212" y="1251" on="1"/>
        <pt x="1075" y="1251" on="1"/>
        <pt x="1075" y="727" on="1"/>
        <pt x="1356" y="727" on="1"/>
        <pt x="1386" y="887" on="1"/>
        <pt x="1450" y="887" on="1"/>
        <pt x="1450" y="475" on="1"/>
        <pt x="1386" y="475" on="1"/>
        <pt x="1356" y="637" on="1"/>
        <pt x="1075" y="637" on="1"/>
        <pt x="1075" y="90" on="1"/>
        <pt x="1257" y="90" on="1"/>
        <pt x="1515" y="90" on="0"/>
        <pt x="1595" y="106" on="1"/>
        <pt x="1653" y="354" on="1"/>
        <pt x="1718" y="354" on="1"/>
        <pt x="1700" y="0" on="1"/>
        <pt x="731" y="0" on="1"/>
      </contour>
      <contour>
        <pt x="883" y="557" on="1"/>
        <pt x="883" y="1231" on="1"/>
        <pt x="520" y="557" on="1"/>
      </contour>
    </TTGlyph>
    <TTGlyph name="AEacute" xMin="20" yMin="0" xMax="1718" yMax="1758">
      <component glyphName="AE" x="0" y="0" flags="0x204"/>
      <component glyphName="acute" x="832" y="334" flags="0x4"/>
    </TTGlyph>
    <TTGlyph name="Aacute" xMin="20" yMin="0" xMax="1464" yMax="1758">
      <component glyphName="A" x="0" y="0" flags="0x204"/>
      <component glyphName="acute" x="455" y="334" flags="0x4"/>
    </TTGlyph>
    <TTGlyph name="Abreve" xMin="20" yMin="0" xMax="1464" yMax="1733">
      <component glyphName="A" x="0" y="0" flags="0x204"/>
      <component glyphName="breve" x="379" y="334" flags="0x4"/>
    </TTGlyph>
    <TTGlyph name="Acircumflex" xMin="20" yMin="0" xMax="1464" yMax="1759">
      <component glyphName="A" x="0" y="0" flags="0x204"/>
      <component glyphName="circumflex" x="377" y="334" flags="0x4"/>
    </TTGlyph>
    <TTGlyph name="Adieresis" xMin="20" yMin="0" xMax="1464" yMax="1659">
      <component glyphName="A" x="0" y="0" flags="0x204"/>
      <component glyphName="dieresis" x="385" y="365" flags="0x4"/>
    </TTGlyph>
    <TTGlyph name="Agrave" xMin="20" yMin="0" xMax="1464" yMax="1758">
      <component glyphName="A" x="0" y="0" flags="0x204"/>
      <component glyphName="grave" x="324" y="334" flags="0x4"/>
    </TTGlyph>
    <TTGlyph name="Alpha" xMin="20" yMin="0" xMax="1464" yMax="1352">
      <component glyphName="A" x="0" y="0" flags="0x204"/>
    </TTGlyph>
    <TTGlyph name="Alphatonos" xMin="20" yMin="0" xMax="1464" yMax="1353">
      <component glyphName="A" x="0" y="0" flags="0x204"/>
      <component glyphName="tonos" x="-104" y="-91" flags="0x4"/>
    </TTGlyph>
    <TTGlyph name="Amacron" xMin="20" yMin="0" xMax="1464" yMax="1584">
      <component glyphName="A" x="0" y="0" flags="0x204"/>
      <component glyphName="uni02C9" x="398" y="334" flags="0x4"/>
    </TTGlyph>
    <TTGlyph name="Aogonek" xMin="20" yMin="-403" xMax="1464" yMax="1352">
      <component glyphName="A" x="0" y="0" flags="0x204"/>
      <component glyphName="ogonek" x="841" y="0" flags="0x4"/>
    </TTGlyph>
    <TTGlyph name="Aring" xMin="20" yMin="0" xMax="1464" yMax="1679">
      <component glyphName="A" x="0" y="0" flags="0x204"/>
      <component glyphName="ring" x="382" y="196" flags="0x4"/>
    </TTGlyph>
    <TTGlyph name="Aringacute" xMin="20" yMin="0" xMax="1464" yMax="2010">
      <component glyphName="A" x="0" y="0" flags="0x204"/>
      <component glyphName="ring" x="382" y="196" flags="0x4"/>
      <component glyphName="acute" x="470" y="586" flags="0x4"/>
    </TTGlyph>
    <TTGlyph name="Atilde" xMin="20" yMin="0" xMax="1464" yMax="1714">
      <component glyphName="A" x="0" y="0" flags="0x204"/>
      <component glyphName="tilde" x="375" y="334" flags="0x4"/>
    </TTGlyph>
    <TTGlyph name="B" xMin="59" yMin="-6" xMax="1266" yMax="1341">
      <contour>
        <pt x="958" y="1016" on="1"/>
        <pt x="958" y="1139" on="0"/>
        <pt x="804" y="1251" on="0"/>
        <pt x="631" y="1251" on="1"/>
        <pt x="424" y="1251" on="1"/>
        <pt x="424" y="744" on="1"/>
        <pt x="643" y="744" on="1"/>
        <pt x="805" y="744" on="0"/>
        <pt x="958" y="872" on="0"/>
      </contour>
      <contour>
        <pt x="1059" y="382" on="1"/>
        <pt x="1059" y="523" on="0"/>
        <pt x="871" y="654" on="0"/>
        <pt x="664" y="654" on="1"/>
        <pt x="424" y="654" on="1"/>
        <pt x="424" y="90" on="1"/>
        <pt x="562" y="84" on="0"/>
        <pt x="718" y="84" on="1"/>
        <pt x="889" y="84" on="0"/>
        <pt x="1059" y="229" on="0"/>
      </contour>
      <contour>
        <pt x="59" y="0" on="1"/>
        <pt x="59" y="53" on="1"/>
        <pt x="231" y="80" on="1"/>
        <pt x="231" y="1262" on="1"/>
        <pt x="59" y="1288" on="1"/>
        <pt x="59" y="1341" on="1"/>
        <pt x="672" y="1341" on="1"/>
        <pt x="927" y="1341" on="0"/>
        <pt x="1163" y="1190" on="0"/>
        <pt x="1163" y="1026" on="1"/>
        <pt x="1163" y="908" on="0"/>
        <pt x="1018" y="742" on="0"/>
        <pt x="887" y="714" on="1"/>
        <pt x="1068" y="695" on="0"/>
        <pt x="1266" y="522" on="0"/>
        <pt x="1266" y="386" on="1"/>
        <pt x="1266" y="193" on="0"/>
        <pt x="999" y="-6" on="0"/>
        <pt x="743" y="-6" on="1"/>
        <pt x="315" y="0" on="1"/>
      </contour>
    </TTGlyph>
    <TTGlyph name="Beta" xMin="59" yMin="-6" xMax="1266" yMax="1341">
      <component glyphName="B" x="0" y="0" flags="0x204"/>
    </TTGlyph>
    <TTGlyph name="C" xMin="84" yMin="-20" xMax="1253" yMax="1356">
      <contour>
        <pt x="774" y="-20" on="1"/>
        <pt x="448" y="-20" on="0"/>
        <pt x="84" y="335" on="0"/>
        <pt x="84" y="655" on="1"/>
        <pt x="84" y="1001" on="0"/>
        <pt x="434" y="1356" on="0"/>
        <pt x="778" y="1356" on="1"/>
        <pt x="987" y="1356" on="0"/>
        <pt x="1227" y="1305" on="1"/>
        <pt x="1233" y="1012" on="1"/>
        <pt x="1167" y="1012" on="1"/>
        <pt x="1137" y="1186" on="1"/>
        <pt x="1067" y="1229" on="0"/>
        <pt x="882" y="1276" on="0"/>
        <pt x="786" y="1276" on="1"/>
        <pt x="529" y="1276" on="0"/>
        <pt x="293" y="974" on="0"/>
        <pt x="293" y="657" on="1"/>
        <pt x="293" y="365" on="0"/>
        <pt x="540" y="57" on="0"/>
        <pt x="776" y="57" on="1"/>
        <pt x="890" y="57" on="0"/>
        <pt x="1092" y="112" on="0"/>
        <pt x="1151" y="158" on="1"/>
        <pt x="1188" y="358" on="1"/>
        <pt x="1253" y="358" on="1"/>
        <pt x="1247" y="43" on="1"/>
        <pt x="1027" y="-20" on="0"/>
      </contour>
    </TTGlyph>
    <TTGlyph name="Cacute" xMin="84" yMin="-20" xMax="1253" yMax="1758">
      <component glyphName="C" x="0" y="0" flags="0x204"/>
      <component glyphName="acute" x="457" y="334" flags="0x4"/>
    </TTGlyph>
    <TTGlyph name="Ccaron" xMin="84" yMin="-20" xMax="1253" yMax="1759">
      <component glyphName="C" x="0" y="0" flags="0x204"/>
      <component glyphName="caron" x="431" y="334" flags="0x4"/>
    </TTGlyph>
    <TTGlyph name="Ccedilla" xMin="84" yMin="-436" xMax="1253" yMax="1356">
      <component glyphName="C" x="0" y="0" flags="0x204"/>
      <component glyphName="cedilla" x="429" y="0" flags="0x4"/>
    </TTGlyph>
    <TTGlyph name="Ccircumflex" xMin="84" yMin="-20" xMax="1253" yMax="1759">
      <component glyphName="C" x="0" y="0" flags="0x204"/>
      <component glyphName="circumflex" x="434" y="334" flags="0x4"/>
    </TTGlyph>
    <TTGlyph name="Chi" xMin="45" yMin="0" xMax="1442" yMax="1341">
      <component glyphName="X" x="0" y="0" flags="0x204"/>
    </TTGlyph>
    <TTGlyph name="D" xMin="59" yMin="-4" xMax="1397" yMax="1341">
      <contour>
        <pt x="1188" y="680" on="1"/>
        <pt x="1188" y="961" on="0"/>
        <pt x="885" y="1251" on="0"/>
        <pt x="604" y="1251" on="1"/>
        <pt x="424" y="1251" on="1"/>
        <pt x="424" y="94" on="1"/>
        <pt x="544" y="86" on="0"/>
        <pt x="709" y="86" on="1"/>
        <pt x="955" y="86" on="0"/>
        <pt x="1188" y="376" on="0"/>
      </contour>
      <contour>
        <pt x="668" y="1341" on="1"/>
        <pt x="1039" y="1341" on="0"/>
        <pt x="1397" y="1010" on="0"/>
        <pt x="1397" y="678" on="1"/>
        <pt x="1397" y="342" on="0"/>
        <pt x="1052" y="-4" on="0"/>
        <pt x="709" y="-4" on="1"/>
        <pt x="231" y="0" on="1"/>
        <pt x="59" y="0" on="1"/>
        <pt x="59" y="53" on="1"/>
        <pt x="231" y="80" on="1"/>
        <pt x="231" y="1262" on="1"/>
        <pt x="59" y="1288" on="1"/>
        <pt x="59" y="1341" on="1"/>
      </contour>
    </TTGlyph>
    <TTGlyph name="Dcaron" xMin="59" yMin="-4" xMax="1397" yMax="1759">
      <component glyphName="D" x="0" y="0" flags="0x204"/>
      <component glyphName="caron" x="387" y="334" flags="0x4"/>
    </TTGlyph>
    <TTGlyph name="Delta" xMin="78" yMin="0" xMax="1240" yMax="1352">
      <contour>
        <pt x="1240" y="0" on="1"/>
        <pt x="79" y="0" on="1"/>
        <pt x="78" y="80" on="1"/>
        <pt x="555" y="1352" on="1"/>
        <pt x="745" y="1352" on="1"/>
        <pt x="1240" y="80" on="1"/>
      </contour>
      <contour>
        <pt x="606" y="1196" on="1"/>
        <pt x="206" y="109" on="1"/>
        <pt x="1012" y="109" on="1"/>
      </contour>
    </TTGlyph>
    <TTGlyph name="E" xMin="59" yMin="0" xMax="1149" yMax="1341">
      <contour>
        <pt x="59" y="53" on="1"/>
        <pt x="231" y="80" on="1"/>
        <pt x="231" y="1262" on="1"/>
        <pt x="59" y="1288" on="1"/>
        <pt x="59" y="1341" on="1"/>
        <pt x="1065" y="1341" on="1"/>
        <pt x="1065" y="1020" on="1"/>
        <pt x="999" y="1020" on="1"/>
        <pt x="967" y="1237" on="1"/>
        <pt x="855" y="1251" on="0"/>
        <pt x="643" y="1251" on="1"/>
        <pt x="424" y="1251" on="1"/>
        <pt x="424" y="727" on="1"/>
        <pt x="786" y="727" on="1"/>
        <pt x="817" y="887" on="1"/>
        <pt x="881" y="887" on="1"/>
        <pt x="881" y="475" on="1"/>
        <pt x="817" y="475" on="1"/>
        <pt x="786" y="637" on="1"/>
        <pt x="424" y="637" on="1"/>
        <pt x="424" y="90" on="1"/>
        <pt x="688" y="90" on="1"/>
        <pt x="946" y="90" on="0"/>
        <pt x="1026" y="106" on="1"/>
        <pt x="1083" y="354" on="1"/>
        <pt x="1149" y="354" on="1"/>
        <pt x="1130" y="0" on="1"/>
        <pt x="59" y="0" on="1"/>
      </contour>
    </TTGlyph>
    <TTGlyph name="Eacute" xMin="59" yMin="0" xMax="1149" yMax="1758">
      <component glyphName="E" x="0" y="0" flags="0x204"/>
      <component glyphName="acute" x="314" y="334" flags="0x4"/>
    </TTGlyph>
    <TTGlyph name="Ebreve" xMin="59" yMin="0" xMax="1149" yMax="1733">
      <component glyphName="E" x="0" y="0" flags="0x204"/>
      <component glyphName="breve" x="285" y="334" flags="0x4"/>
    </TTGlyph>
    <TTGlyph name="Ecaron" xMin="59" yMin="0" xMax="1149" yMax="1759">
      <component glyphName="E" x="0" y="0" flags="0x204"/>
      <component glyphName="caron" x="293" y="334" flags="0x4"/>
    </TTGlyph>
    <TTGlyph name="Ecircumflex" xMin="59" yMin="0" xMax="1149" yMax="1759">
      <component glyphName="E" x="0" y="0" flags="0x204"/>
      <component glyphName="circumflex" x="285" y="334" flags="0x4"/>
    </TTGlyph>
    <TTGlyph name="Edieresis" xMin="59" yMin="0" xMax="1149" yMax="1659">
      <component glyphName="E" x="0" y="0" flags="0x204"/>
      <component glyphName="dieresis" x="295" y="365" flags="0x4"/>
    </TTGlyph>
    <TTGlyph name="Egrave" xMin="59" yMin="0" xMax="1149" yMax="1758">
      <component glyphName="E" x="0" y="0" flags="0x204"/>
      <component glyphName="grave" x="285" y="334" flags="0x4"/>
    </TTGlyph>
    <TTGlyph name="Emacron" xMin="59" yMin="0" xMax="1149" yMax="1584">
      <component glyphName="E" x="0" y="0" flags="0x204"/>
      <component glyphName="uni02C9" x="284" y="334" flags="0x4"/>
    </TTGlyph>
    <TTGlyph name="Eng" xMin="59" yMin="-20" xMax="1281" yMax="1351">
      <contour>
        <pt x="1090" y="950" on="1"/>
        <pt x="1090" y="1089" on="0"/>
        <pt x="972" y="1231" on="0"/>
        <pt x="837" y="1231" on="1"/>
        <pt x="751" y="1231" on="0"/>
        <pt x="537" y="1171" on="0"/>
        <pt x="424" y="1114" on="1"/>
        <pt x="424" y="80" on="1"/>
        <pt x="596" y="53" on="1"/>
        <pt x="596" y="0" on="1"/>
        <pt x="59" y="0" on="1"/>
        <pt x="59" y="53" on="1"/>
        <pt x="231" y="80" on="1"/>
        <pt x="231" y="1262" on="1"/>
        <pt x="59" y="1288" on="1"/>
        <pt x="59" y="1341" on="1"/>
        <pt x="422" y="1341" on="1"/>
        <pt x="424" y="1201" on="1"/>
        <pt x="541" y="1267" on="0"/>
        <pt x="810" y="1351" on="0"/>
        <pt x="913" y="1351" on="1"/>
        <pt x="1106" y="1351" on="0"/>
        <pt x="1281" y="1167" on="0"/>
        <pt x="1281" y="959" on="1"/>
        <pt x="1281" y="432" on="1"/>
        <pt x="1281" y="298" on="0"/>
        <pt x="1199" y="97" on="0"/>
        <pt x="1032" y="-20" on="0"/>
        <pt x="929" y="-20" on="1"/>
        <pt x="801" y="-20" on="0"/>
        <pt x="722" y="10" on="1"/>
        <pt x="722" y="254" on="1"/>
        <pt x="788" y="254" on="1"/>
        <pt x="818" y="115" on="1"/>
        <pt x="837" y="92" on="0"/>
        <pt x="907" y="66" on="0"/>
        <pt x="949" y="66" on="1"/>
        <pt x="1090" y="66" on="0"/>
        <pt x="1090" y="256" on="1"/>
      </contour>
    </TTGlyph>
    <TTGlyph name="Eng.alt1" xMin="59" yMin="-444" xMax="1281" yMax="1351">
      <contour>
        <pt x="1090" y="950" on="1"/>
        <pt x="1090" y="1089" on="0"/>
        <pt x="972" y="1231" on="0"/>
        <pt x="837" y="1231" on="1"/>
        <pt x="751" y="1231" on="0"/>
        <pt x="537" y="1171" on="0"/>
        <pt x="424" y="1114" on="1"/>
        <pt x="424" y="80" on="1"/>
        <pt x="596" y="53" on="1"/>
        <pt x="596" y="0" on="1"/>
        <pt x="59" y="0" on="1"/>
        <pt x="59" y="53" on="1"/>
        <pt x="231" y="80" on="1"/>
        <pt x="231" y="1262" on="1"/>
        <pt x="59" y="1288" on="1"/>
        <pt x="59" y="1341" on="1"/>
        <pt x="422" y="1341" on="1"/>
        <pt x="424" y="1201" on="1"/>
        <pt x="541" y="1267" on="0"/>
        <pt x="810" y="1351" on="0"/>
        <pt x="913" y="1351" on="1"/>
        <pt x="1106" y="1351" on="0"/>
        <pt x="1281" y="1167" on="0"/>
        <pt x="1281" y="959" on="1"/>
        <pt x="1281" y="8" on="1"/>
        <pt x="1281" y="-126" on="0"/>
        <pt x="1199" y="-327" on="0"/>
        <pt x="1032" y="-444" on="0"/>
        <pt x="929" y="-444" on="1"/>
        <pt x="801" y="-444" on="0"/>
        <pt x="722" y="-414" on="1"/>
        <pt x="722" y="-170" on="1"/>
        <pt x="788" y="-170" on="1"/>
        <pt x="818" y="-309" on="1"/>
        <pt x="837" y="-332" on="0"/>
        <pt x="907" y="-358" on="0"/>
        <pt x="949" y="-358" on="1"/>
        <pt x="1090" y="-358" on="0"/>
        <pt x="1090" y="-168" on="1"/>
      </contour>
    </TTGlyph>
    <TTGlyph name="Eng.alt2" xMin="59" yMin="-443" xMax="1432" yMax="1341">
      <contour>
        <pt x="1155" y="1262" on="1"/>
        <pt x="975" y="1288" on="1"/>
        <pt x="975" y="1341" on="1"/>
        <pt x="1432" y="1341" on="1"/>
        <pt x="1432" y="1288" on="1"/>
        <pt x="1260" y="1262" on="1"/>
        <pt x="1260" y="-91" on="1"/>
        <pt x="1260" y="-195" on="0"/>
        <pt x="1164" y="-353" on="0"/>
        <pt x="997" y="-443" on="0"/>
        <pt x="905" y="-443" on="1"/>
        <pt x="777" y="-443" on="0"/>
        <pt x="698" y="-413" on="1"/>
        <pt x="698" y="-169" on="1"/>
        <pt x="764" y="-169" on="1"/>
        <pt x="794" y="-308" on="1"/>
        <pt x="813" y="-331" on="0"/>
        <pt x="883" y="-357" on="0"/>
        <pt x="925" y="-357" on="1"/>
        <pt x="980" y="-357" on="0"/>
        <pt x="1089" y="-292" on="0"/>
        <pt x="1155" y="-181" on="0"/>
        <pt x="1155" y="-110" on="1"/>
        <pt x="1155" y="11" on="1"/>
        <pt x="336" y="1206" on="1"/>
        <pt x="336" y="80" on="1"/>
        <pt x="516" y="53" on="1"/>
        <pt x="516" y="0" on="1"/>
        <pt x="59" y="0" on="1"/>
        <pt x="59" y="53" on="1"/>
        <pt x="231" y="80" on="1"/>
        <pt x="231" y="1262" on="1"/>
        <pt x="59" y="1288" on="1"/>
        <pt x="59" y="1341" on="1"/>
        <pt x="465" y="1341" on="1"/>
        <pt x="1155" y="348" on="1"/>
      </contour>
    </TTGlyph>
    <TTGlyph name="Eng.alt3" xMin="59" yMin="-20" xMax="1281" yMax="1351">
      <contour>
        <pt x="1090" y="950" on="1"/>
        <pt x="1090" y="1089" on="0"/>
        <pt x="972" y="1231" on="0"/>
        <pt x="837" y="1231" on="1"/>
        <pt x="751" y="1231" on="0"/>
        <pt x="537" y="1171" on="0"/>
        <pt x="424" y="1114" on="1"/>
        <pt x="424" y="685" on="1"/>
        <pt x="596" y="658" on="1"/>
        <pt x="596" y="605" on="1"/>
        <pt x="59" y="605" on="1"/>
        <pt x="59" y="658" on="1"/>
        <pt x="231" y="685" on="1"/>
        <pt x="231" y="1262" on="1"/>
        <pt x="59" y="1288" on="1"/>
        <pt x="59" y="1341" on="1"/>
        <pt x="422" y="1341" on="1"/>
        <pt x="424" y="1201" on="1"/>
        <pt x="541" y="1267" on="0"/>
        <pt x="810" y="1351" on="0"/>
        <pt x="913" y="1351" on="1"/>
        <pt x="1106" y="1351" on="0"/>
        <pt x="1281" y="1167" on="0"/>
        <pt x="1281" y="959" on="1"/>
        <pt x="1281" y="550" on="1"/>
        <pt x="1281" y="262" on="0"/>
        <pt x="979" y="-20" on="0"/>
        <pt x="665" y="-20" on="1"/>
        <pt x="504" y="-20" on="0"/>
        <pt x="313" y="31" on="1"/>
        <pt x="309" y="283" on="1"/>
        <pt x="377" y="283" on="1"/>
        <pt x="397" y="150" on="1"/>
        <pt x="448" y="107" on="0"/>
        <pt x="578" y="60" on="0"/>
        <pt x="645" y="60" on="1"/>
        <pt x="881" y="60" on="0"/>
        <pt x="1090" y="290" on="0"/>
        <pt x="1090" y="548" on="1"/>
      </contour>
    </TTGlyph>
    <TTGlyph name="Eogonek" xMin="59" yMin="-403" xMax="1149" yMax="1341">
      <component glyphName="E" x="0" y="0" flags="0x204"/>
      <component glyphName="ogonek" x="601" y="0" flags="0x4"/>
    </TTGlyph>
    <TTGlyph name="Epsilon" xMin="59" yMin="0" xMax="1149" yMax="1341">
      <component glyphName="E" x="0" y="0" flags="0x204"/>
    </TTGlyph>
    <TTGlyph name="Epsilontonos" xMin="-72" yMin="0" xMax="1319" yMax="1342">
      <component glyphName="E" x="170" y="0" flags="0x4"/>
      <component glyphName="tonos" x="-287" y="-102" flags="0x4"/>
    </TTGlyph>
    <TTGlyph name="Eta" xMin="59" yMin="0" xMax="1419" yMax="1341">
      <component glyphName="H" x="0" y="0" flags="0x204"/>
    </TTGlyph>
    <TTGlyph name="Etatonos" xMin="-72" yMin="0" xMax="1589" yMax="1342">
      <component glyphName="H" x="170" y="0" flags="0x4"/>
      <component glyphName="tonos" x="-287" y="-102" flags="0x4"/>
    </TTGlyph>
    <TTGlyph name="Eth" xMin="53" yMin="-4" xMax="1397" yMax="1341">
      <contour>
        <pt x="631" y="1341" on="1"/>
        <pt x="1010" y="1341" on="0"/>
        <pt x="1397" y="1002" on="0"/>
        <pt x="1397" y="678" on="1"/>
        <pt x="1397" y="333" on="0"/>
        <pt x="1067" y="-4" on="0"/>
        <pt x="733" y="-4" on="1"/>
        <pt x="231" y="0" on="1"/>
        <pt x="59" y="0" on="1"/>
        <pt x="59" y="53" on="1"/>
        <pt x="231" y="80" on="1"/>
        <pt x="231" y="629" on="1"/>
        <pt x="53" y="629" on="1"/>
        <pt x="53" y="711" on="1"/>
        <pt x="231" y="711" on="1"/>
        <pt x="231" y="1262" on="1"/>
        <pt x="59" y="1288" on="1"/>
        <pt x="59" y="1341" on="1"/>
      </contour>
      <contour>
        <pt x="801" y="711" on="1"/>
        <pt x="801" y="629" on="1"/>
        <pt x="424" y="629" on="1"/>
        <pt x="424" y="94" on="1"/>
        <pt x="544" y="86" on="0"/>
        <pt x="709" y="86" on="1"/>
        <pt x="956" y="86" on="0"/>
        <pt x="1188" y="367" on="0"/>
        <pt x="1188" y="670" on="1"/>
        <pt x="1188" y="959" on="0"/>
        <pt x="891" y="1251" on="0"/>
        <pt x="586" y="1251" on="1"/>
        <pt x="424" y="1251" on="1"/>
        <pt x="424" y="711" on="1"/>
      </contour>
    </TTGlyph>
    <TTGlyph name="Euro" xMin="31" yMin="-20" xMax="993" yMax="1356">
      <contour>
        <pt x="143" y="829" on="1"/>
        <pt x="174" y="1098" on="0"/>
        <pt x="430" y="1356" on="0"/>
        <pt x="641" y="1356" on="1"/>
        <pt x="715" y="1356" on="0"/>
        <pt x="866" y="1335" on="0"/>
        <pt x="969" y="1305" on="1"/>
        <pt x="973" y="1053" on="1"/>
        <pt x="905" y="1053" on="1"/>
        <pt x="885" y="1186" on="1"/>
        <pt x="840" y="1229" on="0"/>
        <pt x="722" y="1276" on="0"/>
        <pt x="662" y="1276" on="1"/>
        <pt x="518" y="1276" on="0"/>
        <pt x="368" y="1053" on="0"/>
        <pt x="350" y="829" on="1"/>
        <pt x="700" y="829" on="1"/>
        <pt x="700" y="748" on="1"/>
        <pt x="346" y="748" on="1"/>
        <pt x="344" y="680" on="0"/>
        <pt x="344" y="657" on="1"/>
        <pt x="344" y="601" on="0"/>
        <pt x="346" y="584" on="1"/>
        <pt x="700" y="584" on="1"/>
        <pt x="700" y="502" on="1"/>
        <pt x="350" y="502" on="1"/>
        <pt x="370" y="276" on="0"/>
        <pt x="529" y="57" on="0"/>
        <pt x="657" y="57" on="1"/>
        <pt x="734" y="57" on="0"/>
        <pt x="863" y="113" on="0"/>
        <pt x="901" y="158" on="1"/>
        <pt x="926" y="317" on="1"/>
        <pt x="993" y="317" on="1"/>
        <pt x="989" y="43" on="1"/>
        <pt x="821" y="-20" on="0"/>
        <pt x="641" y="-20" on="1"/>
        <pt x="433" y="-20" on="0"/>
        <pt x="174" y="250" on="0"/>
        <pt x="143" y="502" on="1"/>
        <pt x="31" y="502" on="1"/>
        <pt x="31" y="584" on="1"/>
        <pt x="137" y="584" on="1"/>
        <pt x="135" y="637" on="0"/>
        <pt x="135" y="655" on="1"/>
        <pt x="135" y="725" on="0"/>
        <pt x="137" y="748" on="1"/>
        <pt x="31" y="748" on="1"/>
        <pt x="31" y="829" on="1"/>
      </contour>
    </TTGlyph>
    <TTGlyph name="F" xMin="59" yMin="0" xMax="1065" yMax="1341">
      <contour>
        <pt x="424" y="602" on="1"/>
        <pt x="424" y="80" on="1"/>
        <pt x="647" y="53" on="1"/>
        <pt x="647" y="0" on="1"/>
        <pt x="72" y="0" on="1"/>
        <pt x="72" y="53" on="1"/>
        <pt x="231" y="80" on="1"/>
        <pt x="231" y="1262" on="1"/>
        <pt x="59" y="1288" on="1"/>
        <pt x="59" y="1341" on="1"/>
        <pt x="1065" y="1341" on="1"/>
        <pt x="1065" y="1020" on="1"/>
        <pt x="999" y="1020" on="1"/>
        <pt x="967" y="1237" on="1"/>
        <pt x="855" y="1251" on="0"/>
        <pt x="643" y="1251" on="1"/>
        <pt x="424" y="1251" on="1"/>
        <pt x="424" y="692" on="1"/>
        <pt x="819" y="692" on="1"/>
        <pt x="850" y="852" on="1"/>
        <pt x="911" y="852" on="1"/>
        <pt x="911" y="440" on="1"/>
        <pt x="850" y="440" on="1"/>
        <pt x="819" y="602" on="1"/>
      </contour>
    </TTGlyph>
    <TTGlyph name="G" xMin="84" yMin="-20" xMax="1415" yMax="1356">
      <contour>
        <pt x="1284" y="70" on="1"/>
        <pt x="1168" y="32" on="0"/>
        <pt x="918" y="-20" on="0"/>
        <pt x="774" y="-20" on="1"/>
        <pt x="448" y="-20" on="0"/>
        <pt x="84" y="332" on="0"/>
        <pt x="84" y="655" on="1"/>
        <pt x="84" y="1007" on="0"/>
        <pt x="437" y="1356" on="0"/>
        <pt x="778" y="1356" on="1"/>
        <pt x="1022" y="1356" on="0"/>
        <pt x="1249" y="1296" on="1"/>
        <pt x="1249" y="1008" on="1"/>
        <pt x="1182" y="1008" on="1"/>
        <pt x="1155" y="1174" on="1"/>
        <pt x="1086" y="1223" on="0"/>
        <pt x="893" y="1276" on="0"/>
        <pt x="786" y="1276" on="1"/>
        <pt x="530" y="1276" on="0"/>
        <pt x="293" y="971" on="0"/>
        <pt x="293" y="657" on="1"/>
        <pt x="293" y="362" on="0"/>
        <pt x="537" y="57" on="0"/>
        <pt x="776" y="57" on="1"/>
        <pt x="860" y="57" on="0"/>
        <pt x="1044" y="97" on="0"/>
        <pt x="1092" y="125" on="1"/>
        <pt x="1092" y="506" on="1"/>
        <pt x="920" y="532" on="1"/>
        <pt x="920" y="586" on="1"/>
        <pt x="1415" y="586" on="1"/>
        <pt x="1415" y="532" on="1"/>
        <pt x="1284" y="506" on="1"/>
      </contour>
    </TTGlyph>
    <TTGlyph name="Gamma" xMin="59" yMin="0" xMax="1118" yMax="1341">
      <contour>
        <pt x="631" y="0" on="1"/>
        <pt x="59" y="0" on="1"/>
        <pt x="59" y="53" on="1"/>
        <pt x="231" y="79" on="1"/>
        <pt x="231" y="1261" on="1"/>
        <pt x="59" y="1288" on="1"/>
        <pt x="59" y="1341" on="1"/>
        <pt x="1100" y="1341" on="1"/>
        <pt x="1118" y="956" on="1"/>
        <pt x="1053" y="956" on="1"/>
        <pt x="991" y="1235" on="1"/>
        <pt x="891" y="1255" on="0"/>
        <pt x="678" y="1255" on="1"/>
        <pt x="424" y="1255" on="1"/>
        <pt x="424" y="79" on="1"/>
        <pt x="631" y="53" on="1"/>
      </contour>
    </TTGlyph>
    <TTGlyph name="Gbreve" xMin="84" yMin="-20" xMax="1415" yMax="1733">
      <component glyphName="G" x="0" y="0" flags="0x204"/>
      <component glyphName="breve" x="429" y="334" flags="0x4"/>
    </TTGlyph>
    <TTGlyph name="Gcircumflex" xMin="84" yMin="-20" xMax="1415" yMax="1759">
      <component glyphName="G" x="0" y="0" flags="0x204"/>
      <component glyphName="circumflex" x="433" y="334" flags="0x4"/>
    </TTGlyph>
    <TTGlyph name="H" xMin="59" yMin="0" xMax="1419" yMax="1341">
      <contour>
        <pt x="59" y="0" on="1"/>
        <pt x="59" y="53" on="1"/>
        <pt x="231" y="80" on="1"/>
        <pt x="231" y="1262" on="1"/>
        <pt x="59" y="1288" on="1"/>
        <pt x="59" y="1341" on="1"/>
        <pt x="596" y="1341" on="1"/>
        <pt x="596" y="1288" on="1"/>
        <pt x="424" y="1262" on="1"/>
        <pt x="424" y="735" on="1"/>
        <pt x="1055" y="735" on="1"/>
        <pt x="1055" y="1262" on="1"/>
        <pt x="883" y="1288" on="1"/>
        <pt x="883" y="1341" on="1"/>
        <pt x="1419" y="1341" on="1"/>
        <pt x="1419" y="1288" on="1"/>
        <pt x="1247" y="1262" on="1"/>
        <pt x="1247" y="80" on="1"/>
        <pt x="1419" y="53" on="1"/>
        <pt x="1419" y="0" on="1"/>
        <pt x="883" y="0" on="1"/>
        <pt x="883" y="53" on="1"/>
        <pt x="1055" y="80" on="1"/>
        <pt x="1055" y="645" on="1"/>
        <pt x="424" y="645" on="1"/>
        <pt x="424" y="80" on="1"/>
        <pt x="596" y="53" on="1"/>
        <pt x="596" y="0" on="1"/>
      </contour>
    </TTGlyph>
    <TTGlyph name="Hbar" xMin="59" yMin="0" xMax="1420" yMax="1341">
      <contour>
        <pt x="59" y="0" on="1"/>
        <pt x="59" y="53" on="1"/>
        <pt x="231" y="80" on="1"/>
        <pt x="231" y="957" on="1"/>
        <pt x="60" y="957" on="1"/>
        <pt x="60" y="1039" on="1"/>
        <pt x="231" y="1039" on="1"/>
        <pt x="231" y="1262" on="1"/>
        <pt x="59" y="1288" on="1"/>
        <pt x="59" y="1341" on="1"/>
        <pt x="596" y="1341" on="1"/>
        <pt x="596" y="1288" on="1"/>
        <pt x="424" y="1262" on="1"/>
        <pt x="424" y="1039" on="1"/>
        <pt x="1055" y="1039" on="1"/>
        <pt x="1055" y="1262" on="1"/>
        <pt x="883" y="1288" on="1"/>
        <pt x="883" y="1341" on="1"/>
        <pt x="1419" y="1341" on="1"/>
        <pt x="1419" y="1288" on="1"/>
        <pt x="1247" y="1262" on="1"/>
        <pt x="1247" y="1039" on="1"/>
        <pt x="1420" y="1039" on="1"/>
        <pt x="1420" y="957" on="1"/>
        <pt x="1247" y="957" on="1"/>
        <pt x="1247" y="80" on="1"/>
        <pt x="1419" y="53" on="1"/>
        <pt x="1419" y="0" on="1"/>
        <pt x="883" y="0" on="1"/>
        <pt x="883" y="53" on="1"/>
        <pt x="1055" y="80" on="1"/>
        <pt x="1055" y="645" on="1"/>
        <pt x="424" y="645" on="1"/>
        <pt x="424" y="80" on="1"/>
        <pt x="596" y="53" on="1"/>
        <pt x="596" y="0" on="1"/>
      </contour>
      <contour>
        <pt x="1055" y="735" on="1"/>
        <pt x="1055" y="957" on="1"/>
        <pt x="424" y="957" on="1"/>
        <pt x="424" y="735" on="1"/>
      </contour>
    </TTGlyph>
    <TTGlyph name="Hcircumflex" xMin="59" yMin="0" xMax="1419" yMax="1759">
      <component glyphName="H" x="0" y="0" flags="0x204"/>
      <component glyphName="circumflex" x="397" y="334" flags="0x4"/>
    </TTGlyph>
    <TTGlyph name="I" xMin="74" yMin="0" xMax="610" yMax="1341">
      <contour>
        <pt x="438" y="80" on="1"/>
        <pt x="610" y="53" on="1"/>
        <pt x="610" y="0" on="1"/>
        <pt x="74" y="0" on="1"/>
        <pt x="74" y="53" on="1"/>
        <pt x="246" y="80" on="1"/>
        <pt x="246" y="1262" on="1"/>
        <pt x="74" y="1288" on="1"/>
        <pt x="74" y="1341" on="1"/>
        <pt x="610" y="1341" on="1"/>
        <pt x="610" y="1288" on="1"/>
        <pt x="438" y="1262" on="1"/>
      </contour>
    </TTGlyph>
    <TTGlyph name="IJ" xMin="74" yMin="-20" xMax="1408" yMax="1341">
      <component glyphName="I" x="0" y="0" flags="0x4"/>
      <component glyphName="J" x="654" y="0" flags="0x4"/>
    </TTGlyph>
    <TTGlyph name="Iacute" xMin="74" yMin="0" xMax="618" yMax="1758">
      <component glyphName="I" x="0" y="0" flags="0x204"/>
      <component glyphName="acute" x="53" y="334" flags="0x4"/>
    </TTGlyph>
    <TTGlyph name="Ibreve" xMin="54" yMin="0" xMax="628" yMax="1733">
      <component glyphName="I" x="0" y="0" flags="0x204"/>
      <component glyphName="breve" x="1" y="334" flags="0x4"/>
    </TTGlyph>
    <TTGlyph name="Icircumflex" xMin="18" yMin="0" xMax="666" yMax="1759">
      <component glyphName="I" x="0" y="0" flags="0x204"/>
      <component glyphName="circumflex" x="0" y="334" flags="0x4"/>
    </TTGlyph>
    <TTGlyph name="Idieresis" xMin="63" yMin="0" xMax="618" yMax="1659">
      <component glyphName="I" x="0" y="0" flags="0x204"/>
      <component glyphName="dieresis" x="0" y="365" flags="0x4"/>
    </TTGlyph>
    <TTGlyph name="Idotaccent" xMin="74" yMin="0" xMax="610" yMax="1690">
      <component glyphName="I" x="0" y="0" flags="0x204"/>
      <component glyphName="dotaccent" x="-1" y="334" flags="0x4"/>
    </TTGlyph>
    <TTGlyph name="Igrave" xMin="54" yMin="0" xMax="610" yMax="1758">
      <component glyphName="I" x="0" y="0" flags="0x204"/>
      <component glyphName="grave" x="-65" y="334" flags="0x4"/>
    </TTGlyph>
    <TTGlyph name="Imacron" xMin="27" yMin="0" xMax="655" yMax="1584">
      <component glyphName="I" x="0" y="0" flags="0x204"/>
      <component glyphName="uni02C9" x="0" y="334" flags="0x4"/>
    </TTGlyph>
    <TTGlyph name="Iogonek" xMin="74" yMin="-403" xMax="610" yMax="1341">
      <component glyphName="I" x="0" y="0" flags="0x204"/>
      <component glyphName="ogonek" x="76" y="0" flags="0x4"/>
    </TTGlyph>
    <TTGlyph name="Iota" xMin="74" yMin="0" xMax="610" yMax="1341">
      <component glyphName="I" x="0" y="0" flags="0x204"/>
    </TTGlyph>
    <TTGlyph name="Iotadieresis" xMin="63" yMin="0" xMax="618" yMax="1659">
      <component glyphName="I" x="0" y="0" flags="0x204"/>
      <component glyphName="dieresis" x="0" y="365" flags="0x4"/>
    </TTGlyph>
    <TTGlyph name="Iotatonos" xMin="-72" yMin="0" xMax="770" yMax="1342">
      <component glyphName="I" x="160" y="0" flags="0x4"/>
      <component glyphName="tonos" x="-287" y="-102" flags="0x4"/>
    </TTGlyph>
    <TTGlyph name="Itilde" xMin="18" yMin="0" xMax="666" yMax="1714">
      <component glyphName="I" x="0" y="0" flags="0x204"/>
      <component glyphName="tilde" x="0" y="334" flags="0x4"/>
    </TTGlyph>
    <TTGlyph name="J" xMin="43" yMin="-20" xMax="754" yMax="1341">
      <contour>
        <pt x="410" y="1262" on="1"/>
        <pt x="238" y="1288" on="1"/>
        <pt x="238" y="1341" on="1"/>
        <pt x="754" y="1341" on="1"/>
        <pt x="754" y="1288" on="1"/>
        <pt x="602" y="1262" on="1"/>
        <pt x="602" y="432" on="1"/>
        <pt x="602" y="298" on="0"/>
        <pt x="520" y="97" on="0"/>
        <pt x="353" y="-20" on="0"/>
        <pt x="250" y="-20" on="1"/>
        <pt x="122" y="-20" on="0"/>
        <pt x="43" y="10" on="1"/>
        <pt x="43" y="254" on="1"/>
        <pt x="109" y="254" on="1"/>
        <pt x="139" y="115" on="1"/>
        <pt x="158" y="92" on="0"/>
        <pt x="228" y="66" on="0"/>
        <pt x="270" y="66" on="1"/>
        <pt x="410" y="66" on="0"/>
        <pt x="410" y="256" on="1"/>
      </contour>
    </TTGlyph>
    <TTGlyph name="Jcircumflex" xMin="43" yMin="-20" xMax="828" yMax="1759">
      <component glyphName="J" x="0" y="0" flags="0x204"/>
      <component glyphName="circumflex" x="162" y="334" flags="0x4"/>
    </TTGlyph>
    <TTGlyph name="K" xMin="59" yMin="0" xMax="1458" yMax="1341">
      <contour>
        <pt x="1353" y="1341" on="1"/>
        <pt x="1353" y="1288" on="1"/>
        <pt x="1198" y="1262" on="1"/>
        <pt x="740" y="814" on="1"/>
        <pt x="1313" y="80" on="1"/>
        <pt x="1458" y="53" on="1"/>
        <pt x="1458" y="0" on="1"/>
        <pt x="1130" y="0" on="1"/>
        <pt x="605" y="678" on="1"/>
        <pt x="424" y="533" on="1"/>
        <pt x="424" y="80" on="1"/>
        <pt x="616" y="53" on="1"/>
        <pt x="616" y="0" on="1"/>
        <pt x="59" y="0" on="1"/>
        <pt x="59" y="53" on="1"/>
        <pt x="231" y="80" on="1"/>
        <pt x="231" y="1262" on="1"/>
        <pt x="59" y="1288" on="1"/>
        <pt x="59" y="1341" on="1"/>
        <pt x="596" y="1341" on="1"/>
        <pt x="596" y="1288" on="1"/>
        <pt x="424" y="1262" on="1"/>
        <pt x="424" y="630" on="1"/>
        <pt x="1066" y="1262" on="1"/>
        <pt x="933" y="1288" on="1"/>
        <pt x="933" y="1341" on="1"/>
      </contour>
    </TTGlyph>
    <TTGlyph name="Kappa" xMin="59" yMin="0" xMax="1458" yMax="1341">
      <component glyphName="K" x="0" y="0" flags="0x204"/>
    </TTGlyph>
    <TTGlyph name="L" xMin="59" yMin="0" xMax="1128" yMax="1341">
      <contour>
        <pt x="631" y="1288" on="1"/>
        <pt x="424" y="1262" on="1"/>
        <pt x="424" y="86" on="1"/>
        <pt x="688" y="86" on="1"/>
        <pt x="901" y="86" on="0"/>
        <pt x="1001" y="106" on="1"/>
        <pt x="1063" y="385" on="1"/>
        <pt x="1128" y="385" on="1"/>
        <pt x="1110" y="0" on="1"/>
        <pt x="59" y="0" on="1"/>
        <pt x="59" y="53" on="1"/>
        <pt x="231" y="80" on="1"/>
        <pt x="231" y="1262" on="1"/>
        <pt x="59" y="1288" on="1"/>
        <pt x="59" y="1341" on="1"/>
        <pt x="631" y="1341" on="1"/>
      </contour>
    </TTGlyph>
    <TTGlyph name="Lacute" xMin="59" yMin="0" xMax="1128" yMax="1758">
      <component glyphName="L" x="0" y="0" flags="0x204"/>
      <component glyphName="acute" x="137" y="334" flags="0x4"/>
    </TTGlyph>
    <TTGlyph name="Lambda" xMin="20" yMin="0" xMax="1464" yMax="1352">
      <contour>
        <pt x="281" y="80" on="1"/>
        <pt x="461" y="53" on="1"/>
        <pt x="461" y="0" on="1"/>
        <pt x="20" y="0" on="1"/>
        <pt x="20" y="53" on="1"/>
        <pt x="165" y="80" on="1"/>
        <pt x="629" y="1352" on="1"/>
        <pt x="819" y="1352" on="1"/>
        <pt x="1294" y="80" on="1"/>
        <pt x="1464" y="53" on="1"/>
        <pt x="1464" y="0" on="1"/>
        <pt x="897" y="0" on="1"/>
        <pt x="897" y="53" on="1"/>
        <pt x="1077" y="80" on="1"/>
        <pt x="682" y="1197" on="1"/>
      </contour>
    </TTGlyph>
    <TTGlyph name="Lcaron" xMin="59" yMin="0" xMax="1128" yMax="1341">
      <component glyphName="L" x="0" y="0" flags="0x4"/>
      <component glyphName="caroncommaaccent" x="730" y="0" flags="0x4"/>
    </TTGlyph>
    <TTGlyph name="Ldot" xMin="59" yMin="0" xMax="1128" yMax="1341">
      <component glyphName="L" x="0" y="0" flags="0x204"/>
      <component glyphName="dotaccent" x="467" y="-514" flags="0x4"/>
    </TTGlyph>
    <TTGlyph name="Lslash" xMin="43" yMin="0" xMax="1128" yMax="1341">
      <contour>
        <pt x="43" y="518" on="1"/>
        <pt x="231" y="627" on="1"/>
        <pt x="231" y="1262" on="1"/>
        <pt x="59" y="1288" on="1"/>
        <pt x="59" y="1341" on="1"/>
        <pt x="631" y="1341" on="1"/>
        <pt x="631" y="1288" on="1"/>
        <pt x="424" y="1262" on="1"/>
        <pt x="424" y="737" on="1"/>
        <pt x="731" y="915" on="1"/>
        <pt x="731" y="821" on="1"/>
        <pt x="424" y="643" on="1"/>
        <pt x="424" y="86" on="1"/>
        <pt x="688" y="86" on="1"/>
        <pt x="901" y="86" on="0"/>
        <pt x="1001" y="106" on="1"/>
        <pt x="1063" y="385" on="1"/>
        <pt x="1128" y="385" on="1"/>
        <pt x="1110" y="0" on="1"/>
        <pt x="59" y="0" on="1"/>
        <pt x="59" y="53" on="1"/>
        <pt x="231" y="80" on="1"/>
        <pt x="231" y="532" on="1"/>
        <pt x="43" y="422" on="1"/>
      </contour>
    </TTGlyph>
    <TTGlyph name="M" xMin="59" yMin="0" xMax="1761" yMax="1341">
      <contour>
        <pt x="862" y="0" on="1"/>
        <pt x="827" y="0" on="1"/>
        <pt x="336" y="1153" on="1"/>
        <pt x="336" y="80" on="1"/>
        <pt x="516" y="53" on="1"/>
        <pt x="516" y="0" on="1"/>
        <pt x="59" y="0" on="1"/>
        <pt x="59" y="53" on="1"/>
        <pt x="231" y="80" on="1"/>
        <pt x="231" y="1262" on="1"/>
        <pt x="59" y="1288" on="1"/>
        <pt x="59" y="1341" on="1"/>
        <pt x="465" y="1341" on="1"/>
        <pt x="901" y="321" on="1"/>
        <pt x="1377" y="1341" on="1"/>
        <pt x="1761" y="1341" on="1"/>
        <pt x="1761" y="1288" on="1"/>
        <pt x="1589" y="1262" on="1"/>
        <pt x="1589" y="80" on="1"/>
        <pt x="1761" y="53" on="1"/>
        <pt x="1761" y="0" on="1"/>
        <pt x="1217" y="0" on="1"/>
        <pt x="1217" y="53" on="1"/>
        <pt x="1397" y="80" on="1"/>
        <pt x="1397" y="1153" on="1"/>
      </contour>
    </TTGlyph>
    <TTGlyph name="Mu" xMin="59" yMin="0" xMax="1761" yMax="1341">
      <component glyphName="M" x="0" y="0" flags="0x204"/>
    </TTGlyph>
    <TTGlyph name="N" xMin="59" yMin="0" xMax="1432" yMax="1341">
      <contour>
        <pt x="1155" y="1262" on="1"/>
        <pt x="975" y="1288" on="1"/>
        <pt x="975" y="1341" on="1"/>
        <pt x="1432" y="1341" on="1"/>
        <pt x="1432" y="1288" on="1"/>
        <pt x="1260" y="1262" on="1"/>
        <pt x="1260" y="0" on="1"/>
        <pt x="1163" y="0" on="1"/>
        <pt x="336" y="1206" on="1"/>
        <pt x="336" y="80" on="1"/>
        <pt x="516" y="53" on="1"/>
        <pt x="516" y="0" on="1"/>
        <pt x="59" y="0" on="1"/>
        <pt x="59" y="53" on="1"/>
        <pt x="231" y="80" on="1"/>
        <pt x="231" y="1262" on="1"/>
        <pt x="59" y="1288" on="1"/>
        <pt x="59" y="1341" on="1"/>
        <pt x="465" y="1341" on="1"/>
        <pt x="1155" y="348" on="1"/>
      </contour>
    </TTGlyph>
    <TTGlyph name="Nacute" xMin="59" yMin="0" xMax="1432" yMax="1758">
      <component glyphName="N" x="0" y="0" flags="0x204"/>
      <component glyphName="acute" x="503" y="334" flags="0x4"/>
    </TTGlyph>
    <TTGlyph name="Ncaron" xMin="59" yMin="0" xMax="1432" yMax="1759">
      <component glyphName="N" x="0" y="0" flags="0x204"/>
      <component glyphName="caron" x="397" y="334" flags="0x4"/>
    </TTGlyph>
    <TTGlyph name="Ntilde" xMin="59" yMin="0" xMax="1432" yMax="1714">
      <component glyphName="N" x="0" y="0" flags="0x204"/>
      <component glyphName="tilde" x="408" y="334" flags="0x4"/>
    </TTGlyph>
    <TTGlyph name="Nu" xMin="59" yMin="0" xMax="1432" yMax="1341">
      <component glyphName="N" x="0" y="0" flags="0x204"/>
    </TTGlyph>
    <TTGlyph name="O" xMin="84" yMin="-20" xMax="1395" yMax="1356">
      <contour>
        <pt x="293" y="672" on="1"/>
        <pt x="293" y="349" on="0"/>
        <pt x="509" y="59" on="0"/>
        <pt x="739" y="59" on="1"/>
        <pt x="968" y="59" on="0"/>
        <pt x="1186" y="349" on="0"/>
        <pt x="1186" y="672" on="1"/>
        <pt x="1186" y="993" on="0"/>
        <pt x="969" y="1276" on="0"/>
        <pt x="739" y="1276" on="1"/>
        <pt x="508" y="1276" on="0"/>
        <pt x="293" y="993" on="0"/>
      </contour>
      <contour>
        <pt x="84" y="672" on="1"/>
        <pt x="84" y="1356" on="0"/>
        <pt x="739" y="1356" on="1"/>
        <pt x="1063" y="1356" on="0"/>
        <pt x="1395" y="1009" on="0"/>
        <pt x="1395" y="672" on="1"/>
        <pt x="1395" y="330" on="0"/>
        <pt x="1059" y="-20" on="0"/>
        <pt x="739" y="-20" on="1"/>
        <pt x="420" y="-20" on="0"/>
        <pt x="84" y="329" on="0"/>
      </contour>
    </TTGlyph>
    <TTGlyph name="OE" xMin="84" yMin="-6" xMax="1718" yMax="1348">
      <contour>
        <pt x="1016" y="0" on="1"/>
        <pt x="739" y="-6" on="1"/>
        <pt x="414" y="-6" on="0"/>
        <pt x="84" y="335" on="0"/>
        <pt x="84" y="672" on="1"/>
        <pt x="84" y="1011" on="0"/>
        <pt x="408" y="1348" on="0"/>
        <pt x="739" y="1348" on="1"/>
        <pt x="1012" y="1341" on="1"/>
        <pt x="1634" y="1341" on="1"/>
        <pt x="1634" y="1020" on="1"/>
        <pt x="1569" y="1020" on="1"/>
        <pt x="1536" y="1237" on="1"/>
        <pt x="1424" y="1251" on="0"/>
        <pt x="1212" y="1251" on="1"/>
        <pt x="1075" y="1251" on="1"/>
        <pt x="1075" y="727" on="1"/>
        <pt x="1356" y="727" on="1"/>
        <pt x="1386" y="887" on="1"/>
        <pt x="1450" y="887" on="1"/>
        <pt x="1450" y="475" on="1"/>
        <pt x="1386" y="475" on="1"/>
        <pt x="1356" y="637" on="1"/>
        <pt x="1075" y="637" on="1"/>
        <pt x="1075" y="90" on="1"/>
        <pt x="1257" y="90" on="1"/>
        <pt x="1515" y="90" on="0"/>
        <pt x="1595" y="106" on="1"/>
        <pt x="1653" y="354" on="1"/>
        <pt x="1718" y="354" on="1"/>
        <pt x="1700" y="0" on="1"/>
      </contour>
      <contour>
        <pt x="739" y="74" on="1"/>
        <pt x="817" y="74" on="0"/>
        <pt x="881" y="84" on="1"/>
        <pt x="881" y="1257" on="1"/>
        <pt x="831" y="1268" on="0"/>
        <pt x="739" y="1268" on="1"/>
        <pt x="508" y="1268" on="0"/>
        <pt x="293" y="991" on="0"/>
        <pt x="293" y="672" on="1"/>
        <pt x="293" y="352" on="0"/>
        <pt x="508" y="74" on="0"/>
      </contour>
    </TTGlyph>
    <TTGlyph name="Oacute" xMin="84" yMin="-20" xMax="1395" yMax="1758">
      <component glyphName="O" x="0" y="0" flags="0x204"/>
      <component glyphName="acute" x="471" y="334" flags="0x4"/>
    </TTGlyph>
    <TTGlyph name="Obreve" xMin="84" yMin="-20" xMax="1395" yMax="1733">
      <component glyphName="O" x="0" y="0" flags="0x204"/>
      <component glyphName="breve" x="399" y="334" flags="0x4"/>
    </TTGlyph>
    <TTGlyph name="Ocircumflex" xMin="84" yMin="-20" xMax="1395" yMax="1759">
      <component glyphName="O" x="0" y="0" flags="0x204"/>
      <component glyphName="circumflex" x="399" y="334" flags="0x4"/>
    </TTGlyph>
    <TTGlyph name="Odieresis" xMin="84" yMin="-20" xMax="1395" yMax="1659">
      <component glyphName="O" x="0" y="0" flags="0x204"/>
      <component glyphName="dieresis" x="395" y="365" flags="0x4"/>
    </TTGlyph>
    <TTGlyph name="Ograve" xMin="84" yMin="-20" xMax="1395" yMax="1758">
      <component glyphName="O" x="0" y="0" flags="0x204"/>
      <component glyphName="grave" x="367" y="334" flags="0x4"/>
    </TTGlyph>
    <TTGlyph name="Ohm" xMin="131" yMin="0" xMax="1441" yMax="1356">
      <contour>
        <pt x="786" y="1276" on="1"/>
        <pt x="560" y="1276" on="0"/>
        <pt x="340" y="1049" on="0"/>
        <pt x="340" y="801" on="1"/>
        <pt x="340" y="602" on="0"/>
        <pt x="524" y="364" on="0"/>
        <pt x="693" y="343" on="1"/>
        <pt x="720" y="0" on="1"/>
        <pt x="151" y="0" on="1"/>
        <pt x="132" y="330" on="1"/>
        <pt x="198" y="330" on="1"/>
        <pt x="255" y="186" on="1"/>
        <pt x="335" y="170" on="0"/>
        <pt x="539" y="170" on="1"/>
        <pt x="611" y="170" on="1"/>
        <pt x="601" y="271" on="1"/>
        <pt x="386" y="304" on="0"/>
        <pt x="131" y="590" on="0"/>
        <pt x="131" y="801" on="1"/>
        <pt x="131" y="1073" on="0"/>
        <pt x="463" y="1356" on="0"/>
        <pt x="786" y="1356" on="1"/>
        <pt x="1109" y="1356" on="0"/>
        <pt x="1441" y="1073" on="0"/>
        <pt x="1441" y="801" on="1"/>
        <pt x="1441" y="590" on="0"/>
        <pt x="1185" y="304" on="0"/>
        <pt x="971" y="271" on="1"/>
        <pt x="961" y="170" on="1"/>
        <pt x="1033" y="170" on="1"/>
        <pt x="1237" y="170" on="0"/>
        <pt x="1317" y="186" on="1"/>
        <pt x="1374" y="330" on="1"/>
        <pt x="1440" y="330" on="1"/>
        <pt x="1421" y="0" on="1"/>
        <pt x="852" y="0" on="1"/>
        <pt x="879" y="343" on="1"/>
        <pt x="1049" y="364" on="0"/>
        <pt x="1232" y="602" on="0"/>
        <pt x="1232" y="801" on="1"/>
        <pt x="1232" y="1050" on="0"/>
        <pt x="1012" y="1276" on="0"/>
      </contour>
    </TTGlyph>
    <TTGlyph name="Ohorn" xMin="84" yMin="-20" xMax="1545" yMax="1463">
      <contour>
        <pt x="1545" y="1301" on="1"/>
        <pt x="1545" y="1102" on="0"/>
        <pt x="1343" y="996" on="1"/>
        <pt x="1395" y="860" on="0"/>
        <pt x="1395" y="672" on="1"/>
        <pt x="1395" y="330" on="0"/>
        <pt x="1059" y="-20" on="0"/>
        <pt x="739" y="-20" on="1"/>
        <pt x="420" y="-20" on="0"/>
        <pt x="84" y="329" on="0"/>
        <pt x="84" y="672" on="1"/>
        <pt x="84" y="1356" on="0"/>
        <pt x="739" y="1356" on="1"/>
        <pt x="1163" y="1356" on="0"/>
        <pt x="1314" y="1062" on="1"/>
        <pt x="1416" y="1117" on="0"/>
        <pt x="1416" y="1182" on="1"/>
        <pt x="1416" y="1202" on="0"/>
        <pt x="1386" y="1234" on="0"/>
        <pt x="1349" y="1253" on="1"/>
        <pt x="1281" y="1288" on="0"/>
        <pt x="1281" y="1352" on="1"/>
        <pt x="1281" y="1406" on="0"/>
        <pt x="1349" y="1463" on="0"/>
        <pt x="1402" y="1463" on="1"/>
        <pt x="1463" y="1463" on="0"/>
        <pt x="1545" y="1376" on="0"/>
      </contour>
      <contour>
        <pt x="293" y="672" on="1"/>
        <pt x="293" y="349" on="0"/>
        <pt x="509" y="59" on="0"/>
        <pt x="739" y="59" on="1"/>
        <pt x="968" y="59" on="0"/>
        <pt x="1186" y="349" on="0"/>
        <pt x="1186" y="672" on="1"/>
        <pt x="1186" y="993" on="0"/>
        <pt x="969" y="1276" on="0"/>
        <pt x="739" y="1276" on="1"/>
        <pt x="508" y="1276" on="0"/>
        <pt x="293" y="993" on="0"/>
      </contour>
    </TTGlyph>
    <TTGlyph name="Omacron" xMin="84" yMin="-20" xMax="1395" yMax="1584">
      <component glyphName="O" x="0" y="0" flags="0x204"/>
      <component glyphName="uni02C9" x="398" y="334" flags="0x4"/>
    </TTGlyph>
    <TTGlyph name="Omega" xMin="106" yMin="0" xMax="1416" yMax="1356">
      <contour>
        <pt x="761" y="1276" on="1"/>
        <pt x="535" y="1276" on="0"/>
        <pt x="315" y="1049" on="0"/>
        <pt x="315" y="801" on="1"/>
        <pt x="315" y="602" on="0"/>
        <pt x="499" y="364" on="0"/>
        <pt x="668" y="343" on="1"/>
        <pt x="695" y="0" on="1"/>
        <pt x="126" y="0" on="1"/>
        <pt x="107" y="330" on="1"/>
        <pt x="173" y="330" on="1"/>
        <pt x="230" y="186" on="1"/>
        <pt x="310" y="170" on="0"/>
        <pt x="514" y="170" on="1"/>
        <pt x="586" y="170" on="1"/>
        <pt x="576" y="271" on="1"/>
        <pt x="361" y="304" on="0"/>
        <pt x="106" y="590" on="0"/>
        <pt x="106" y="801" on="1"/>
        <pt x="106" y="1073" on="0"/>
        <pt x="438" y="1356" on="0"/>
        <pt x="761" y="1356" on="1"/>
        <pt x="1084" y="1356" on="0"/>
        <pt x="1416" y="1073" on="0"/>
        <pt x="1416" y="801" on="1"/>
        <pt x="1416" y="590" on="0"/>
        <pt x="1160" y="304" on="0"/>
        <pt x="946" y="271" on="1"/>
        <pt x="936" y="170" on="1"/>
        <pt x="1008" y="170" on="1"/>
        <pt x="1212" y="170" on="0"/>
        <pt x="1292" y="186" on="1"/>
        <pt x="1349" y="330" on="1"/>
        <pt x="1415" y="330" on="1"/>
        <pt x="1396" y="0" on="1"/>
        <pt x="827" y="0" on="1"/>
        <pt x="854" y="343" on="1"/>
        <pt x="1024" y="364" on="0"/>
        <pt x="1207" y="602" on="0"/>
        <pt x="1207" y="801" on="1"/>
        <pt x="1207" y="1050" on="0"/>
        <pt x="987" y="1276" on="0"/>
      </contour>
    </TTGlyph>
    <TTGlyph name="Omegatonos" xMin="-60" yMin="0" xMax="1417" yMax="1356">
      <component glyphName="uni2126" x="-24" y="0" flags="0x4"/>
      <component glyphName="tonos" x="-275" y="-102" flags="0x4"/>
    </TTGlyph>
    <TTGlyph name="Omicron" xMin="84" yMin="-20" xMax="1395" yMax="1356">
      <component glyphName="O" x="0" y="0" flags="0x204"/>
    </TTGlyph>
    <TTGlyph name="Omicrontonos" xMin="-60" yMin="-20" xMax="1395" yMax="1356">
      <component glyphName="O" x="0" y="0" flags="0x204"/>
      <component glyphName="tonos" x="-275" y="-102" flags="0x4"/>
    </TTGlyph>
    <TTGlyph name="Oslash" xMin="84" yMin="-55" xMax="1395" yMax="1391">
      <contour>
        <pt x="84" y="672" on="1"/>
        <pt x="84" y="1356" on="0"/>
        <pt x="739" y="1356" on="1"/>
        <pt x="998" y="1356" on="0"/>
        <pt x="1157" y="1243" on="1"/>
        <pt x="1280" y="1391" on="1"/>
        <pt x="1395" y="1391" on="1"/>
        <pt x="1225" y="1186" on="1"/>
        <pt x="1395" y="1008" on="0"/>
        <pt x="1395" y="672" on="1"/>
        <pt x="1395" y="330" on="0"/>
        <pt x="1059" y="-20" on="0"/>
        <pt x="739" y="-20" on="1"/>
        <pt x="480" y="-20" on="0"/>
        <pt x="326" y="90" on="1"/>
        <pt x="205" y="-55" on="1"/>
        <pt x="86" y="-55" on="1"/>
        <pt x="256" y="150" on="1"/>
        <pt x="84" y="326" on="0"/>
      </contour>
      <contour>
        <pt x="293" y="672" on="1"/>
        <pt x="293" y="419" on="0"/>
        <pt x="358" y="274" on="1"/>
        <pt x="1073" y="1139" on="1"/>
        <pt x="965" y="1276" on="0"/>
        <pt x="739" y="1276" on="1"/>
        <pt x="508" y="1276" on="0"/>
        <pt x="293" y="993" on="0"/>
      </contour>
      <contour>
        <pt x="1186" y="672" on="1"/>
        <pt x="1186" y="916" on="0"/>
        <pt x="1122" y="1059" on="1"/>
        <pt x="410" y="193" on="1"/>
        <pt x="516" y="59" on="0"/>
        <pt x="739" y="59" on="1"/>
        <pt x="968" y="59" on="0"/>
        <pt x="1186" y="349" on="0"/>
      </contour>
    </TTGlyph>
    <TTGlyph name="Oslashacute" xMin="84" yMin="-55" xMax="1395" yMax="1758">
      <component glyphName="Oslash" x="0" y="0" flags="0x204"/>
      <component glyphName="acute" x="471" y="334" flags="0x4"/>
    </TTGlyph>
    <TTGlyph name="Otilde" xMin="84" yMin="-20" xMax="1395" yMax="1714">
      <component glyphName="O" x="0" y="0" flags="0x204"/>
      <component glyphName="tilde" x="396" y="334" flags="0x4"/>
    </TTGlyph>
    <TTGlyph name="P" xMin="59" yMin="0" xMax="1057" yMax="1341">
      <contour>
        <pt x="858" y="944" on="1"/>
        <pt x="858" y="1109" on="0"/>
        <pt x="704" y="1251" on="0"/>
        <pt x="522" y="1251" on="1"/>
        <pt x="424" y="1251" on="1"/>
        <pt x="424" y="616" on="1"/>
        <pt x="528" y="616" on="1"/>
        <pt x="697" y="616" on="0"/>
        <pt x="858" y="770" on="0"/>
      </contour>
      <contour>
        <pt x="424" y="526" on="1"/>
        <pt x="424" y="80" on="1"/>
        <pt x="637" y="53" on="1"/>
        <pt x="637" y="0" on="1"/>
        <pt x="72" y="0" on="1"/>
        <pt x="72" y="53" on="1"/>
        <pt x="231" y="80" on="1"/>
        <pt x="231" y="1262" on="1"/>
        <pt x="59" y="1288" on="1"/>
        <pt x="59" y="1341" on="1"/>
        <pt x="565" y="1341" on="1"/>
        <pt x="1057" y="1341" on="0"/>
        <pt x="1057" y="946" on="1"/>
        <pt x="1057" y="740" on="0"/>
        <pt x="808" y="526" on="0"/>
        <pt x="575" y="526" on="1"/>
      </contour>
    </TTGlyph>
    <TTGlyph name="Phi" xMin="62" yMin="0" xMax="1435" yMax="1341">
      <contour>
        <pt x="839" y="80" on="1"/>
        <pt x="1011" y="53" on="1"/>
        <pt x="1011" y="0" on="1"/>
        <pt x="485" y="0" on="1"/>
        <pt x="485" y="53" on="1"/>
        <pt x="657" y="80" on="1"/>
        <pt x="657" y="222" on="1"/>
        <pt x="544" y="222" on="1"/>
        <pt x="398" y="222" on="0"/>
        <pt x="184" y="328" on="0"/>
        <pt x="62" y="546" on="0"/>
        <pt x="62" y="692" on="1"/>
        <pt x="62" y="906" on="0"/>
        <pt x="320" y="1137" on="0"/>
        <pt x="554" y="1137" on="1"/>
        <pt x="657" y="1137" on="1"/>
        <pt x="657" y="1262" on="1"/>
        <pt x="485" y="1288" on="1"/>
        <pt x="485" y="1341" on="1"/>
        <pt x="1011" y="1341" on="1"/>
        <pt x="1011" y="1288" on="1"/>
        <pt x="839" y="1262" on="1"/>
        <pt x="839" y="1137" on="1"/>
        <pt x="943" y="1137" on="1"/>
        <pt x="1177" y="1137" on="0"/>
        <pt x="1435" y="906" on="0"/>
        <pt x="1435" y="692" on="1"/>
        <pt x="1435" y="547" on="0"/>
        <pt x="1314" y="329" on="0"/>
        <pt x="1100" y="222" on="0"/>
        <pt x="953" y="222" on="1"/>
        <pt x="839" y="222" on="1"/>
      </contour>
      <contour>
        <pt x="906" y="300" on="1"/>
        <pt x="1066" y="300" on="0"/>
        <pt x="1236" y="499" on="0"/>
        <pt x="1236" y="690" on="1"/>
        <pt x="1236" y="874" on="0"/>
        <pt x="1066" y="1060" on="0"/>
        <pt x="900" y="1060" on="1"/>
        <pt x="839" y="1060" on="1"/>
        <pt x="839" y="300" on="1"/>
      </contour>
      <contour>
        <pt x="261" y="690" on="1"/>
        <pt x="261" y="499" on="0"/>
        <pt x="431" y="300" on="0"/>
        <pt x="591" y="300" on="1"/>
        <pt x="657" y="300" on="1"/>
        <pt x="657" y="1060" on="1"/>
        <pt x="597" y="1060" on="1"/>
        <pt x="431" y="1060" on="0"/>
        <pt x="261" y="874" on="0"/>
      </contour>
    </TTGlyph>
    <TTGlyph name="Pi" xMin="59" yMin="0" xMax="1419" yMax="1341">
      <contour>
        <pt x="59" y="0" on="1"/>
        <pt x="59" y="53" on="1"/>
        <pt x="231" y="80" on="1"/>
        <pt x="231" y="1262" on="1"/>
        <pt x="59" y="1288" on="1"/>
        <pt x="59" y="1341" on="1"/>
        <pt x="1419" y="1341" on="1"/>
        <pt x="1419" y="1288" on="1"/>
        <pt x="1247" y="1262" on="1"/>
        <pt x="1247" y="80" on="1"/>
        <pt x="1419" y="53" on="1"/>
        <pt x="1419" y="0" on="1"/>
        <pt x="883" y="0" on="1"/>
        <pt x="883" y="53" on="1"/>
        <pt x="1055" y="80" on="1"/>
        <pt x="1055" y="1251" on="1"/>
        <pt x="424" y="1251" on="1"/>
        <pt x="424" y="80" on="1"/>
        <pt x="596" y="53" on="1"/>
        <pt x="596" y="0" on="1"/>
      </contour>
    </TTGlyph>
    <TTGlyph name="Psi" xMin="6" yMin="0" xMax="1506" yMax="1341">
      <contour>
        <pt x="846" y="80" on="1"/>
        <pt x="1028" y="53" on="1"/>
        <pt x="1028" y="0" on="1"/>
        <pt x="482" y="0" on="1"/>
        <pt x="482" y="53" on="1"/>
        <pt x="664" y="80" on="1"/>
        <pt x="664" y="506" on="1"/>
        <pt x="384" y="506" on="0"/>
        <pt x="128" y="704" on="0"/>
        <pt x="128" y="931" on="1"/>
        <pt x="128" y="1262" on="1"/>
        <pt x="6" y="1288" on="1"/>
        <pt x="6" y="1341" on="1"/>
        <pt x="320" y="1341" on="1"/>
        <pt x="320" y="926" on="1"/>
        <pt x="320" y="755" on="0"/>
        <pt x="484" y="586" on="0"/>
        <pt x="664" y="585" on="1"/>
        <pt x="664" y="1262" on="1"/>
        <pt x="482" y="1288" on="1"/>
        <pt x="482" y="1341" on="1"/>
        <pt x="1028" y="1341" on="1"/>
        <pt x="1028" y="1288" on="1"/>
        <pt x="846" y="1262" on="1"/>
        <pt x="846" y="585" on="1"/>
        <pt x="1027" y="586" on="0"/>
        <pt x="1192" y="754" on="0"/>
        <pt x="1192" y="926" on="1"/>
        <pt x="1192" y="1341" on="1"/>
        <pt x="1506" y="1341" on="1"/>
        <pt x="1506" y="1288" on="1"/>
        <pt x="1384" y="1262" on="1"/>
        <pt x="1384" y="931" on="1"/>
        <pt x="1384" y="705" on="0"/>
        <pt x="1129" y="506" on="0"/>
        <pt x="846" y="506" on="1"/>
      </contour>
    </TTGlyph>
    <TTGlyph name="Q" xMin="84" yMin="-332" xMax="1444" yMax="1356">
      <contour>
        <pt x="293" y="670" on="1"/>
        <pt x="293" y="347" on="0"/>
        <pt x="509" y="59" on="0"/>
        <pt x="739" y="59" on="1"/>
        <pt x="968" y="59" on="0"/>
        <pt x="1186" y="345" on="0"/>
        <pt x="1186" y="670" on="1"/>
        <pt x="1186" y="993" on="0"/>
        <pt x="967" y="1276" on="0"/>
        <pt x="739" y="1276" on="1"/>
        <pt x="509" y="1276" on="0"/>
        <pt x="293" y="991" on="0"/>
      </contour>
      <contour>
        <pt x="84" y="670" on="1"/>
        <pt x="84" y="1356" on="0"/>
        <pt x="739" y="1356" on="1"/>
        <pt x="1061" y="1356" on="0"/>
        <pt x="1395" y="1009" on="0"/>
        <pt x="1395" y="670" on="1"/>
        <pt x="1395" y="179" on="0"/>
        <pt x="1040" y="33" on="1"/>
        <pt x="1090" y="-29" on="1"/>
        <pt x="1178" y="-139" on="0"/>
        <pt x="1302" y="-233" on="0"/>
        <pt x="1362" y="-233" on="1"/>
        <pt x="1444" y="-229" on="1"/>
        <pt x="1444" y="-295" on="1"/>
        <pt x="1421" y="-305" on="0"/>
        <pt x="1294" y="-332" on="0"/>
        <pt x="1247" y="-332" on="1"/>
        <pt x="1176" y="-332" on="0"/>
        <pt x="1066" y="-285" on="0"/>
        <pt x="954" y="-182" on="0"/>
        <pt x="823" y="-16" on="1"/>
        <pt x="787" y="-20" on="0"/>
        <pt x="739" y="-20" on="1"/>
        <pt x="418" y="-20" on="0"/>
        <pt x="84" y="331" on="0"/>
      </contour>
    </TTGlyph>
    <TTGlyph name="R" xMin="59" yMin="0" xMax="1363" yMax="1341">
      <contour>
        <pt x="424" y="588" on="1"/>
        <pt x="424" y="80" on="1"/>
        <pt x="627" y="53" on="1"/>
        <pt x="627" y="0" on="1"/>
        <pt x="72" y="0" on="1"/>
        <pt x="72" y="53" on="1"/>
        <pt x="231" y="80" on="1"/>
        <pt x="231" y="1262" on="1"/>
        <pt x="59" y="1288" on="1"/>
        <pt x="59" y="1341" on="1"/>
        <pt x="638" y="1341" on="1"/>
        <pt x="890" y="1341" on="0"/>
        <pt x="1130" y="1171" on="0"/>
        <pt x="1130" y="983" on="1"/>
        <pt x="1130" y="849" on="0"/>
        <pt x="984" y="654" on="0"/>
        <pt x="855" y="616" on="1"/>
        <pt x="1218" y="80" on="1"/>
        <pt x="1363" y="53" on="1"/>
        <pt x="1363" y="0" on="1"/>
        <pt x="1042" y="0" on="1"/>
        <pt x="665" y="588" on="1"/>
      </contour>
      <contour>
        <pt x="931" y="969" on="1"/>
        <pt x="931" y="1122" on="0"/>
        <pt x="782" y="1251" on="0"/>
        <pt x="595" y="1251" on="1"/>
        <pt x="424" y="1251" on="1"/>
        <pt x="424" y="678" on="1"/>
        <pt x="601" y="678" on="1"/>
        <pt x="780" y="678" on="0"/>
        <pt x="931" y="811" on="0"/>
      </contour>
    </TTGlyph>
    <TTGlyph name="Racute" xMin="59" yMin="0" xMax="1363" yMax="1758">
      <component glyphName="R" x="0" y="0" flags="0x204"/>
      <component glyphName="acute" x="380" y="334" flags="0x4"/>
    </TTGlyph>
    <TTGlyph name="Rcaron" xMin="59" yMin="0" xMax="1363" yMax="1759">
      <component glyphName="R" x="0" y="0" flags="0x204"/>
      <component glyphName="caron" x="291" y="334" flags="0x4"/>
    </TTGlyph>
    <TTGlyph name="Rho" xMin="59" yMin="0" xMax="1057" yMax="1341">
      <component glyphName="P" x="0" y="0" flags="0x204"/>
    </TTGlyph>
    <TTGlyph name="S" xMin="137" yMin="-20" xMax="1012" yMax="1356">
      <contour>
        <pt x="139" y="361" on="1"/>
        <pt x="204" y="361" on="1"/>
        <pt x="239" y="180" on="1"/>
        <pt x="276" y="133" on="0"/>
        <pt x="457" y="61" on="0"/>
        <pt x="545" y="61" on="1"/>
        <pt x="685" y="61" on="0"/>
        <pt x="842" y="204" on="0"/>
        <pt x="842" y="330" on="1"/>
        <pt x="842" y="402" on="0"/>
        <pt x="781" y="496" on="0"/>
        <pt x="682" y="561" on="0"/>
        <pt x="556" y="606" on="0"/>
        <pt x="423" y="652" on="0"/>
        <pt x="297" y="708" on="0"/>
        <pt x="198" y="794" on="0"/>
        <pt x="137" y="921" on="0"/>
        <pt x="137" y="1014" on="1"/>
        <pt x="137" y="1174" on="0"/>
        <pt x="377" y="1356" on="0"/>
        <pt x="590" y="1356" on="1"/>
        <pt x="752" y="1356" on="0"/>
        <pt x="942" y="1313" on="1"/>
        <pt x="942" y="1034" on="1"/>
        <pt x="877" y="1034" on="1"/>
        <pt x="842" y="1198" on="1"/>
        <pt x="740" y="1272" on="0"/>
        <pt x="590" y="1272" on="1"/>
        <pt x="456" y="1272" on="0"/>
        <pt x="305" y="1163" on="0"/>
        <pt x="305" y="1067" on="1"/>
        <pt x="305" y="1002" on="0"/>
        <pt x="366" y="916" on="0"/>
        <pt x="465" y="855" on="0"/>
        <pt x="592" y="811" on="0"/>
        <pt x="725" y="764" on="0"/>
        <pt x="852" y="705" on="0"/>
        <pt x="951" y="614" on="0"/>
        <pt x="1012" y="483" on="0"/>
        <pt x="1012" y="387" on="1"/>
        <pt x="1012" y="193" on="0"/>
        <pt x="774" y="-20" on="0"/>
        <pt x="550" y="-20" on="1"/>
        <pt x="442" y="-20" on="0"/>
        <pt x="224" y="18" on="0"/>
        <pt x="139" y="51" on="1"/>
      </contour>
    </TTGlyph>
    <TTGlyph name="Sacute" xMin="137" yMin="-20" xMax="1012" yMax="1758">
      <component glyphName="S" x="0" y="0" flags="0x204"/>
      <component glyphName="acute" x="330" y="334" flags="0x4"/>
    </TTGlyph>
    <TTGlyph name="Scaron" xMin="137" yMin="-20" xMax="1012" yMax="1759">
      <component glyphName="S" x="0" y="0" flags="0x204"/>
      <component glyphName="caron" x="257" y="334" flags="0x4"/>
    </TTGlyph>
    <TTGlyph name="Scedilla" xMin="137" yMin="-436" xMax="1012" yMax="1356">
      <component glyphName="S" x="0" y="0" flags="0x204"/>
      <component glyphName="cedilla" x="220" y="0" flags="0x4"/>
    </TTGlyph>
    <TTGlyph name="Scircumflex" xMin="137" yMin="-20" xMax="1012" yMax="1759">
      <component glyphName="S" x="0" y="0" flags="0x204"/>
      <component glyphName="circumflex" x="227" y="334" flags="0x4"/>
    </TTGlyph>
    <TTGlyph name="Scommaaccent" xMin="137" yMin="-436" xMax="1012" yMax="1356">
      <component glyphName="S" x="0" y="0" flags="0x204"/>
      <component glyphName="uniF004" x="366" y="0" flags="0x4"/>
    </TTGlyph>
    <TTGlyph name="Sigma" xMin="80" yMin="0" xMax="1089" yMax="1341">
      <contour>
        <pt x="678" y="748" on="1"/>
        <pt x="678" y="697" on="1"/>
        <pt x="275" y="170" on="1"/>
        <pt x="536" y="170" on="1"/>
        <pt x="640" y="170" on="0"/>
        <pt x="933" y="179" on="0"/>
        <pt x="966" y="186" on="1"/>
        <pt x="1023" y="374" on="1"/>
        <pt x="1089" y="374" on="1"/>
        <pt x="1070" y="0" on="1"/>
        <pt x="80" y="0" on="1"/>
        <pt x="80" y="74" on="1"/>
        <pt x="518" y="646" on="1"/>
        <pt x="88" y="1262" on="1"/>
        <pt x="88" y="1341" on="1"/>
        <pt x="1009" y="1341" on="1"/>
        <pt x="1009" y="1020" on="1"/>
        <pt x="943" y="1020" on="1"/>
        <pt x="901" y="1237" on="1"/>
        <pt x="789" y="1251" on="0"/>
        <pt x="595" y="1251" on="1"/>
        <pt x="329" y="1251" on="1"/>
      </contour>
    </TTGlyph>
    <TTGlyph name="T" xMin="37" yMin="0" xMax="1217" yMax="1341">
      <contour>
        <pt x="315" y="0" on="1"/>
        <pt x="315" y="53" on="1"/>
        <pt x="528" y="80" on="1"/>
        <pt x="528" y="1255" on="1"/>
        <pt x="477" y="1255" on="1"/>
        <pt x="224" y="1255" on="0"/>
        <pt x="131" y="1235" on="1"/>
        <pt x="104" y="1026" on="1"/>
        <pt x="37" y="1026" on="1"/>
        <pt x="37" y="1341" on="1"/>
        <pt x="1217" y="1341" on="1"/>
        <pt x="1217" y="1026" on="1"/>
        <pt x="1149" y="1026" on="1"/>
        <pt x="1122" y="1235" on="1"/>
        <pt x="1092" y="1242" on="0"/>
        <pt x="890" y="1253" on="0"/>
        <pt x="770" y="1253" on="1"/>
        <pt x="721" y="1253" on="1"/>
        <pt x="721" y="80" on="1"/>
        <pt x="934" y="53" on="1"/>
        <pt x="934" y="0" on="1"/>
      </contour>
    </TTGlyph>
    <TTGlyph name="Tau" xMin="37" yMin="0" xMax="1217" yMax="1341">
      <component glyphName="T" x="0" y="0" flags="0x204"/>
    </TTGlyph>
    <TTGlyph name="Tbar" xMin="37" yMin="0" xMax="1217" yMax="1341">
      <contour>
        <pt x="315" y="0" on="1"/>
        <pt x="315" y="53" on="1"/>
        <pt x="528" y="80" on="1"/>
        <pt x="528" y="629" on="1"/>
        <pt x="207" y="629" on="1"/>
        <pt x="207" y="711" on="1"/>
        <pt x="528" y="711" on="1"/>
        <pt x="528" y="1255" on="1"/>
        <pt x="477" y="1255" on="1"/>
        <pt x="224" y="1255" on="0"/>
        <pt x="131" y="1235" on="1"/>
        <pt x="104" y="1026" on="1"/>
        <pt x="37" y="1026" on="1"/>
        <pt x="37" y="1341" on="1"/>
        <pt x="1217" y="1341" on="1"/>
        <pt x="1217" y="1026" on="1"/>
        <pt x="1149" y="1026" on="1"/>
        <pt x="1122" y="1235" on="1"/>
        <pt x="1092" y="1242" on="0"/>
        <pt x="890" y="1253" on="0"/>
        <pt x="770" y="1253" on="1"/>
        <pt x="721" y="1253" on="1"/>
        <pt x="721" y="711" on="1"/>
        <pt x="1045" y="711" on="1"/>
        <pt x="1045" y="629" on="1"/>
        <pt x="721" y="629" on="1"/>
        <pt x="721" y="80" on="1"/>
        <pt x="934" y="53" on="1"/>
        <pt x="934" y="0" on="1"/>
      </contour>
    </TTGlyph>
    <TTGlyph name="Tcaron" xMin="37" yMin="0" xMax="1217" yMax="1759">
      <component glyphName="T" x="0" y="0" flags="0x204"/>
      <component glyphName="caron" x="283" y="334" flags="0x4"/>
    </TTGlyph>
    <TTGlyph name="Theta" xMin="84" yMin="-20" xMax="1395" yMax="1356">
      <contour>
        <pt x="293" y="672" on="1"/>
        <pt x="293" y="349" on="0"/>
        <pt x="509" y="59" on="0"/>
        <pt x="739" y="59" on="1"/>
        <pt x="968" y="59" on="0"/>
        <pt x="1186" y="349" on="0"/>
        <pt x="1186" y="672" on="1"/>
        <pt x="1186" y="993" on="0"/>
        <pt x="969" y="1276" on="0"/>
        <pt x="739" y="1276" on="1"/>
        <pt x="508" y="1276" on="0"/>
        <pt x="293" y="993" on="0"/>
      </contour>
      <contour>
        <pt x="84" y="672" on="1"/>
        <pt x="84" y="1356" on="0"/>
        <pt x="739" y="1356" on="1"/>
        <pt x="1063" y="1356" on="0"/>
        <pt x="1395" y="1009" on="0"/>
        <pt x="1395" y="672" on="1"/>
        <pt x="1395" y="330" on="0"/>
        <pt x="1059" y="-20" on="0"/>
        <pt x="739" y="-20" on="1"/>
        <pt x="420" y="-20" on="0"/>
        <pt x="84" y="329" on="0"/>
      </contour>
      <contour>
        <pt x="558" y="610" on="1"/>
        <pt x="527" y="468" on="1"/>
        <pt x="463" y="468" on="1"/>
        <pt x="463" y="880" on="1"/>
        <pt x="527" y="880" on="1"/>
        <pt x="558" y="740" on="1"/>
        <pt x="920" y="740" on="1"/>
        <pt x="951" y="880" on="1"/>
        <pt x="1015" y="880" on="1"/>
        <pt x="1015" y="468" on="1"/>
        <pt x="951" y="468" on="1"/>
        <pt x="920" y="610" on="1"/>
      </contour>
    </TTGlyph>
    <TTGlyph name="Thorn" xMin="72" yMin="0" xMax="1057" yMax="1341">
      <contour>
        <pt x="858" y="686" on="1"/>
        <pt x="858" y="856" on="0"/>
        <pt x="699" y="1006" on="0"/>
        <pt x="522" y="1006" on="1"/>
        <pt x="424" y="1006" on="1"/>
        <pt x="424" y="346" on="1"/>
        <pt x="528" y="346" on="1"/>
        <pt x="694" y="346" on="0"/>
        <pt x="858" y="509" on="0"/>
      </contour>
      <contour>
        <pt x="565" y="1083" on="1"/>
        <pt x="1057" y="1083" on="0"/>
        <pt x="1057" y="688" on="1"/>
        <pt x="1057" y="482" on="0"/>
        <pt x="808" y="268" on="0"/>
        <pt x="575" y="268" on="1"/>
        <pt x="424" y="268" on="1"/>
        <pt x="424" y="80" on="1"/>
        <pt x="596" y="53" on="1"/>
        <pt x="596" y="0" on="1"/>
        <pt x="72" y="0" on="1"/>
        <pt x="72" y="53" on="1"/>
        <pt x="231" y="80" on="1"/>
        <pt x="231" y="1262" on="1"/>
        <pt x="72" y="1288" on="1"/>
        <pt x="72" y="1341" on="1"/>
        <pt x="596" y="1341" on="1"/>
        <pt x="596" y="1288" on="1"/>
        <pt x="424" y="1262" on="1"/>
        <pt x="424" y="1083" on="1"/>
      </contour>
    </TTGlyph>
    <TTGlyph name="U" xMin="43" yMin="-20" xMax="1436" yMax="1341">
      <contour>
        <pt x="1159" y="1262" on="1"/>
        <pt x="979" y="1288" on="1"/>
        <pt x="979" y="1341" on="1"/>
        <pt x="1436" y="1341" on="1"/>
        <pt x="1436" y="1288" on="1"/>
        <pt x="1264" y="1262" on="1"/>
        <pt x="1264" y="461" on="1"/>
        <pt x="1264" y="220" on="0"/>
        <pt x="999" y="-20" on="0"/>
        <pt x="747" y="-20" on="1"/>
        <pt x="480" y="-20" on="0"/>
        <pt x="215" y="221" on="0"/>
        <pt x="215" y="442" on="1"/>
        <pt x="215" y="1262" on="1"/>
        <pt x="43" y="1288" on="1"/>
        <pt x="43" y="1341" on="1"/>
        <pt x="579" y="1341" on="1"/>
        <pt x="579" y="1288" on="1"/>
        <pt x="407" y="1262" on="1"/>
        <pt x="407" y="457" on="1"/>
        <pt x="407" y="92" on="0"/>
        <pt x="762" y="92" on="1"/>
        <pt x="954" y="92" on="0"/>
        <pt x="1159" y="274" on="0"/>
        <pt x="1159" y="453" on="1"/>
      </contour>
    </TTGlyph>
    <TTGlyph name="UNI2206" xMin="78" yMin="0" xMax="1240" yMax="1352">
      <contour>
        <pt x="1240" y="0" on="1"/>
        <pt x="79" y="0" on="1"/>
        <pt x="78" y="80" on="1"/>
        <pt x="555" y="1352" on="1"/>
        <pt x="745" y="1352" on="1"/>
        <pt x="1240" y="80" on="1"/>
      </contour>
      <contour>
        <pt x="606" y="1196" on="1"/>
        <pt x="206" y="109" on="1"/>
        <pt x="1012" y="109" on="1"/>
      </contour>
    </TTGlyph>
    <TTGlyph name="Uacute" xMin="43" yMin="-20" xMax="1436" yMax="1758">
      <component glyphName="U" x="0" y="0" flags="0x204"/>
      <component glyphName="acute" x="496" y="334" flags="0x4"/>
    </TTGlyph>
    <TTGlyph name="Ubreve" xMin="43" yMin="-20" xMax="1436" yMax="1733">
      <component glyphName="U" x="0" y="0" flags="0x204"/>
      <component glyphName="breve" x="442" y="334" flags="0x4"/>
    </TTGlyph>
    <TTGlyph name="Ucircumflex" xMin="43" yMin="-20" xMax="1436" yMax="1759">
      <component glyphName="U" x="0" y="0" flags="0x204"/>
      <component glyphName="circumflex" x="426" y="334" flags="0x4"/>
    </TTGlyph>
    <TTGlyph name="Udieresis" xMin="43" yMin="-20" xMax="1436" yMax="1659">
      <component glyphName="U" x="0" y="0" flags="0x204"/>
      <component glyphName="dieresis" x="399" y="365" flags="0x4"/>
    </TTGlyph>
    <TTGlyph name="Ugrave" xMin="43" yMin="-20" xMax="1436" yMax="1758">
      <component glyphName="U" x="0" y="0" flags="0x204"/>
      <component glyphName="grave" x="371" y="334" flags="0x4"/>
    </TTGlyph>
    <TTGlyph name="Uhorn" xMin="43" yMin="-20" xMax="1585" yMax="1463">
      <contour>
        <pt x="1585" y="1301" on="1"/>
        <pt x="1585" y="1183" on="0"/>
        <pt x="1427" y="997" on="0"/>
        <pt x="1264" y="948" on="1"/>
        <pt x="1264" y="461" on="1"/>
        <pt x="1264" y="220" on="0"/>
        <pt x="999" y="-20" on="0"/>
        <pt x="747" y="-20" on="1"/>
        <pt x="480" y="-20" on="0"/>
        <pt x="215" y="221" on="0"/>
        <pt x="215" y="442" on="1"/>
        <pt x="215" y="1262" on="1"/>
        <pt x="43" y="1288" on="1"/>
        <pt x="43" y="1341" on="1"/>
        <pt x="579" y="1341" on="1"/>
        <pt x="579" y="1288" on="1"/>
        <pt x="407" y="1262" on="1"/>
        <pt x="407" y="457" on="1"/>
        <pt x="407" y="92" on="0"/>
        <pt x="762" y="92" on="1"/>
        <pt x="954" y="92" on="0"/>
        <pt x="1159" y="274" on="0"/>
        <pt x="1159" y="453" on="1"/>
        <pt x="1159" y="1262" on="1"/>
        <pt x="979" y="1288" on="1"/>
        <pt x="979" y="1341" on="1"/>
        <pt x="1264" y="1341" on="1"/>
        <pt x="1264" y="1025" on="1"/>
        <pt x="1365" y="1058" on="0"/>
        <pt x="1456" y="1142" on="0"/>
        <pt x="1456" y="1182" on="1"/>
        <pt x="1456" y="1202" on="0"/>
        <pt x="1426" y="1234" on="0"/>
        <pt x="1389" y="1253" on="1"/>
        <pt x="1321" y="1288" on="0"/>
        <pt x="1321" y="1352" on="1"/>
        <pt x="1321" y="1406" on="0"/>
        <pt x="1389" y="1463" on="0"/>
        <pt x="1442" y="1463" on="1"/>
        <pt x="1503" y="1463" on="0"/>
        <pt x="1585" y="1376" on="0"/>
      </contour>
    </TTGlyph>
    <TTGlyph name="Umacron" xMin="43" yMin="-20" xMax="1436" yMax="1584">
      <component glyphName="U" x="0" y="0" flags="0x204"/>
      <component glyphName="uni02C9" x="428" y="334" flags="0x4"/>
    </TTGlyph>
    <TTGlyph name="Uogonek" xMin="43" yMin="-408" xMax="1436" yMax="1341">
      <component glyphName="U" x="0" y="0" flags="0x204"/>
      <component glyphName="ogonek" x="558" y="-5" flags="0x4"/>
    </TTGlyph>
    <TTGlyph name="Upsilon" xMin="23" yMin="0" xMax="1427" yMax="1341">
      <component glyphName="Y" x="0" y="0" flags="0x204"/>
    </TTGlyph>
    <TTGlyph name="Upsilondieresis" xMin="23" yMin="0" xMax="1427" yMax="1659">
      <component glyphName="Y" x="0" y="0" flags="0x204"/>
      <component glyphName="dieresis" x="399" y="365" flags="0x4"/>
    </TTGlyph>
    <TTGlyph name="Upsilontonos" xMin="-67" yMin="0" xMax="1619" yMax="1342">
      <component glyphName="Y" x="192" y="0" flags="0x4"/>
      <component glyphName="tonos" x="-282" y="-102" flags="0x4"/>
    </TTGlyph>
    <TTGlyph name="Uring" xMin="43" yMin="-20" xMax="1436" yMax="1817">
      <component glyphName="U" x="0" y="0" flags="0x204"/>
      <component glyphName="ring" x="446" y="334" flags="0x4"/>
    </TTGlyph>
    <TTGlyph name="Utilde" xMin="43" yMin="-20" xMax="1436" yMax="1714">
      <component glyphName="U" x="0" y="0" flags="0x204"/>
      <component glyphName="tilde" x="434" y="334" flags="0x4"/>
    </TTGlyph>
    <TTGlyph name="V" xMin="23" yMin="-31" xMax="1456" yMax="1341">
      <contour>
        <pt x="1456" y="1341" on="1"/>
        <pt x="1456" y="1288" on="1"/>
        <pt x="1309" y="1262" on="1"/>
        <pt x="770" y="-31" on="1"/>
        <pt x="719" y="-31" on="1"/>
        <pt x="174" y="1262" on="1"/>
        <pt x="23" y="1288" on="1"/>
        <pt x="23" y="1341" on="1"/>
        <pt x="565" y="1341" on="1"/>
        <pt x="565" y="1288" on="1"/>
        <pt x="385" y="1262" on="1"/>
        <pt x="791" y="275" on="1"/>
        <pt x="1196" y="1262" on="1"/>
        <pt x="1020" y="1288" on="1"/>
        <pt x="1020" y="1341" on="1"/>
      </contour>
    </TTGlyph>
    <TTGlyph name="W" xMin="2" yMin="-31" xMax="1929" yMax="1341">
      <contour>
        <pt x="1374" y="-31" on="1"/>
        <pt x="1321" y="-31" on="1"/>
        <pt x="973" y="893" on="1"/>
        <pt x="616" y="-31" on="1"/>
        <pt x="563" y="-31" on="1"/>
        <pt x="119" y="1262" on="1"/>
        <pt x="2" y="1288" on="1"/>
        <pt x="2" y="1341" on="1"/>
        <pt x="514" y="1341" on="1"/>
        <pt x="514" y="1288" on="1"/>
        <pt x="317" y="1262" on="1"/>
        <pt x="636" y="317" on="1"/>
        <pt x="997" y="1247" on="1"/>
        <pt x="1042" y="1247" on="1"/>
        <pt x="1390" y="317" on="1"/>
        <pt x="1694" y="1262" on="1"/>
        <pt x="1485" y="1288" on="1"/>
        <pt x="1485" y="1341" on="1"/>
        <pt x="1929" y="1341" on="1"/>
        <pt x="1929" y="1288" on="1"/>
        <pt x="1812" y="1262" on="1"/>
      </contour>
    </TTGlyph>
    <TTGlyph name="Wacute" xMin="2" yMin="-31" xMax="1929" yMax="1758">
      <component glyphName="W" x="0" y="0" flags="0x204"/>
      <component glyphName="acute" x="711" y="334" flags="0x4"/>
    </TTGlyph>
    <TTGlyph name="Wcircumflex" xMin="2" yMin="-31" xMax="1929" yMax="1759">
      <component glyphName="W" x="0" y="0" flags="0x204"/>
      <component glyphName="circumflex" x="660" y="334" flags="0x4"/>
    </TTGlyph>
    <TTGlyph name="Wdieresis" xMin="2" yMin="-31" xMax="1929" yMax="1628">
      <component glyphName="W" x="0" y="0" flags="0x204"/>
      <component glyphName="dieresis" x="668" y="334" flags="0x4"/>
    </TTGlyph>
    <TTGlyph name="Wgrave" xMin="2" yMin="-31" xMax="1929" yMax="1758">
      <component glyphName="W" x="0" y="0" flags="0x204"/>
      <component glyphName="grave" x="643" y="334" flags="0x4"/>
    </TTGlyph>
    <TTGlyph name="X" xMin="45" yMin="0" xMax="1442" yMax="1341">
      <contour>
        <pt x="317" y="80" on="1"/>
        <pt x="483" y="53" on="1"/>
        <pt x="483" y="0" on="1"/>
        <pt x="45" y="0" on="1"/>
        <pt x="45" y="53" on="1"/>
        <pt x="193" y="80" on="1"/>
        <pt x="649" y="686" on="1"/>
        <pt x="260" y="1262" on="1"/>
        <pt x="109" y="1288" on="1"/>
        <pt x="109" y="1341" on="1"/>
        <pt x="662" y="1341" on="1"/>
        <pt x="662" y="1288" on="1"/>
        <pt x="492" y="1262" on="1"/>
        <pt x="770" y="848" on="1"/>
        <pt x="1081" y="1262" on="1"/>
        <pt x="915" y="1288" on="1"/>
        <pt x="915" y="1341" on="1"/>
        <pt x="1354" y="1341" on="1"/>
        <pt x="1354" y="1288" on="1"/>
        <pt x="1206" y="1262" on="1"/>
        <pt x="829" y="760" on="1"/>
        <pt x="1290" y="80" on="1"/>
        <pt x="1442" y="53" on="1"/>
        <pt x="1442" y="0" on="1"/>
        <pt x="889" y="0" on="1"/>
        <pt x="889" y="53" on="1"/>
        <pt x="1059" y="80" on="1"/>
        <pt x="707" y="600" on="1"/>
      </contour>
    </TTGlyph>
    <TTGlyph name="Xi" xMin="110" yMin="0" xMax="1206" yMax="1341">
      <contour>
        <pt x="745" y="170" on="1"/>
        <pt x="1003" y="170" on="0"/>
        <pt x="1083" y="186" on="1"/>
        <pt x="1140" y="374" on="1"/>
        <pt x="1206" y="374" on="1"/>
        <pt x="1187" y="0" on="1"/>
        <pt x="129" y="0" on="1"/>
        <pt x="110" y="374" on="1"/>
        <pt x="176" y="374" on="1"/>
        <pt x="233" y="186" on="1"/>
        <pt x="268" y="179" on="0"/>
        <pt x="483" y="170" on="0"/>
        <pt x="598" y="170" on="1"/>
      </contour>
      <contour>
        <pt x="602" y="1181" on="1"/>
        <pt x="386" y="1181" on="0"/>
        <pt x="278" y="1167" on="1"/>
        <pt x="226" y="1010" on="1"/>
        <pt x="160" y="1010" on="1"/>
        <pt x="180" y="1341" on="1"/>
        <pt x="1137" y="1341" on="1"/>
        <pt x="1157" y="1010" on="1"/>
        <pt x="1091" y="1010" on="1"/>
        <pt x="1039" y="1167" on="1"/>
        <pt x="927" y="1181" on="0"/>
        <pt x="715" y="1181" on="1"/>
      </contour>
      <contour>
        <pt x="450" y="610" on="1"/>
        <pt x="419" y="468" on="1"/>
        <pt x="355" y="468" on="1"/>
        <pt x="355" y="880" on="1"/>
        <pt x="419" y="880" on="1"/>
        <pt x="450" y="740" on="1"/>
        <pt x="866" y="740" on="1"/>
        <pt x="897" y="880" on="1"/>
        <pt x="961" y="880" on="1"/>
        <pt x="961" y="468" on="1"/>
        <pt x="897" y="468" on="1"/>
        <pt x="866" y="610" on="1"/>
      </contour>
    </TTGlyph>
    <TTGlyph name="Y" xMin="23" yMin="0" xMax="1427" yMax="1341">
      <contour>
        <pt x="838" y="528" on="1"/>
        <pt x="838" y="80" on="1"/>
        <pt x="1051" y="53" on="1"/>
        <pt x="1051" y="0" on="1"/>
        <pt x="432" y="0" on="1"/>
        <pt x="432" y="53" on="1"/>
        <pt x="645" y="80" on="1"/>
        <pt x="645" y="522" on="1"/>
        <pt x="174" y="1262" on="1"/>
        <pt x="23" y="1288" on="1"/>
        <pt x="23" y="1341" on="1"/>
        <pt x="590" y="1341" on="1"/>
        <pt x="590" y="1288" on="1"/>
        <pt x="410" y="1262" on="1"/>
        <pt x="795" y="643" on="1"/>
        <pt x="1161" y="1262" on="1"/>
        <pt x="991" y="1288" on="1"/>
        <pt x="991" y="1341" on="1"/>
        <pt x="1427" y="1341" on="1"/>
        <pt x="1427" y="1288" on="1"/>
        <pt x="1280" y="1262" on="1"/>
      </contour>
    </TTGlyph>
    <TTGlyph name="Yacute" xMin="23" yMin="0" xMax="1427" yMax="1758">
      <component glyphName="Y" x="0" y="0" flags="0x204"/>
      <component glyphName="acute" x="485" y="334" flags="0x4"/>
    </TTGlyph>
    <TTGlyph name="Ycircumflex" xMin="23" yMin="0" xMax="1427" yMax="1759">
      <component glyphName="Y" x="0" y="0" flags="0x204"/>
      <component glyphName="circumflex" x="397" y="334" flags="0x4"/>
    </TTGlyph>
    <TTGlyph name="Ydieresis" xMin="23" yMin="0" xMax="1427" yMax="1659">
      <component glyphName="Y" x="0" y="0" flags="0x204"/>
      <component glyphName="dieresis" x="410" y="365" flags="0x4"/>
    </TTGlyph>
    <TTGlyph name="Ygrave" xMin="23" yMin="0" xMax="1427" yMax="1758">
      <component glyphName="Y" x="0" y="0" flags="0x204"/>
      <component glyphName="grave" x="338" y="334" flags="0x4"/>
    </TTGlyph>
    <TTGlyph name="Z" xMin="98" yMin="0" xMax="1139" yMax="1341">
      <contour>
        <pt x="98" y="94" on="1"/>
        <pt x="850" y="1255" on="1"/>
        <pt x="600" y="1255" on="1"/>
        <pt x="353" y="1255" on="0"/>
        <pt x="260" y="1235" on="1"/>
        <pt x="229" y="1024" on="1"/>
        <pt x="160" y="1024" on="1"/>
        <pt x="160" y="1341" on="1"/>
        <pt x="1073" y="1341" on="1"/>
        <pt x="1073" y="1255" on="1"/>
        <pt x="316" y="84" on="1"/>
        <pt x="606" y="84" on="1"/>
        <pt x="722" y="84" on="0"/>
        <pt x="961" y="106" on="0"/>
        <pt x="1010" y="117" on="1"/>
        <pt x="1069" y="373" on="1"/>
        <pt x="1139" y="373" on="1"/>
        <pt x="1112" y="0" on="1"/>
        <pt x="98" y="0" on="1"/>
      </contour>
    </TTGlyph>
    <TTGlyph name="Zacute" xMin="98" yMin="0" xMax="1139" yMax="1758">
      <component glyphName="Z" x="0" y="0" flags="0x204"/>
      <component glyphName="acute" x="358" y="334" flags="0x4"/>
    </TTGlyph>
    <TTGlyph name="Zcaron" xMin="98" yMin="0" xMax="1139" yMax="1759">
      <component glyphName="Z" x="0" y="0" flags="0x204"/>
      <component glyphName="caron" x="289" y="334" flags="0x4"/>
    </TTGlyph>
    <TTGlyph name="Zeta" xMin="98" yMin="0" xMax="1139" yMax="1341">
      <component glyphName="Z" x="0" y="0" flags="0x204"/>
    </TTGlyph>
    <TTGlyph name="a" xMin="72" yMin="-20" xMax="881" yMax="961">
      <contour>
        <pt x="465" y="961" on="1"/>
        <pt x="619" y="961" on="0"/>
        <pt x="764" y="835" on="0"/>
        <pt x="764" y="705" on="1"/>
        <pt x="764" y="70" on="1"/>
        <pt x="881" y="45" on="1"/>
        <pt x="881" y="0" on="1"/>
        <pt x="623" y="0" on="1"/>
        <pt x="604" y="94" on="1"/>
        <pt x="490" y="-20" on="0"/>
        <pt x="313" y="-20" on="1"/>
        <pt x="72" y="-20" on="0"/>
        <pt x="72" y="260" on="1"/>
        <pt x="72" y="354" on="0"/>
        <pt x="145" y="477" on="0"/>
        <pt x="305" y="542" on="0"/>
        <pt x="457" y="545" on="1"/>
        <pt x="598" y="549" on="1"/>
        <pt x="598" y="696" on="1"/>
        <pt x="598" y="793" on="0"/>
        <pt x="527" y="885" on="0"/>
        <pt x="453" y="885" on="1"/>
        <pt x="353" y="885" on="0"/>
        <pt x="270" y="838" on="1"/>
        <pt x="236" y="721" on="1"/>
        <pt x="180" y="721" on="1"/>
        <pt x="180" y="926" on="1"/>
        <pt x="342" y="961" on="0"/>
      </contour>
      <contour>
        <pt x="598" y="479" on="1"/>
        <pt x="467" y="475" on="1"/>
        <pt x="333" y="470" on="0"/>
        <pt x="238" y="376" on="0"/>
        <pt x="238" y="266" on="1"/>
        <pt x="238" y="90" on="0"/>
        <pt x="381" y="90" on="1"/>
        <pt x="449" y="90" on="0"/>
        <pt x="548" y="121" on="0"/>
        <pt x="598" y="145" on="1"/>
      </contour>
    </TTGlyph>
    <TTGlyph name="aacute" xMin="72" yMin="-20" xMax="881" yMax="1424">
      <component glyphName="a" x="0" y="0" flags="0x204"/>
      <component glyphName="acute" x="186" y="0" flags="0x4"/>
    </TTGlyph>
    <TTGlyph name="abreve" xMin="72" yMin="-20" xMax="881" yMax="1399">
      <component glyphName="a" x="0" y="0" flags="0x204"/>
      <component glyphName="breve" x="114" y="0" flags="0x4"/>
    </TTGlyph>
    <TTGlyph name="acircumflex" xMin="72" yMin="-20" xMax="881" yMax="1425">
      <component glyphName="a" x="0" y="0" flags="0x204"/>
      <component glyphName="circumflex" x="125" y="0" flags="0x4"/>
    </TTGlyph>
    <TTGlyph name="acute" xMin="156" yMin="1119" xMax="565" yMax="1424">
      <contour>
        <pt x="156" y="1119" on="1"/>
        <pt x="156" y="1152" on="1"/>
        <pt x="352" y="1424" on="1"/>
        <pt x="565" y="1424" on="1"/>
        <pt x="565" y="1387" on="1"/>
        <pt x="211" y="1119" on="1"/>
      </contour>
    </TTGlyph>
    <TTGlyph name="acute.alt1" xMin="156" yMin="1119" xMax="565" yMax="1424">
      <component glyphName="acute" x="0" y="0" flags="0x4"/>
    </TTGlyph>
    <TTGlyph name="acute.alt2" xMin="156" yMin="1119" xMax="565" yMax="1424">
      <component glyphName="acute" x="0" y="0" flags="0x4"/>
    </TTGlyph>
    <TTGlyph name="acute.alt3" xMin="156" yMin="1119" xMax="565" yMax="1424">
      <component glyphName="acute" x="0" y="0" flags="0x4"/>
    </TTGlyph>
    <TTGlyph name="acute.alt4" xMin="156" yMin="1119" xMax="565" yMax="1424">
      <component glyphName="acute" x="0" y="0" flags="0x4"/>
    </TTGlyph>
    <TTGlyph name="acute.alt5" xMin="156" yMin="1119" xMax="565" yMax="1424">
      <component glyphName="acute" x="0" y="0" flags="0x4"/>
    </TTGlyph>
    <TTGlyph name="acutecomb" xMin="-440" yMin="1520" xMax="-31" yMax="1825">
      <contour>
        <pt x="-440" y="1520" on="1"/>
        <pt x="-440" y="1553" on="1"/>
        <pt x="-244" y="1825" on="1"/>
        <pt x="-31" y="1825" on="1"/>
        <pt x="-31" y="1788" on="1"/>
        <pt x="-385" y="1520" on="1"/>
      </contour>
    </TTGlyph>
    <TTGlyph name="adieresis" xMin="72" yMin="-20" xMax="881" yMax="1294">
      <component glyphName="a" x="0" y="0" flags="0x204"/>
      <component glyphName="dieresis" x="115" y="0" flags="0x4"/>
    </TTGlyph>
    <TTGlyph name="ae" xMin="72" yMin="-20" xMax="1298" yMax="965">
      <contour>
        <pt x="764" y="473" on="1"/>
        <pt x="764" y="383" on="1"/>
        <pt x="766" y="259" on="0"/>
        <pt x="817" y="143" on="0"/>
        <pt x="924" y="84" on="0"/>
        <pt x="1012" y="84" on="1"/>
        <pt x="1066" y="84" on="0"/>
        <pt x="1214" y="102" on="0"/>
        <pt x="1262" y="113" on="1"/>
        <pt x="1262" y="57" on="1"/>
        <pt x="1212" y="25" on="0"/>
        <pt x="1056" y="-20" on="0"/>
        <pt x="973" y="-20" on="1"/>
        <pt x="743" y="-20" on="0"/>
        <pt x="651" y="109" on="1"/>
        <pt x="506" y="-20" on="0"/>
        <pt x="313" y="-20" on="1"/>
        <pt x="72" y="-20" on="0"/>
        <pt x="72" y="260" on="1"/>
        <pt x="72" y="354" on="0"/>
        <pt x="145" y="477" on="0"/>
        <pt x="305" y="542" on="0"/>
        <pt x="457" y="545" on="1"/>
        <pt x="598" y="549" on="1"/>
        <pt x="598" y="696" on="1"/>
        <pt x="598" y="793" on="0"/>
        <pt x="527" y="885" on="0"/>
        <pt x="453" y="885" on="1"/>
        <pt x="353" y="885" on="0"/>
        <pt x="270" y="838" on="1"/>
        <pt x="236" y="721" on="1"/>
        <pt x="180" y="721" on="1"/>
        <pt x="180" y="926" on="1"/>
        <pt x="342" y="961" on="0"/>
        <pt x="465" y="961" on="1"/>
        <pt x="632" y="961" on="0"/>
        <pt x="702" y="887" on="1"/>
        <pt x="790" y="965" on="0"/>
        <pt x="946" y="965" on="1"/>
        <pt x="1121" y="965" on="0"/>
        <pt x="1298" y="757" on="0"/>
        <pt x="1298" y="555" on="1"/>
        <pt x="1298" y="473" on="1"/>
      </contour>
      <contour>
        <pt x="381" y="90" on="1"/>
        <pt x="496" y="90" on="0"/>
        <pt x="625" y="158" on="1"/>
        <pt x="616" y="175" on="0"/>
        <pt x="598" y="271" on="0"/>
        <pt x="598" y="319" on="1"/>
        <pt x="598" y="479" on="1"/>
        <pt x="467" y="475" on="1"/>
        <pt x="333" y="470" on="0"/>
        <pt x="238" y="376" on="0"/>
        <pt x="238" y="266" on="1"/>
        <pt x="238" y="90" on="0"/>
      </contour>
      <contour>
        <pt x="946" y="885" on="1"/>
        <pt x="851" y="885" on="0"/>
        <pt x="764" y="737" on="0"/>
        <pt x="764" y="553" on="1"/>
        <pt x="1124" y="553" on="1"/>
        <pt x="1124" y="724" on="0"/>
        <pt x="1037" y="885" on="0"/>
      </contour>
    </TTGlyph>
    <TTGlyph name="aeacute" xMin="72" yMin="-20" xMax="1298" yMax="1424">
      <component glyphName="ae" x="0" y="0" flags="0x204"/>
      <component glyphName="acute" x="415" y="0" flags="0x4"/>
    </TTGlyph>
    <TTGlyph name="agrave" xMin="72" yMin="-20" xMax="881" yMax="1424">
      <component glyphName="a" x="0" y="0" flags="0x204"/>
      <component glyphName="grave" x="71" y="0" flags="0x4"/>
    </TTGlyph>
    <TTGlyph name="alef" xMin="96" yMin="-27" xMax="1155" yMax="1212">
      <contour>
        <pt x="1155" y="1008" on="1"/>
        <pt x="1155" y="964" on="0"/>
        <pt x="1128" y="930" on="1"/>
        <pt x="1091" y="967" on="0"/>
        <pt x="1061" y="967" on="1"/>
        <pt x="1029" y="967" on="0"/>
        <pt x="981" y="924" on="1"/>
        <pt x="839" y="800" on="0"/>
        <pt x="748" y="592" on="1"/>
        <pt x="1059" y="244" on="1"/>
        <pt x="1122" y="175" on="0"/>
        <pt x="1122" y="121" on="1"/>
        <pt x="1122" y="87" on="0"/>
        <pt x="1096" y="21" on="0"/>
        <pt x="1054" y="-27" on="0"/>
        <pt x="1042" y="-27" on="1"/>
        <pt x="1034" y="-27" on="0"/>
        <pt x="1032" y="-19" on="1"/>
        <pt x="1009" y="50" on="0"/>
        <pt x="911" y="147" on="1"/>
        <pt x="391" y="727" on="1"/>
        <pt x="318" y="677" on="0"/>
        <pt x="254" y="574" on="0"/>
        <pt x="254" y="508" on="1"/>
        <pt x="254" y="463" on="0"/>
        <pt x="296" y="365" on="0"/>
        <pt x="342" y="300" on="1"/>
        <pt x="387" y="237" on="0"/>
        <pt x="430" y="139" on="0"/>
        <pt x="430" y="92" on="1"/>
        <pt x="430" y="38" on="0"/>
        <pt x="410" y="0" on="1"/>
        <pt x="96" y="0" on="1"/>
        <pt x="96" y="63" on="1"/>
        <pt x="203" y="63" on="1"/>
        <pt x="248" y="63" on="0"/>
        <pt x="248" y="111" on="1"/>
        <pt x="248" y="136" on="0"/>
        <pt x="211" y="204" on="0"/>
        <pt x="166" y="292" on="0"/>
        <pt x="129" y="400" on="0"/>
        <pt x="129" y="465" on="1"/>
        <pt x="129" y="534" on="0"/>
        <pt x="218" y="682" on="0"/>
        <pt x="295" y="737" on="1"/>
        <pt x="348" y="772" on="1"/>
        <pt x="209" y="928" on="1"/>
        <pt x="147" y="1001" on="0"/>
        <pt x="147" y="1071" on="1"/>
        <pt x="147" y="1104" on="0"/>
        <pt x="173" y="1168" on="0"/>
        <pt x="211" y="1212" on="0"/>
        <pt x="221" y="1212" on="1"/>
        <pt x="231" y="1212" on="0"/>
        <pt x="238" y="1192" on="1"/>
        <pt x="253" y="1146" on="0"/>
        <pt x="397" y="981" on="1"/>
        <pt x="666" y="684" on="1"/>
        <pt x="775" y="844" on="0"/>
        <pt x="942" y="967" on="1"/>
        <pt x="883" y="967" on="0"/>
        <pt x="813" y="1026" on="0"/>
        <pt x="813" y="1077" on="1"/>
        <pt x="813" y="1121" on="0"/>
        <pt x="867" y="1204" on="0"/>
        <pt x="891" y="1204" on="1"/>
        <pt x="897" y="1204" on="0"/>
        <pt x="899" y="1193" on="0"/>
        <pt x="899" y="1176" on="1"/>
        <pt x="899" y="1151" on="0"/>
        <pt x="919" y="1130" on="0"/>
        <pt x="948" y="1130" on="1"/>
        <pt x="1040" y="1133" on="1"/>
        <pt x="1094" y="1133" on="0"/>
        <pt x="1155" y="1066" on="0"/>
      </contour>
    </TTGlyph>
    <TTGlyph name="alefdagesh" xMin="96" yMin="-27" xMax="1155" yMax="1212">
      <component glyphName="alef" x="0" y="0" flags="0x204"/>
      <component glyphName="dagesh" x="635" y="-542" flags="0x4"/>
    </TTGlyph>
    <TTGlyph name="aleflamed" xMin="-12" yMin="-27" xMax="1155" yMax="1681">
      <contour>
        <pt x="125" y="952" on="1"/>
        <pt x="33" y="952" on="0"/>
        <pt x="33" y="1153" on="1"/>
        <pt x="33" y="1234" on="0"/>
        <pt x="70" y="1319" on="1"/>
        <pt x="102" y="1394" on="0"/>
        <pt x="102" y="1415" on="1"/>
        <pt x="102" y="1434" on="0"/>
        <pt x="78" y="1455" on="0"/>
        <pt x="55" y="1464" on="1"/>
        <pt x="14" y="1481" on="0"/>
        <pt x="-12" y="1529" on="0"/>
        <pt x="-12" y="1563" on="1"/>
        <pt x="-12" y="1591" on="0"/>
        <pt x="12" y="1643" on="0"/>
        <pt x="51" y="1681" on="0"/>
        <pt x="63" y="1681" on="1"/>
        <pt x="73" y="1681" on="0"/>
        <pt x="76" y="1672" on="0"/>
        <pt x="76" y="1661" on="1"/>
        <pt x="76" y="1649" on="0"/>
        <pt x="92" y="1635" on="0"/>
        <pt x="123" y="1624" on="1"/>
        <pt x="209" y="1600" on="0"/>
        <pt x="246" y="1569" on="0"/>
        <pt x="246" y="1544" on="1"/>
        <pt x="246" y="1524" on="0"/>
        <pt x="207" y="1463" on="0"/>
        <pt x="160" y="1382" on="0"/>
        <pt x="121" y="1284" on="0"/>
        <pt x="121" y="1227" on="1"/>
        <pt x="121" y="1174" on="0"/>
        <pt x="165" y="1135" on="0"/>
        <pt x="225" y="1135" on="1"/>
        <pt x="295" y="1135" on="1"/>
        <pt x="311" y="1135" on="0"/>
        <pt x="326" y="1110" on="0"/>
        <pt x="343" y="1068" on="0"/>
        <pt x="370" y="1012" on="0"/>
        <pt x="397" y="981" on="1"/>
        <pt x="666" y="684" on="1"/>
        <pt x="775" y="844" on="0"/>
        <pt x="942" y="967" on="1"/>
        <pt x="883" y="967" on="0"/>
        <pt x="813" y="1026" on="0"/>
        <pt x="813" y="1077" on="1"/>
        <pt x="813" y="1121" on="0"/>
        <pt x="867" y="1204" on="0"/>
        <pt x="891" y="1204" on="1"/>
        <pt x="897" y="1204" on="0"/>
        <pt x="899" y="1193" on="0"/>
        <pt x="899" y="1176" on="1"/>
        <pt x="899" y="1151" on="0"/>
        <pt x="919" y="1130" on="0"/>
        <pt x="948" y="1130" on="1"/>
        <pt x="1040" y="1133" on="1"/>
        <pt x="1094" y="1133" on="0"/>
        <pt x="1155" y="1066" on="0"/>
        <pt x="1155" y="1008" on="1"/>
        <pt x="1155" y="964" on="0"/>
        <pt x="1128" y="930" on="1"/>
        <pt x="1091" y="967" on="0"/>
        <pt x="1061" y="967" on="1"/>
        <pt x="1029" y="967" on="0"/>
        <pt x="981" y="924" on="1"/>
        <pt x="839" y="800" on="0"/>
        <pt x="748" y="592" on="1"/>
        <pt x="1059" y="244" on="1"/>
        <pt x="1122" y="175" on="0"/>
        <pt x="1122" y="121" on="1"/>
        <pt x="1122" y="87" on="0"/>
        <pt x="1096" y="21" on="0"/>
        <pt x="1054" y="-27" on="0"/>
        <pt x="1042" y="-27" on="1"/>
        <pt x="1034" y="-27" on="0"/>
        <pt x="1032" y="-19" on="1"/>
        <pt x="1014" y="32" on="0"/>
        <pt x="911" y="147" on="1"/>
        <pt x="184" y="952" on="1"/>
      </contour>
    </TTGlyph>
    <TTGlyph name="aleflamedhatafsegol" xMin="-12" yMin="-385" xMax="1155" yMax="1681">
      <component glyphName="aleflamed" x="0" y="0" flags="0x204"/>
      <component glyphName="hatafsegol" x="643" y="0" flags="0x4"/>
    </TTGlyph>
    <TTGlyph name="aleflamedsegol" xMin="-12" yMin="-385" xMax="1155" yMax="1681">
      <component glyphName="aleflamed" x="0" y="0" flags="0x204"/>
      <component glyphName="segol" x="643" y="0" flags="0x4"/>
    </TTGlyph>
    <TTGlyph name="aleflamedtsere" xMin="-12" yMin="-348" xMax="1155" yMax="1681">
      <component glyphName="aleflamed" x="0" y="0" flags="0x204"/>
      <component glyphName="tsere" x="643" y="0" flags="0x4"/>
    </TTGlyph>
    <TTGlyph name="alefmapiq" xMin="96" yMin="-27" xMax="1155" yMax="1212">
      <component glyphName="alef" x="0" y="0" flags="0x204"/>
      <component glyphName="dagesh" x="635" y="-542" flags="0x4"/>
    </TTGlyph>
    <TTGlyph name="alefpatah" xMin="96" yMin="-231" xMax="1155" yMax="1212">
      <component glyphName="alef" x="0" y="0" flags="0x204"/>
      <component glyphName="patah" x="614" y="0" flags="0x4"/>
    </TTGlyph>
    <TTGlyph name="alefqamats" xMin="96" yMin="-348" xMax="1155" yMax="1212">
      <component glyphName="alef" x="0" y="0" flags="0x204"/>
      <component glyphName="qamats" x="614" y="0" flags="0x4"/>
    </TTGlyph>
    <TTGlyph name="alefwide" xMin="96" yMin="-27" xMax="1155" yMax="1212">
      <component glyphName="alef" x="0" y="0" flags="0x204"/>
    </TTGlyph>
    <TTGlyph name="alpha" xMin="78" yMin="-20" xMax="1027" yMax="966">
      <contour>
        <pt x="1024" y="45" on="1"/>
        <pt x="1024" y="0" on="1"/>
        <pt x="812" y="0" on="1"/>
        <pt x="775" y="118" on="0"/>
        <pt x="746" y="274" on="1"/>
        <pt x="740" y="274" on="1"/>
        <pt x="668" y="137" on="0"/>
        <pt x="576" y="32" on="0"/>
        <pt x="464" y="-20" on="0"/>
        <pt x="391" y="-20" on="1"/>
        <pt x="241" y="-20" on="0"/>
        <pt x="78" y="226" on="0"/>
        <pt x="78" y="453" on="1"/>
        <pt x="78" y="695" on="0"/>
        <pt x="283" y="966" on="0"/>
        <pt x="469" y="966" on="1"/>
        <pt x="597" y="966" on="0"/>
        <pt x="747" y="838" on="0"/>
        <pt x="794" y="690" on="1"/>
        <pt x="800" y="690" on="1"/>
        <pt x="870" y="940" on="1"/>
        <pt x="1027" y="940" on="1"/>
        <pt x="1027" y="900" on="1"/>
        <pt x="1004" y="864" on="0"/>
        <pt x="942" y="722" on="0"/>
        <pt x="852" y="483" on="1"/>
        <pt x="909" y="237" on="0"/>
        <pt x="976" y="60" on="1"/>
      </contour>
      <contour>
        <pt x="724" y="463" on="1"/>
        <pt x="698" y="689" on="0"/>
        <pt x="584" y="886" on="0"/>
        <pt x="484" y="886" on="1"/>
        <pt x="259" y="886" on="0"/>
        <pt x="259" y="453" on="1"/>
        <pt x="259" y="269" on="0"/>
        <pt x="353" y="78" on="0"/>
        <pt x="431" y="78" on="1"/>
        <pt x="491" y="78" on="0"/>
        <pt x="586" y="154" on="0"/>
        <pt x="665" y="294" on="0"/>
      </contour>
    </TTGlyph>
    <TTGlyph name="alphatonos" xMin="78" yMin="-20" xMax="1027" yMax="1444">
      <component glyphName="alpha" x="0" y="0" flags="0x204"/>
      <component glyphName="tonos" x="233" y="0" flags="0x4"/>
    </TTGlyph>
    <TTGlyph name="alt_plussign" xMin="90" yMin="514" xMax="1063" yMax="1128">
      <contour>
        <pt x="1063" y="514" on="1"/>
        <pt x="90" y="514" on="1"/>
        <pt x="90" y="700" on="1"/>
        <pt x="481" y="700" on="1"/>
        <pt x="481" y="1128" on="1"/>
        <pt x="668" y="1128" on="1"/>
        <pt x="668" y="700" on="1"/>
        <pt x="1063" y="700" on="1"/>
      </contour>
    </TTGlyph>
    <TTGlyph name="alternativeayin" xMin="51" yMin="0" xMax="1030" yMax="1206">
      <component glyphName="ayin" x="0" y="0" flags="0x204"/>
    </TTGlyph>
    <TTGlyph name="alternativelamed" xMin="-12" yMin="-29" xMax="854" yMax="1681">
      <component glyphName="lamed" x="0" y="0" flags="0x204"/>
    </TTGlyph>
    <TTGlyph name="amacron" xMin="72" yMin="-20" xMax="881" yMax="1250">
      <component glyphName="a" x="0" y="0" flags="0x204"/>
      <component glyphName="uni02C9" x="124" y="0" flags="0x4"/>
    </TTGlyph>
    <TTGlyph name="ampersand" xMin="78" yMin="-20" xMax="1556" yMax="1362">
      <contour>
        <pt x="989" y="1083" on="1"/>
        <pt x="989" y="1005" on="0"/>
        <pt x="922" y="891" on="0"/>
        <pt x="800" y="804" on="0"/>
        <pt x="657" y="748" on="1"/>
        <pt x="1079" y="364" on="1"/>
        <pt x="1176" y="562" on="0"/>
        <pt x="1182" y="727" on="1"/>
        <pt x="1040" y="754" on="1"/>
        <pt x="1040" y="807" on="1"/>
        <pt x="1497" y="807" on="1"/>
        <pt x="1497" y="754" on="1"/>
        <pt x="1358" y="727" on="1"/>
        <pt x="1282" y="462" on="0"/>
        <pt x="1163" y="286" on="1"/>
        <pt x="1391" y="78" on="1"/>
        <pt x="1556" y="53" on="1"/>
        <pt x="1556" y="0" on="1"/>
        <pt x="1212" y="0" on="1"/>
        <pt x="1041" y="155" on="1"/>
        <pt x="937" y="62" on="0"/>
        <pt x="710" y="-20" on="0"/>
        <pt x="575" y="-20" on="1"/>
        <pt x="327" y="-20" on="0"/>
        <pt x="78" y="173" on="0"/>
        <pt x="78" y="356" on="1"/>
        <pt x="78" y="453" on="0"/>
        <pt x="150" y="593" on="0"/>
        <pt x="274" y="692" on="0"/>
        <pt x="408" y="743" on="1"/>
        <pt x="257" y="889" on="0"/>
        <pt x="257" y="1070" on="1"/>
        <pt x="257" y="1213" on="0"/>
        <pt x="449" y="1362" on="0"/>
        <pt x="631" y="1362" on="1"/>
        <pt x="805" y="1362" on="0"/>
        <pt x="989" y="1220" on="0"/>
      </contour>
      <contour>
        <pt x="602" y="66" on="1"/>
        <pt x="819" y="66" on="0"/>
        <pt x="972" y="219" on="1"/>
        <pt x="473" y="676" on="1"/>
        <pt x="368" y="631" on="0"/>
        <pt x="274" y="477" on="0"/>
        <pt x="274" y="367" on="1"/>
        <pt x="274" y="222" on="0"/>
        <pt x="443" y="66" on="0"/>
      </contour>
      <contour>
        <pt x="434" y="1090" on="1"/>
        <pt x="434" y="927" on="0"/>
        <pt x="588" y="811" on="1"/>
        <pt x="685" y="847" on="0"/>
        <pt x="770" y="916" on="0"/>
        <pt x="813" y="1016" on="0"/>
        <pt x="813" y="1090" on="1"/>
        <pt x="813" y="1282" on="0"/>
        <pt x="631" y="1282" on="1"/>
        <pt x="526" y="1282" on="0"/>
        <pt x="434" y="1186" on="0"/>
      </contour>
    </TTGlyph>
    <TTGlyph name="anoteleia" xMin="135" yMin="557" xMax="377" yMax="799">
      <contour>
        <pt x="377" y="678" on="1"/>
        <pt x="377" y="627" on="0"/>
        <pt x="307" y="557" on="0"/>
        <pt x="256" y="557" on="1"/>
        <pt x="205" y="557" on="0"/>
        <pt x="135" y="627" on="0"/>
        <pt x="135" y="678" on="1"/>
        <pt x="135" y="727" on="0"/>
        <pt x="204" y="799" on="0"/>
        <pt x="256" y="799" on="1"/>
        <pt x="308" y="799" on="0"/>
        <pt x="377" y="727" on="0"/>
      </contour>
    </TTGlyph>
    <TTGlyph name="aogonek" xMin="72" yMin="-403" xMax="930" yMax="961">
      <component glyphName="a" x="0" y="0" flags="0x204"/>
      <component glyphName="ogonek" x="406" y="0" flags="0x4"/>
    </TTGlyph>
    <TTGlyph name="approxequal" xMin="57" yMin="301" xMax="1049" yMax="1055">
      <contour>
        <pt x="780" y="711" on="1"/>
        <pt x="674" y="711" on="0"/>
        <pt x="535" y="832" on="1"/>
        <pt x="461" y="895" on="0"/>
        <pt x="364" y="952" on="0"/>
        <pt x="326" y="952" on="1"/>
        <pt x="249" y="952" on="0"/>
        <pt x="171" y="843" on="0"/>
        <pt x="158" y="711" on="1"/>
        <pt x="57" y="711" on="1"/>
        <pt x="75" y="898" on="0"/>
        <pt x="208" y="1055" on="0"/>
        <pt x="326" y="1055" on="1"/>
        <pt x="382" y="1055" on="0"/>
        <pt x="501" y="997" on="0"/>
        <pt x="576" y="934" on="1"/>
        <pt x="662" y="862" on="0"/>
        <pt x="745" y="813" on="0"/>
        <pt x="780" y="813" on="1"/>
        <pt x="849" y="813" on="0"/>
        <pt x="927" y="918" on="0"/>
        <pt x="946" y="1055" on="1"/>
        <pt x="1049" y="1055" on="1"/>
        <pt x="1032" y="925" on="0"/>
        <pt x="968" y="787" on="0"/>
        <pt x="862" y="711" on="0"/>
      </contour>
      <contour>
        <pt x="780" y="301" on="1"/>
        <pt x="674" y="301" on="0"/>
        <pt x="535" y="422" on="1"/>
        <pt x="461" y="485" on="0"/>
        <pt x="364" y="542" on="0"/>
        <pt x="326" y="542" on="1"/>
        <pt x="249" y="542" on="0"/>
        <pt x="171" y="433" on="0"/>
        <pt x="158" y="301" on="1"/>
        <pt x="57" y="301" on="1"/>
        <pt x="75" y="488" on="0"/>
        <pt x="208" y="645" on="0"/>
        <pt x="326" y="645" on="1"/>
        <pt x="382" y="645" on="0"/>
        <pt x="501" y="587" on="0"/>
        <pt x="576" y="524" on="1"/>
        <pt x="662" y="452" on="0"/>
        <pt x="745" y="403" on="0"/>
        <pt x="780" y="403" on="1"/>
        <pt x="849" y="403" on="0"/>
        <pt x="927" y="508" on="0"/>
        <pt x="946" y="645" on="1"/>
        <pt x="1049" y="645" on="1"/>
        <pt x="1032" y="515" on="0"/>
        <pt x="968" y="377" on="0"/>
        <pt x="862" y="301" on="0"/>
      </contour>
    </TTGlyph>
    <TTGlyph name="aring" xMin="72" yMin="-20" xMax="881" yMax="1483">
      <component glyphName="a" x="0" y="0" flags="0x204"/>
      <component glyphName="ring" x="131" y="0" flags="0x4"/>
    </TTGlyph>
    <TTGlyph name="aringacute" xMin="72" yMin="-20" xMax="881" yMax="1835">
      <component glyphName="a" x="0" y="0" flags="0x204"/>
      <component glyphName="ring" x="131" y="0" flags="0x4"/>
      <component glyphName="acute" x="196" y="411" flags="0x4"/>
    </TTGlyph>
    <TTGlyph name="arrowboth" xMin="418" yMin="100" xMax="1630" yMax="580">
      <contour>
        <pt x="641" y="297" on="1"/>
        <pt x="698" y="230" on="0"/>
        <pt x="760" y="100" on="1"/>
        <pt x="688" y="100" on="1"/>
        <pt x="561" y="249" on="0"/>
        <pt x="418" y="322" on="1"/>
        <pt x="418" y="358" on="1"/>
        <pt x="561" y="431" on="0"/>
        <pt x="688" y="580" on="1"/>
        <pt x="760" y="580" on="1"/>
        <pt x="698" y="450" on="0"/>
        <pt x="641" y="383" on="1"/>
        <pt x="1407" y="383" on="1"/>
        <pt x="1350" y="450" on="0"/>
        <pt x="1288" y="580" on="1"/>
        <pt x="1360" y="580" on="1"/>
        <pt x="1487" y="431" on="0"/>
        <pt x="1630" y="358" on="1"/>
        <pt x="1630" y="322" on="1"/>
        <pt x="1487" y="249" on="0"/>
        <pt x="1360" y="100" on="1"/>
        <pt x="1288" y="100" on="1"/>
        <pt x="1350" y="230" on="0"/>
        <pt x="1407" y="297" on="1"/>
      </contour>
    </TTGlyph>
    <TTGlyph name="arrowdown" xMin="272" yMin="-61" xMax="752" yMax="1151">
      <contour>
        <pt x="555" y="162" on="1"/>
        <pt x="622" y="219" on="0"/>
        <pt x="752" y="281" on="1"/>
        <pt x="752" y="209" on="1"/>
        <pt x="603" y="82" on="0"/>
        <pt x="530" y="-61" on="1"/>
        <pt x="494" y="-61" on="1"/>
        <pt x="421" y="82" on="0"/>
        <pt x="272" y="209" on="1"/>
        <pt x="272" y="281" on="1"/>
        <pt x="402" y="219" on="0"/>
        <pt x="469" y="162" on="1"/>
        <pt x="469" y="1151" on="1"/>
        <pt x="555" y="1151" on="1"/>
      </contour>
    </TTGlyph>
    <TTGlyph name="arrowleft" xMin="418" yMin="100" xMax="1630" yMax="580">
      <contour>
        <pt x="641" y="297" on="1"/>
        <pt x="698" y="230" on="0"/>
        <pt x="760" y="100" on="1"/>
        <pt x="688" y="100" on="1"/>
        <pt x="561" y="249" on="0"/>
        <pt x="418" y="322" on="1"/>
        <pt x="418" y="358" on="1"/>
        <pt x="561" y="431" on="0"/>
        <pt x="688" y="580" on="1"/>
        <pt x="760" y="580" on="1"/>
        <pt x="698" y="450" on="0"/>
        <pt x="641" y="383" on="1"/>
        <pt x="1630" y="383" on="1"/>
        <pt x="1630" y="297" on="1"/>
      </contour>
    </TTGlyph>
    <TTGlyph name="arrowright" xMin="418" yMin="100" xMax="1630" yMax="580">
      <contour>
        <pt x="1407" y="383" on="1"/>
        <pt x="1350" y="450" on="0"/>
        <pt x="1288" y="580" on="1"/>
        <pt x="1360" y="580" on="1"/>
        <pt x="1487" y="431" on="0"/>
        <pt x="1630" y="358" on="1"/>
        <pt x="1630" y="322" on="1"/>
        <pt x="1487" y="249" on="0"/>
        <pt x="1360" y="100" on="1"/>
        <pt x="1288" y="100" on="1"/>
        <pt x="1350" y="230" on="0"/>
        <pt x="1407" y="297" on="1"/>
        <pt x="418" y="297" on="1"/>
        <pt x="418" y="383" on="1"/>
      </contour>
    </TTGlyph>
    <TTGlyph name="arrowup" xMin="272" yMin="-61" xMax="752" yMax="1151">
      <contour>
        <pt x="469" y="928" on="1"/>
        <pt x="402" y="871" on="0"/>
        <pt x="272" y="809" on="1"/>
        <pt x="272" y="881" on="1"/>
        <pt x="421" y="1008" on="0"/>
        <pt x="494" y="1151" on="1"/>
        <pt x="530" y="1151" on="1"/>
        <pt x="603" y="1008" on="0"/>
        <pt x="752" y="881" on="1"/>
        <pt x="752" y="809" on="1"/>
        <pt x="622" y="871" on="0"/>
        <pt x="555" y="928" on="1"/>
        <pt x="555" y="-61" on="1"/>
        <pt x="469" y="-61" on="1"/>
      </contour>
    </TTGlyph>
    <TTGlyph name="arrowupdn" xMin="272" yMin="-61" xMax="752" yMax="1151">
      <contour>
        <pt x="469" y="928" on="1"/>
        <pt x="402" y="871" on="0"/>
        <pt x="272" y="809" on="1"/>
        <pt x="272" y="881" on="1"/>
        <pt x="421" y="1008" on="0"/>
        <pt x="494" y="1151" on="1"/>
        <pt x="530" y="1151" on="1"/>
        <pt x="603" y="1008" on="0"/>
        <pt x="752" y="881" on="1"/>
        <pt x="752" y="809" on="1"/>
        <pt x="622" y="871" on="0"/>
        <pt x="555" y="928" on="1"/>
        <pt x="555" y="162" on="1"/>
        <pt x="622" y="219" on="0"/>
        <pt x="752" y="281" on="1"/>
        <pt x="752" y="209" on="1"/>
        <pt x="603" y="82" on="0"/>
        <pt x="530" y="-61" on="1"/>
        <pt x="494" y="-61" on="1"/>
        <pt x="421" y="82" on="0"/>
        <pt x="272" y="209" on="1"/>
        <pt x="272" y="281" on="1"/>
        <pt x="402" y="219" on="0"/>
        <pt x="469" y="162" on="1"/>
      </contour>
    </TTGlyph>
    <TTGlyph name="arrowupdnbse" xMin="272" yMin="-184" xMax="752" yMax="1151">
      <contour>
        <pt x="272" y="-104" on="1"/>
        <pt x="752" y="-104" on="1"/>
        <pt x="752" y="-184" on="1"/>
        <pt x="272" y="-184" on="1"/>
      </contour>
      <contour>
        <pt x="469" y="928" on="1"/>
        <pt x="402" y="871" on="0"/>
        <pt x="272" y="809" on="1"/>
        <pt x="272" y="881" on="1"/>
        <pt x="421" y="1008" on="0"/>
        <pt x="494" y="1151" on="1"/>
        <pt x="530" y="1151" on="1"/>
        <pt x="603" y="1008" on="0"/>
        <pt x="752" y="881" on="1"/>
        <pt x="752" y="809" on="1"/>
        <pt x="622" y="871" on="0"/>
        <pt x="555" y="928" on="1"/>
        <pt x="555" y="162" on="1"/>
        <pt x="622" y="219" on="0"/>
        <pt x="752" y="281" on="1"/>
        <pt x="752" y="209" on="1"/>
        <pt x="603" y="82" on="0"/>
        <pt x="530" y="-61" on="1"/>
        <pt x="494" y="-61" on="1"/>
        <pt x="421" y="82" on="0"/>
        <pt x="272" y="209" on="1"/>
        <pt x="272" y="281" on="1"/>
        <pt x="402" y="219" on="0"/>
        <pt x="469" y="162" on="1"/>
      </contour>
    </TTGlyph>
    <TTGlyph name="asciicircum" xMin="29" yMin="389" xMax="934" yMax="1341">
      <contour>
        <pt x="457" y="1341" on="1"/>
        <pt x="506" y="1341" on="1"/>
        <pt x="934" y="389" on="1"/>
        <pt x="831" y="389" on="1"/>
        <pt x="481" y="1198" on="1"/>
        <pt x="131" y="389" on="1"/>
        <pt x="29" y="389" on="1"/>
      </contour>
    </TTGlyph>
    <TTGlyph name="asciitilde" xMin="57" yMin="502" xMax="1049" yMax="846">
      <contour>
        <pt x="780" y="502" on="1"/>
        <pt x="674" y="502" on="0"/>
        <pt x="535" y="623" on="1"/>
        <pt x="461" y="686" on="0"/>
        <pt x="364" y="743" on="0"/>
        <pt x="326" y="743" on="1"/>
        <pt x="249" y="743" on="0"/>
        <pt x="171" y="634" on="0"/>
        <pt x="158" y="502" on="1"/>
        <pt x="57" y="502" on="1"/>
        <pt x="75" y="689" on="0"/>
        <pt x="208" y="846" on="0"/>
        <pt x="326" y="846" on="1"/>
        <pt x="382" y="846" on="0"/>
        <pt x="501" y="788" on="0"/>
        <pt x="576" y="725" on="1"/>
        <pt x="662" y="653" on="0"/>
        <pt x="745" y="604" on="0"/>
        <pt x="780" y="604" on="1"/>
        <pt x="849" y="604" on="0"/>
        <pt x="927" y="709" on="0"/>
        <pt x="946" y="846" on="1"/>
        <pt x="1049" y="846" on="1"/>
        <pt x="1032" y="716" on="0"/>
        <pt x="968" y="578" on="0"/>
        <pt x="862" y="502" on="0"/>
      </contour>
    </TTGlyph>
    <TTGlyph name="asterisk" xMin="100" yMin="590" xMax="926" yMax="1341">
      <contour>
        <pt x="100" y="1065" on="1"/>
        <pt x="164" y="1208" on="1"/>
        <pt x="479" y="1014" on="1"/>
        <pt x="436" y="1341" on="1"/>
        <pt x="592" y="1341" on="1"/>
        <pt x="545" y="1014" on="1"/>
        <pt x="862" y="1204" on="1"/>
        <pt x="926" y="1063" on="1"/>
        <pt x="594" y="965" on="1"/>
        <pt x="926" y="868" on="1"/>
        <pt x="862" y="727" on="1"/>
        <pt x="545" y="915" on="1"/>
        <pt x="592" y="590" on="1"/>
        <pt x="436" y="590" on="1"/>
        <pt x="479" y="918" on="1"/>
        <pt x="164" y="723" on="1"/>
        <pt x="100" y="866" on="1"/>
        <pt x="428" y="965" on="1"/>
      </contour>
    </TTGlyph>
    <TTGlyph name="at" xMin="109" yMin="-389" xMax="1778" yMax="1364">
      <contour>
        <pt x="1458" y="-184" on="1"/>
        <pt x="1317" y="-294" on="0"/>
        <pt x="1030" y="-389" on="0"/>
        <pt x="864" y="-389" on="1"/>
        <pt x="639" y="-389" on="0"/>
        <pt x="296" y="-200" on="0"/>
        <pt x="109" y="144" on="0"/>
        <pt x="109" y="362" on="1"/>
        <pt x="109" y="646" on="0"/>
        <pt x="360" y="1106" on="0"/>
        <pt x="803" y="1364" on="0"/>
        <pt x="1073" y="1364" on="1"/>
        <pt x="1409" y="1364" on="0"/>
        <pt x="1778" y="1042" on="0"/>
        <pt x="1778" y="752" on="1"/>
        <pt x="1778" y="562" on="0"/>
        <pt x="1584" y="227" on="0"/>
        <pt x="1254" y="25" on="0"/>
        <pt x="1075" y="25" on="1"/>
        <pt x="1010" y="25" on="0"/>
        <pt x="1010" y="76" on="1"/>
        <pt x="1010" y="126" on="0"/>
        <pt x="1018" y="201" on="1"/>
        <pt x="931" y="114" on="0"/>
        <pt x="763" y="25" on="0"/>
        <pt x="696" y="25" on="1"/>
        <pt x="624" y="25" on="0"/>
        <pt x="545" y="134" on="0"/>
        <pt x="545" y="225" on="1"/>
        <pt x="545" y="344" on="0"/>
        <pt x="606" y="571" on="0"/>
        <pt x="717" y="747" on="0"/>
        <pt x="884" y="870" on="0"/>
        <pt x="1044" y="915" on="0"/>
        <pt x="1174" y="915" on="1"/>
        <pt x="1210" y="915" on="1"/>
        <pt x="1248" y="915" on="0"/>
        <pt x="1296" y="909" on="1"/>
        <pt x="1182" y="379" on="1"/>
        <pt x="1174" y="344" on="0"/>
        <pt x="1159" y="230" on="0"/>
        <pt x="1159" y="205" on="1"/>
        <pt x="1159" y="168" on="0"/>
        <pt x="1196" y="143" on="0"/>
        <pt x="1233" y="143" on="1"/>
        <pt x="1349" y="143" on="0"/>
        <pt x="1541" y="306" on="0"/>
        <pt x="1653" y="596" on="0"/>
        <pt x="1653" y="750" on="1"/>
        <pt x="1653" y="1002" on="0"/>
        <pt x="1341" y="1282" on="0"/>
        <pt x="1067" y="1282" on="1"/>
        <pt x="834" y="1282" on="0"/>
        <pt x="461" y="1055" on="0"/>
        <pt x="246" y="626" on="0"/>
        <pt x="246" y="365" on="1"/>
        <pt x="246" y="170" on="0"/>
        <pt x="401" y="-134" on="0"/>
        <pt x="695" y="-305" on="0"/>
        <pt x="895" y="-305" on="1"/>
        <pt x="1043" y="-305" on="0"/>
        <pt x="1292" y="-228" on="0"/>
        <pt x="1425" y="-133" on="1"/>
      </contour>
      <contour>
        <pt x="1139" y="807" on="1"/>
        <pt x="1090" y="811" on="1"/>
        <pt x="960" y="811" on="0"/>
        <pt x="785" y="722" on="0"/>
        <pt x="680" y="458" on="0"/>
        <pt x="680" y="309" on="1"/>
        <pt x="680" y="160" on="0"/>
        <pt x="760" y="160" on="1"/>
        <pt x="816" y="160" on="0"/>
        <pt x="963" y="222" on="0"/>
        <pt x="1024" y="274" on="1"/>
      </contour>
    </TTGlyph>
    <TTGlyph name="atilde" xMin="72" yMin="-20" xMax="881" yMax="1380">
      <component glyphName="a" x="0" y="0" flags="0x204"/>
      <component glyphName="tilde" x="115" y="0" flags="0x4"/>
    </TTGlyph>
    <TTGlyph name="ayin" xMin="51" yMin="0" xMax="1030" yMax="1206">
      <contour>
        <pt x="1030" y="1030" on="1"/>
        <pt x="1030" y="995" on="0"/>
        <pt x="1014" y="918" on="1"/>
        <pt x="946" y="623" on="0"/>
        <pt x="946" y="432" on="1"/>
        <pt x="946" y="356" on="0"/>
        <pt x="968" y="275" on="1"/>
        <pt x="989" y="194" on="0"/>
        <pt x="989" y="178" on="1"/>
        <pt x="989" y="153" on="0"/>
        <pt x="951" y="28" on="0"/>
        <pt x="940" y="0" on="1"/>
        <pt x="51" y="0" on="1"/>
        <pt x="104" y="182" on="1"/>
        <pt x="307" y="182" on="1"/>
        <pt x="313" y="205" on="1"/>
        <pt x="330" y="265" on="0"/>
        <pt x="330" y="301" on="1"/>
        <pt x="330" y="352" on="0"/>
        <pt x="289" y="450" on="0"/>
        <pt x="240" y="556" on="0"/>
        <pt x="199" y="677" on="0"/>
        <pt x="199" y="752" on="1"/>
        <pt x="199" y="818" on="0"/>
        <pt x="230" y="898" on="1"/>
        <pt x="252" y="954" on="1"/>
        <pt x="106" y="954" on="0"/>
        <pt x="106" y="1081" on="1"/>
        <pt x="106" y="1112" on="0"/>
        <pt x="129" y="1168" on="0"/>
        <pt x="167" y="1206" on="0"/>
        <pt x="180" y="1206" on="1"/>
        <pt x="186" y="1206" on="0"/>
        <pt x="193" y="1195" on="0"/>
        <pt x="193" y="1190" on="1"/>
        <pt x="193" y="1174" on="1"/>
        <pt x="193" y="1133" on="0"/>
        <pt x="252" y="1133" on="1"/>
        <pt x="307" y="1133" on="1"/>
        <pt x="363" y="1133" on="0"/>
        <pt x="411" y="1112" on="0"/>
        <pt x="436" y="1065" on="0"/>
        <pt x="436" y="1024" on="1"/>
        <pt x="436" y="987" on="0"/>
        <pt x="420" y="928" on="0"/>
        <pt x="412" y="928" on="1"/>
        <pt x="402" y="928" on="0"/>
        <pt x="393" y="934" on="1"/>
        <pt x="381" y="946" on="0"/>
        <pt x="354" y="946" on="1"/>
        <pt x="333" y="946" on="0"/>
        <pt x="301" y="910" on="0"/>
        <pt x="301" y="866" on="1"/>
        <pt x="301" y="804" on="0"/>
        <pt x="351" y="687" on="1"/>
        <pt x="394" y="583" on="0"/>
        <pt x="438" y="452" on="0"/>
        <pt x="438" y="395" on="1"/>
        <pt x="438" y="335" on="0"/>
        <pt x="389" y="182" on="1"/>
        <pt x="821" y="182" on="1"/>
        <pt x="846" y="182" on="0"/>
        <pt x="846" y="205" on="1"/>
        <pt x="846" y="227" on="0"/>
        <pt x="838" y="297" on="1"/>
        <pt x="829" y="366" on="0"/>
        <pt x="829" y="428" on="1"/>
        <pt x="829" y="513" on="0"/>
        <pt x="887" y="727" on="1"/>
        <pt x="907" y="802" on="1"/>
        <pt x="928" y="878" on="0"/>
        <pt x="928" y="897" on="1"/>
        <pt x="928" y="952" on="0"/>
        <pt x="864" y="952" on="1"/>
        <pt x="827" y="952" on="1"/>
        <pt x="776" y="952" on="0"/>
        <pt x="719" y="1013" on="0"/>
        <pt x="719" y="1069" on="1"/>
        <pt x="719" y="1114" on="0"/>
        <pt x="758" y="1206" on="0"/>
        <pt x="778" y="1206" on="1"/>
        <pt x="784" y="1206" on="0"/>
        <pt x="793" y="1194" on="0"/>
        <pt x="793" y="1186" on="1"/>
        <pt x="793" y="1163" on="1"/>
        <pt x="793" y="1133" on="0"/>
        <pt x="838" y="1133" on="1"/>
        <pt x="897" y="1133" on="1"/>
        <pt x="962" y="1133" on="0"/>
        <pt x="1030" y="1079" on="0"/>
      </contour>
    </TTGlyph>
    <TTGlyph name="b" xMin="0" yMin="-20" xMax="946" yMax="1421">
      <contour>
        <pt x="766" y="496" on="1"/>
        <pt x="766" y="680" on="0"/>
        <pt x="638" y="860" on="0"/>
        <pt x="504" y="860" on="1"/>
        <pt x="445" y="860" on="0"/>
        <pt x="329" y="839" on="0"/>
        <pt x="303" y="827" on="1"/>
        <pt x="303" y="82" on="1"/>
        <pt x="387" y="66" on="0"/>
        <pt x="504" y="66" on="1"/>
        <pt x="642" y="66" on="0"/>
        <pt x="766" y="282" on="0"/>
      </contour>
      <contour>
        <pt x="137" y="1352" on="1"/>
        <pt x="0" y="1376" on="1"/>
        <pt x="0" y="1421" on="1"/>
        <pt x="303" y="1421" on="1"/>
        <pt x="303" y="1085" on="1"/>
        <pt x="303" y="1031" on="0"/>
        <pt x="297" y="887" on="1"/>
        <pt x="397" y="965" on="0"/>
        <pt x="549" y="965" on="1"/>
        <pt x="741" y="965" on="0"/>
        <pt x="946" y="732" on="0"/>
        <pt x="946" y="496" on="1"/>
        <pt x="946" y="243" on="0"/>
        <pt x="721" y="-20" on="0"/>
        <pt x="508" y="-20" on="1"/>
        <pt x="422" y="-20" on="0"/>
        <pt x="215" y="18" on="0"/>
        <pt x="137" y="49" on="1"/>
      </contour>
    </TTGlyph>
    <TTGlyph name="backslash" xMin="0" yMin="-20" xMax="569" yMax="1350">
      <contour>
        <pt x="0" y="1350" on="1"/>
        <pt x="98" y="1350" on="1"/>
        <pt x="569" y="-20" on="1"/>
        <pt x="469" y="-20" on="1"/>
      </contour>
    </TTGlyph>
    <TTGlyph name="bar" xMin="154" yMin="-442" xMax="256" yMax="1421">
      <contour>
        <pt x="154" y="-442" on="1"/>
        <pt x="154" y="1421" on="1"/>
        <pt x="256" y="1421" on="1"/>
        <pt x="256" y="-442" on="1"/>
      </contour>
    </TTGlyph>
    <TTGlyph name="bari.dotless" xMin="23" yMin="0" xMax="550" yMax="940">
      <contour>
        <pt x="369" y="428" on="1"/>
        <pt x="369" y="70" on="1"/>
        <pt x="530" y="45" on="1"/>
        <pt x="530" y="0" on="1"/>
        <pt x="43" y="0" on="1"/>
        <pt x="43" y="45" on="1"/>
        <pt x="203" y="70" on="1"/>
        <pt x="203" y="428" on="1"/>
        <pt x="23" y="428" on="1"/>
        <pt x="23" y="512" on="1"/>
        <pt x="203" y="512" on="1"/>
        <pt x="203" y="870" on="1"/>
        <pt x="70" y="895" on="1"/>
        <pt x="70" y="940" on="1"/>
        <pt x="369" y="940" on="1"/>
        <pt x="369" y="512" on="1"/>
        <pt x="550" y="512" on="1"/>
        <pt x="550" y="428" on="1"/>
      </contour>
    </TTGlyph>
    <TTGlyph name="bet" xMin="27" yMin="0" xMax="901" yMax="1204">
      <contour>
        <pt x="858" y="0" on="1"/>
        <pt x="27" y="0" on="1"/>
        <pt x="80" y="182" on="1"/>
        <pt x="676" y="182" on="1"/>
        <pt x="696" y="245" on="0"/>
        <pt x="713" y="402" on="0"/>
        <pt x="713" y="551" on="1"/>
        <pt x="713" y="619" on="1"/>
        <pt x="713" y="746" on="0"/>
        <pt x="695" y="906" on="0"/>
        <pt x="648" y="952" on="0"/>
        <pt x="588" y="952" on="1"/>
        <pt x="150" y="952" on="1"/>
        <pt x="102" y="952" on="0"/>
        <pt x="45" y="1021" on="0"/>
        <pt x="45" y="1073" on="1"/>
        <pt x="45" y="1119" on="0"/>
        <pt x="89" y="1204" on="0"/>
        <pt x="111" y="1204" on="1"/>
        <pt x="123" y="1204" on="0"/>
        <pt x="123" y="1186" on="1"/>
        <pt x="123" y="1167" on="1"/>
        <pt x="123" y="1133" on="0"/>
        <pt x="168" y="1133" on="1"/>
        <pt x="612" y="1133" on="1"/>
        <pt x="697" y="1133" on="0"/>
        <pt x="772" y="1102" on="0"/>
        <pt x="807" y="1027" on="0"/>
        <pt x="821" y="805" on="0"/>
        <pt x="821" y="641" on="1"/>
        <pt x="821" y="402" on="0"/>
        <pt x="803" y="303" on="1"/>
        <pt x="797" y="280" on="0"/>
        <pt x="750" y="202" on="0"/>
        <pt x="733" y="182" on="1"/>
        <pt x="901" y="182" on="1"/>
      </contour>
    </TTGlyph>
    <TTGlyph name="beta" xMin="132" yMin="-436" xMax="955" yMax="1442">
      <contour>
        <pt x="298" y="-436" on="1"/>
        <pt x="132" y="-436" on="1"/>
        <pt x="132" y="941" on="1"/>
        <pt x="132" y="1192" on="0"/>
        <pt x="333" y="1442" on="0"/>
        <pt x="542" y="1442" on="1"/>
        <pt x="711" y="1442" on="0"/>
        <pt x="905" y="1261" on="0"/>
        <pt x="905" y="1099" on="1"/>
        <pt x="905" y="966" on="0"/>
        <pt x="772" y="786" on="0"/>
        <pt x="664" y="763" on="1"/>
        <pt x="664" y="753" on="1"/>
        <pt x="812" y="722" on="0"/>
        <pt x="955" y="546" on="0"/>
        <pt x="955" y="392" on="1"/>
        <pt x="955" y="196" on="0"/>
        <pt x="752" y="-20" on="0"/>
        <pt x="564" y="-20" on="1"/>
        <pt x="420" y="-20" on="0"/>
        <pt x="298" y="33" on="1"/>
      </contour>
      <contour>
        <pt x="735" y="1096" on="1"/>
        <pt x="735" y="1224" on="0"/>
        <pt x="637" y="1362" on="0"/>
        <pt x="540" y="1362" on="1"/>
        <pt x="410" y="1362" on="0"/>
        <pt x="298" y="1159" on="0"/>
        <pt x="298" y="937" on="1"/>
        <pt x="298" y="106" on="1"/>
        <pt x="416" y="68" on="0"/>
        <pt x="552" y="68" on="1"/>
        <pt x="780" y="68" on="0"/>
        <pt x="780" y="389" on="1"/>
        <pt x="780" y="550" on="0"/>
        <pt x="630" y="706" on="0"/>
        <pt x="475" y="712" on="1"/>
        <pt x="475" y="790" on="1"/>
        <pt x="610" y="794" on="0"/>
        <pt x="735" y="938" on="0"/>
      </contour>
    </TTGlyph>
    <TTGlyph name="betdagesh" xMin="27" yMin="0" xMax="901" yMax="1204">
      <component glyphName="bet" x="0" y="0" flags="0x204"/>
      <component glyphName="dagesh" x="403" y="-85" flags="0x4"/>
    </TTGlyph>
    <TTGlyph name="betrafe" xMin="27" yMin="0" xMax="901" yMax="1382">
      <component glyphName="bet" x="0" y="0" flags="0x204"/>
      <component glyphName="rafe" x="444" y="0" flags="0x4"/>
    </TTGlyph>
    <TTGlyph name="block" xMin="0" yMin="-621" xMax="1451" yMax="1864">
      <contour>
        <pt x="1451" y="-621" on="1"/>
        <pt x="0" y="-621" on="1"/>
        <pt x="0" y="1864" on="1"/>
        <pt x="1451" y="1864" on="1"/>
      </contour>
    </TTGlyph>
    <TTGlyph name="braceleft" xMin="186" yMin="-274" xMax="797" yMax="1421">
      <contour>
        <pt x="662" y="-274" on="1"/>
        <pt x="536" y="-274" on="0"/>
        <pt x="401" y="-120" on="0"/>
        <pt x="401" y="20" on="1"/>
        <pt x="401" y="315" on="1"/>
        <pt x="401" y="432" on="0"/>
        <pt x="296" y="549" on="0"/>
        <pt x="186" y="553" on="1"/>
        <pt x="186" y="598" on="1"/>
        <pt x="401" y="602" on="0"/>
        <pt x="401" y="834" on="1"/>
        <pt x="401" y="1128" on="1"/>
        <pt x="401" y="1269" on="0"/>
        <pt x="531" y="1421" on="0"/>
        <pt x="662" y="1421" on="1"/>
        <pt x="797" y="1421" on="1"/>
        <pt x="797" y="1374" on="1"/>
        <pt x="735" y="1374" on="1"/>
        <pt x="644" y="1374" on="0"/>
        <pt x="567" y="1265" on="0"/>
        <pt x="567" y="1159" on="1"/>
        <pt x="567" y="829" on="1"/>
        <pt x="567" y="734" on="0"/>
        <pt x="463" y="597" on="0"/>
        <pt x="375" y="578" on="1"/>
        <pt x="375" y="575" on="1"/>
        <pt x="464" y="554" on="0"/>
        <pt x="567" y="419" on="0"/>
        <pt x="567" y="322" on="1"/>
        <pt x="567" y="-12" on="1"/>
        <pt x="567" y="-118" on="0"/>
        <pt x="644" y="-227" on="0"/>
        <pt x="735" y="-227" on="1"/>
        <pt x="797" y="-227" on="1"/>
        <pt x="797" y="-274" on="1"/>
      </contour>
    </TTGlyph>
    <TTGlyph name="braceright" xMin="186" yMin="-274" xMax="797" yMax="1421">
      <contour>
        <pt x="186" y="-274" on="1"/>
        <pt x="186" y="-227" on="1"/>
        <pt x="248" y="-227" on="1"/>
        <pt x="339" y="-227" on="0"/>
        <pt x="416" y="-118" on="0"/>
        <pt x="416" y="-12" on="1"/>
        <pt x="416" y="322" on="1"/>
        <pt x="416" y="419" on="0"/>
        <pt x="518" y="554" on="0"/>
        <pt x="608" y="575" on="1"/>
        <pt x="608" y="578" on="1"/>
        <pt x="520" y="597" on="0"/>
        <pt x="416" y="735" on="0"/>
        <pt x="416" y="829" on="1"/>
        <pt x="416" y="1159" on="1"/>
        <pt x="416" y="1265" on="0"/>
        <pt x="339" y="1374" on="0"/>
        <pt x="248" y="1374" on="1"/>
        <pt x="186" y="1374" on="1"/>
        <pt x="186" y="1421" on="1"/>
        <pt x="322" y="1421" on="1"/>
        <pt x="452" y="1421" on="0"/>
        <pt x="582" y="1269" on="0"/>
        <pt x="582" y="1128" on="1"/>
        <pt x="582" y="834" on="1"/>
        <pt x="582" y="602" on="0"/>
        <pt x="797" y="598" on="1"/>
        <pt x="797" y="553" on="1"/>
        <pt x="689" y="549" on="0"/>
        <pt x="582" y="433" on="0"/>
        <pt x="582" y="315" on="1"/>
        <pt x="582" y="20" on="1"/>
        <pt x="582" y="-119" on="0"/>
        <pt x="447" y="-274" on="0"/>
        <pt x="322" y="-274" on="1"/>
      </contour>
    </TTGlyph>
    <TTGlyph name="bracketleft" xMin="152" yMin="-274" xMax="608" yMax="1421">
      <contour>
        <pt x="152" y="-274" on="1"/>
        <pt x="152" y="1421" on="1"/>
        <pt x="608" y="1421" on="1"/>
        <pt x="608" y="1374" on="1"/>
        <pt x="311" y="1333" on="1"/>
        <pt x="311" y="-186" on="1"/>
        <pt x="608" y="-227" on="1"/>
        <pt x="608" y="-274" on="1"/>
      </contour>
    </TTGlyph>
    <TTGlyph name="bracketright" xMin="74" yMin="-274" xMax="530" yMax="1421">
      <contour>
        <pt x="74" y="-274" on="1"/>
        <pt x="74" y="-227" on="1"/>
        <pt x="371" y="-186" on="1"/>
        <pt x="371" y="1333" on="1"/>
        <pt x="74" y="1374" on="1"/>
        <pt x="74" y="1421" on="1"/>
        <pt x="530" y="1421" on="1"/>
        <pt x="530" y="-274" on="1"/>
      </contour>
    </TTGlyph>
    <TTGlyph name="breve" xMin="53" yMin="1119" xMax="627" yMax="1399">
      <contour>
        <pt x="340" y="1119" on="1"/>
        <pt x="206" y="1119" on="0"/>
        <pt x="56" y="1272" on="0"/>
        <pt x="53" y="1399" on="1"/>
        <pt x="127" y="1399" on="1"/>
        <pt x="143" y="1332" on="0"/>
        <pt x="256" y="1260" on="0"/>
        <pt x="340" y="1260" on="1"/>
        <pt x="424" y="1260" on="0"/>
        <pt x="536" y="1332" on="0"/>
        <pt x="553" y="1399" on="1"/>
        <pt x="627" y="1399" on="1"/>
        <pt x="622" y="1268" on="0"/>
        <pt x="472" y="1119" on="0"/>
      </contour>
    </TTGlyph>
    <TTGlyph name="breve.alt1" xMin="53" yMin="1119" xMax="627" yMax="1399">
      <component glyphName="breve" x="0" y="0" flags="0x4"/>
    </TTGlyph>
    <TTGlyph name="breve.cyr" xMin="-27" yMin="1122" xMax="707" yMax="1402">
      <contour>
        <pt x="340" y="1122" on="1"/>
        <pt x="157" y="1122" on="0"/>
        <pt x="-22" y="1254" on="0"/>
        <pt x="-27" y="1402" on="1"/>
        <pt x="137" y="1402" on="1"/>
        <pt x="143" y="1299" on="0"/>
        <pt x="247" y="1193" on="0"/>
        <pt x="340" y="1193" on="1"/>
        <pt x="433" y="1193" on="0"/>
        <pt x="537" y="1299" on="0"/>
        <pt x="543" y="1402" on="1"/>
        <pt x="707" y="1402" on="1"/>
        <pt x="702" y="1253" on="0"/>
        <pt x="523" y="1122" on="0"/>
      </contour>
    </TTGlyph>
    <TTGlyph name="breveacute" xMin="-287" yMin="1099" xMax="287" yMax="1483">
      <contour>
        <pt x="28" y="1483" on="1"/>
        <pt x="195" y="1483" on="1"/>
        <pt x="195" y="1461" on="1"/>
        <pt x="-11" y="1285" on="1"/>
        <pt x="-77" y="1285" on="1"/>
        <pt x="-77" y="1295" on="1"/>
      </contour>
      <contour>
        <pt x="0" y="1099" on="1"/>
        <pt x="-132" y="1099" on="0"/>
        <pt x="-285" y="1231" on="0"/>
        <pt x="-287" y="1342" on="1"/>
        <pt x="-213" y="1342" on="1"/>
        <pt x="-196" y="1282" on="0"/>
        <pt x="-83" y="1221" on="0"/>
        <pt x="0" y="1221" on="1"/>
        <pt x="83" y="1221" on="0"/>
        <pt x="196" y="1282" on="0"/>
        <pt x="213" y="1342" on="1"/>
        <pt x="287" y="1342" on="1"/>
        <pt x="282" y="1227" on="0"/>
        <pt x="130" y="1099" on="0"/>
      </contour>
    </TTGlyph>
    <TTGlyph name="brevegrave" xMin="-287" yMin="1099" xMax="287" yMax="1483">
      <contour>
        <pt x="77" y="1295" on="1"/>
        <pt x="77" y="1285" on="1"/>
        <pt x="11" y="1285" on="1"/>
        <pt x="-195" y="1461" on="1"/>
        <pt x="-195" y="1483" on="1"/>
        <pt x="-28" y="1483" on="1"/>
      </contour>
      <contour>
        <pt x="0" y="1099" on="1"/>
        <pt x="-132" y="1099" on="0"/>
        <pt x="-285" y="1231" on="0"/>
        <pt x="-287" y="1342" on="1"/>
        <pt x="-213" y="1342" on="1"/>
        <pt x="-196" y="1282" on="0"/>
        <pt x="-83" y="1221" on="0"/>
        <pt x="0" y="1221" on="1"/>
        <pt x="83" y="1221" on="0"/>
        <pt x="196" y="1282" on="0"/>
        <pt x="213" y="1342" on="1"/>
        <pt x="287" y="1342" on="1"/>
        <pt x="282" y="1227" on="0"/>
        <pt x="130" y="1099" on="0"/>
      </contour>
    </TTGlyph>
    <TTGlyph name="brevehook" xMin="-287" yMin="1099" xMax="287" yMax="1484">
      <contour>
        <pt x="0" y="1099" on="1"/>
        <pt x="-132" y="1099" on="0"/>
        <pt x="-285" y="1231" on="0"/>
        <pt x="-287" y="1342" on="1"/>
        <pt x="-213" y="1342" on="1"/>
        <pt x="-196" y="1282" on="0"/>
        <pt x="-83" y="1221" on="0"/>
        <pt x="0" y="1221" on="1"/>
        <pt x="83" y="1221" on="0"/>
        <pt x="196" y="1282" on="0"/>
        <pt x="213" y="1342" on="1"/>
        <pt x="287" y="1342" on="1"/>
        <pt x="282" y="1227" on="0"/>
        <pt x="130" y="1099" on="0"/>
      </contour>
      <contour>
        <pt x="-113" y="1467" on="1"/>
        <pt x="-55" y="1484" on="0"/>
        <pt x="-5" y="1484" on="1"/>
        <pt x="56" y="1484" on="0"/>
        <pt x="123" y="1442" on="0"/>
        <pt x="123" y="1406" on="1"/>
        <pt x="123" y="1325" on="0"/>
        <pt x="3" y="1318" on="1"/>
        <pt x="-1" y="1287" on="1"/>
        <pt x="-47" y="1287" on="1"/>
        <pt x="-52" y="1355" on="1"/>
        <pt x="1" y="1365" on="0"/>
        <pt x="22" y="1383" on="0"/>
        <pt x="22" y="1400" on="1"/>
        <pt x="22" y="1430" on="0"/>
        <pt x="-19" y="1430" on="1"/>
        <pt x="-51" y="1430" on="0"/>
        <pt x="-99" y="1415" on="1"/>
      </contour>
    </TTGlyph>
    <TTGlyph name="brevetilde" xMin="-290" yMin="1100" xMax="294" yMax="1520">
      <contour>
        <pt x="118" y="1330" on="1"/>
        <pt x="75" y="1330" on="0"/>
        <pt x="2" y="1361" on="0"/>
        <pt x="-63" y="1399" on="0"/>
        <pt x="-123" y="1430" on="0"/>
        <pt x="-153" y="1430" on="1"/>
        <pt x="-182" y="1430" on="0"/>
        <pt x="-217" y="1412" on="0"/>
        <pt x="-236" y="1382" on="0"/>
        <pt x="-243" y="1344" on="1"/>
        <pt x="-290" y="1344" on="1"/>
        <pt x="-274" y="1520" on="0"/>
        <pt x="-114" y="1520" on="1"/>
        <pt x="-71" y="1520" on="0"/>
        <pt x="2" y="1489" on="0"/>
        <pt x="68" y="1451" on="0"/>
        <pt x="128" y="1420" on="0"/>
        <pt x="157" y="1420" on="1"/>
        <pt x="195" y="1420" on="0"/>
        <pt x="237" y="1453" on="0"/>
        <pt x="247" y="1505" on="1"/>
        <pt x="294" y="1505" on="1"/>
        <pt x="279" y="1330" on="0"/>
      </contour>
      <contour>
        <pt x="0" y="1100" on="1"/>
        <pt x="-125" y="1100" on="0"/>
        <pt x="-265" y="1210" on="0"/>
        <pt x="-267" y="1309" on="1"/>
        <pt x="-213" y="1309" on="1"/>
        <pt x="-197" y="1262" on="0"/>
        <pt x="-84" y="1211" on="0"/>
        <pt x="0" y="1211" on="1"/>
        <pt x="85" y="1211" on="0"/>
        <pt x="197" y="1262" on="0"/>
        <pt x="213" y="1309" on="1"/>
        <pt x="267" y="1309" on="1"/>
        <pt x="262" y="1205" on="0"/>
        <pt x="121" y="1100" on="0"/>
      </contour>
    </TTGlyph>
    <TTGlyph name="brokenbar" xMin="154" yMin="-442" xMax="256" yMax="1421">
      <contour>
        <pt x="154" y="801" on="1"/>
        <pt x="154" y="1421" on="1"/>
        <pt x="256" y="1421" on="1"/>
        <pt x="256" y="801" on="1"/>
      </contour>
      <contour>
        <pt x="154" y="-442" on="1"/>
        <pt x="154" y="180" on="1"/>
        <pt x="256" y="180" on="1"/>
        <pt x="256" y="-442" on="1"/>
      </contour>
    </TTGlyph>
    <TTGlyph name="bullet" xMin="115" yMin="434" xMax="602" yMax="922">
      <contour>
        <pt x="602" y="678" on="1"/>
        <pt x="602" y="576" on="0"/>
        <pt x="460" y="434" on="0"/>
        <pt x="358" y="434" on="1"/>
        <pt x="257" y="434" on="0"/>
        <pt x="115" y="576" on="0"/>
        <pt x="115" y="678" on="1"/>
        <pt x="115" y="780" on="0"/>
        <pt x="257" y="922" on="0"/>
        <pt x="358" y="922" on="1"/>
        <pt x="460" y="922" on="0"/>
        <pt x="602" y="780" on="0"/>
      </contour>
    </TTGlyph>
    <TTGlyph name="c" xMin="78" yMin="-20" xMax="846" yMax="965">
      <contour>
        <pt x="846" y="57" on="1"/>
        <pt x="797" y="21" on="0"/>
        <pt x="625" y="-20" on="0"/>
        <pt x="535" y="-20" on="1"/>
        <pt x="78" y="-20" on="0"/>
        <pt x="78" y="477" on="1"/>
        <pt x="78" y="712" on="0"/>
        <pt x="311" y="965" on="0"/>
        <pt x="528" y="965" on="1"/>
        <pt x="663" y="965" on="0"/>
        <pt x="823" y="934" on="1"/>
        <pt x="823" y="672" on="1"/>
        <pt x="768" y="672" on="1"/>
        <pt x="725" y="838" on="1"/>
        <pt x="642" y="885" on="0"/>
        <pt x="526" y="885" on="1"/>
        <pt x="258" y="885" on="0"/>
        <pt x="258" y="477" on="1"/>
        <pt x="258" y="265" on="0"/>
        <pt x="421" y="84" on="0"/>
        <pt x="592" y="84" on="1"/>
        <pt x="738" y="84" on="0"/>
        <pt x="846" y="117" on="1"/>
      </contour>
    </TTGlyph>
    <TTGlyph name="cacute" xMin="78" yMin="-20" xMax="846" yMax="1424">
      <component glyphName="c" x="0" y="0" flags="0x204"/>
      <component glyphName="acute" x="210" y="0" flags="0x4"/>
    </TTGlyph>
    <TTGlyph name="caron" xMin="18" yMin="1119" xMax="666" yMax="1425">
      <contour>
        <pt x="74" y="1425" on="1"/>
        <pt x="342" y="1242" on="1"/>
        <pt x="610" y="1425" on="1"/>
        <pt x="666" y="1425" on="1"/>
        <pt x="666" y="1392" on="1"/>
        <pt x="449" y="1119" on="1"/>
        <pt x="236" y="1119" on="1"/>
        <pt x="18" y="1392" on="1"/>
        <pt x="18" y="1425" on="1"/>
      </contour>
    </TTGlyph>
    <TTGlyph name="caroncommaaccent" xMin="50" yMin="915" xMax="356" yMax="1341">
      <contour>
        <pt x="356" y="1198" on="1"/>
        <pt x="356" y="1089" on="0"/>
        <pt x="213" y="952" on="0"/>
        <pt x="50" y="915" on="1"/>
        <pt x="50" y="978" on="1"/>
        <pt x="117" y="993" on="0"/>
        <pt x="197" y="1035" on="0"/>
        <pt x="235" y="1083" on="0"/>
        <pt x="235" y="1122" on="1"/>
        <pt x="235" y="1139" on="0"/>
        <pt x="206" y="1164" on="0"/>
        <pt x="171" y="1192" on="0"/>
        <pt x="142" y="1231" on="0"/>
        <pt x="142" y="1262" on="1"/>
        <pt x="142" y="1300" on="0"/>
        <pt x="197" y="1341" on="0"/>
        <pt x="240" y="1341" on="1"/>
        <pt x="290" y="1341" on="0"/>
        <pt x="356" y="1263" on="0"/>
      </contour>
    </TTGlyph>
    <TTGlyph name="ccaron" xMin="78" yMin="-20" xMax="846" yMax="1425">
      <component glyphName="c" x="0" y="0" flags="0x204"/>
      <component glyphName="caron" x="176" y="0" flags="0x4"/>
    </TTGlyph>
    <TTGlyph name="ccedilla" xMin="78" yMin="-436" xMax="846" yMax="965">
      <component glyphName="c" x="0" y="0" flags="0x204"/>
      <component glyphName="cedilla" x="178" y="0" flags="0x4"/>
    </TTGlyph>
    <TTGlyph name="ccircumflex" xMin="78" yMin="-20" xMax="846" yMax="1425">
      <component glyphName="c" x="0" y="0" flags="0x204"/>
      <component glyphName="circumflex" x="170" y="0" flags="0x4"/>
    </TTGlyph>
    <TTGlyph name="cedilla" xMin="143" yMin="-436" xMax="528" yMax="18">
      <contour>
        <pt x="528" y="-234" on="1"/>
        <pt x="528" y="-326" on="0"/>
        <pt x="389" y="-436" on="0"/>
        <pt x="281" y="-436" on="1"/>
        <pt x="205" y="-436" on="0"/>
        <pt x="143" y="-414" on="1"/>
        <pt x="143" y="-340" on="1"/>
        <pt x="165" y="-347" on="0"/>
        <pt x="241" y="-356" on="0"/>
        <pt x="263" y="-356" on="1"/>
        <pt x="323" y="-356" on="0"/>
        <pt x="377" y="-297" on="0"/>
        <pt x="377" y="-252" on="1"/>
        <pt x="377" y="-203" on="0"/>
        <pt x="297" y="-141" on="0"/>
        <pt x="225" y="-135" on="1"/>
        <pt x="266" y="18" on="1"/>
        <pt x="352" y="18" on="1"/>
        <pt x="334" y="-64" on="1"/>
        <pt x="425" y="-73" on="0"/>
        <pt x="528" y="-161" on="0"/>
      </contour>
    </TTGlyph>
    <TTGlyph name="cent" xMin="127" yMin="0" xMax="895" yMax="1341">
      <contour>
        <pt x="536" y="186" on="1"/>
        <pt x="329" y="199" on="0"/>
        <pt x="127" y="447" on="0"/>
        <pt x="127" y="684" on="1"/>
        <pt x="127" y="905" on="0"/>
        <pt x="338" y="1158" on="0"/>
        <pt x="536" y="1169" on="1"/>
        <pt x="536" y="1341" on="1"/>
        <pt x="618" y="1341" on="1"/>
        <pt x="618" y="1171" on="1"/>
        <pt x="753" y="1165" on="0"/>
        <pt x="872" y="1141" on="1"/>
        <pt x="872" y="879" on="1"/>
        <pt x="817" y="879" on="1"/>
        <pt x="774" y="1044" on="1"/>
        <pt x="708" y="1080" on="0"/>
        <pt x="618" y="1090" on="1"/>
        <pt x="618" y="291" on="1"/>
        <pt x="641" y="291" on="1"/>
        <pt x="787" y="291" on="0"/>
        <pt x="895" y="324" on="1"/>
        <pt x="895" y="264" on="1"/>
        <pt x="860" y="236" on="0"/>
        <pt x="718" y="193" on="0"/>
        <pt x="618" y="186" on="1"/>
        <pt x="618" y="0" on="1"/>
        <pt x="536" y="0" on="1"/>
      </contour>
      <contour>
        <pt x="307" y="684" on="1"/>
        <pt x="307" y="506" on="0"/>
        <pt x="417" y="325" on="0"/>
        <pt x="536" y="301" on="1"/>
        <pt x="536" y="1090" on="1"/>
        <pt x="307" y="1061" on="0"/>
      </contour>
    </TTGlyph>
    <TTGlyph name="chi" xMin="-2" yMin="-436" xMax="900" yMax="940">
      <contour>
        <pt x="747" y="-436" on="1"/>
        <pt x="735" y="-428" on="0"/>
        <pt x="692" y="-348" on="0"/>
        <pt x="680" y="-318" on="1"/>
        <pt x="466" y="165" on="1"/>
        <pt x="267" y="-227" on="0"/>
        <pt x="176" y="-436" on="1"/>
        <pt x="-2" y="-436" on="1"/>
        <pt x="-2" y="-403" on="1"/>
        <pt x="312" y="182" on="0"/>
        <pt x="387" y="327" on="1"/>
        <pt x="158" y="807" on="1"/>
        <pt x="126" y="876" on="0"/>
        <pt x="21" y="895" on="1"/>
        <pt x="21" y="940" on="1"/>
        <pt x="204" y="940" on="1"/>
        <pt x="229" y="923" on="0"/>
        <pt x="258" y="854" on="1"/>
        <pt x="446" y="417" on="1"/>
        <pt x="599" y="723" on="0"/>
        <pt x="692" y="940" on="1"/>
        <pt x="867" y="940" on="1"/>
        <pt x="867" y="901" on="1"/>
        <pt x="711" y="626" on="0"/>
        <pt x="527" y="258" on="1"/>
        <pt x="793" y="-303" on="1"/>
        <pt x="815" y="-350" on="0"/>
        <pt x="866" y="-386" on="0"/>
        <pt x="900" y="-391" on="1"/>
        <pt x="900" y="-436" on="1"/>
      </contour>
    </TTGlyph>
    <TTGlyph name="circle" xMin="167" yMin="162" xMax="1070" yMax="1065">
      <contour>
        <pt x="167" y="612" on="1"/>
        <pt x="167" y="734" on="0"/>
        <pt x="287" y="944" on="0"/>
        <pt x="496" y="1065" on="0"/>
        <pt x="617" y="1065" on="1"/>
        <pt x="739" y="1065" on="0"/>
        <pt x="949" y="944" on="0"/>
        <pt x="1070" y="733" on="0"/>
        <pt x="1070" y="612" on="1"/>
        <pt x="1070" y="491" on="0"/>
        <pt x="949" y="282" on="0"/>
        <pt x="740" y="162" on="0"/>
        <pt x="617" y="162" on="1"/>
        <pt x="495" y="162" on="0"/>
        <pt x="287" y="282" on="0"/>
        <pt x="167" y="490" on="0"/>
      </contour>
      <contour>
        <pt x="253" y="612" on="1"/>
        <pt x="253" y="514" on="0"/>
        <pt x="351" y="345" on="0"/>
        <pt x="518" y="248" on="0"/>
        <pt x="617" y="248" on="1"/>
        <pt x="715" y="248" on="0"/>
        <pt x="884" y="344" on="0"/>
        <pt x="984" y="514" on="0"/>
        <pt x="984" y="612" on="1"/>
        <pt x="984" y="710" on="0"/>
        <pt x="886" y="881" on="0"/>
        <pt x="715" y="979" on="0"/>
        <pt x="617" y="979" on="1"/>
        <pt x="520" y="979" on="0"/>
        <pt x="351" y="881" on="0"/>
        <pt x="253" y="712" on="0"/>
      </contour>
    </TTGlyph>
    <TTGlyph name="circumflex" xMin="18" yMin="1119" xMax="666" yMax="1425">
      <contour>
        <pt x="18" y="1119" on="1"/>
        <pt x="18" y="1152" on="1"/>
        <pt x="236" y="1425" on="1"/>
        <pt x="449" y="1425" on="1"/>
        <pt x="666" y="1152" on="1"/>
        <pt x="666" y="1119" on="1"/>
        <pt x="610" y="1119" on="1"/>
        <pt x="342" y="1302" on="1"/>
        <pt x="74" y="1119" on="1"/>
      </contour>
    </TTGlyph>
    <TTGlyph name="circumflex.alt1" xMin="18" yMin="1119" xMax="666" yMax="1425">
      <component glyphName="circumflex" x="0" y="0" flags="0x4"/>
    </TTGlyph>
    <TTGlyph name="circumflexacute" xMin="-304" yMin="1119" xMax="479" yMax="1483">
      <contour>
        <pt x="312" y="1483" on="1"/>
        <pt x="479" y="1483" on="1"/>
        <pt x="479" y="1461" on="1"/>
        <pt x="273" y="1285" on="1"/>
        <pt x="207" y="1285" on="1"/>
        <pt x="207" y="1295" on="1"/>
      </contour>
      <contour>
        <pt x="-304" y="1119" on="1"/>
        <pt x="-304" y="1152" on="1"/>
        <pt x="-76" y="1405" on="1"/>
        <pt x="77" y="1405" on="1"/>
        <pt x="304" y="1152" on="1"/>
        <pt x="304" y="1119" on="1"/>
        <pt x="248" y="1119" on="1"/>
        <pt x="0" y="1282" on="1"/>
        <pt x="-248" y="1119" on="1"/>
      </contour>
    </TTGlyph>
    <TTGlyph name="circumflexgrave" xMin="-479" yMin="1119" xMax="304" yMax="1483">
      <contour>
        <pt x="-207" y="1295" on="1"/>
        <pt x="-207" y="1285" on="1"/>
        <pt x="-273" y="1285" on="1"/>
        <pt x="-479" y="1461" on="1"/>
        <pt x="-479" y="1483" on="1"/>
        <pt x="-312" y="1483" on="1"/>
      </contour>
      <contour>
        <pt x="248" y="1119" on="1"/>
        <pt x="0" y="1282" on="1"/>
        <pt x="-248" y="1119" on="1"/>
        <pt x="-304" y="1119" on="1"/>
        <pt x="-304" y="1152" on="1"/>
        <pt x="-77" y="1405" on="1"/>
        <pt x="76" y="1405" on="1"/>
        <pt x="304" y="1152" on="1"/>
        <pt x="304" y="1119" on="1"/>
      </contour>
    </TTGlyph>
    <TTGlyph name="circumflexhook" xMin="-304" yMin="1119" xMax="427" yMax="1484">
      <contour>
        <pt x="-304" y="1119" on="1"/>
        <pt x="-304" y="1152" on="1"/>
        <pt x="-76" y="1405" on="1"/>
        <pt x="77" y="1405" on="1"/>
        <pt x="304" y="1152" on="1"/>
        <pt x="304" y="1119" on="1"/>
        <pt x="248" y="1119" on="1"/>
        <pt x="0" y="1282" on="1"/>
        <pt x="-248" y="1119" on="1"/>
      </contour>
      <contour>
        <pt x="167" y="1467" on="1"/>
        <pt x="228" y="1484" on="0"/>
        <pt x="286" y="1484" on="1"/>
        <pt x="355" y="1484" on="0"/>
        <pt x="427" y="1432" on="0"/>
        <pt x="427" y="1396" on="1"/>
        <pt x="427" y="1353" on="0"/>
        <pt x="358" y="1301" on="0"/>
        <pt x="295" y="1298" on="1"/>
        <pt x="290" y="1267" on="1"/>
        <pt x="240" y="1267" on="1"/>
        <pt x="234" y="1335" on="1"/>
        <pt x="263" y="1340" on="1"/>
        <pt x="316" y="1348" on="0"/>
        <pt x="316" y="1390" on="1"/>
        <pt x="316" y="1406" on="0"/>
        <pt x="293" y="1429" on="0"/>
        <pt x="268" y="1429" on="1"/>
        <pt x="228" y="1429" on="0"/>
        <pt x="180" y="1415" on="1"/>
      </contour>
    </TTGlyph>
    <TTGlyph name="circumflextilde" xMin="-290" yMin="1089" xMax="294" yMax="1520">
      <contour>
        <pt x="-284" y="1089" on="1"/>
        <pt x="-284" y="1122" on="1"/>
        <pt x="-96" y="1315" on="1"/>
        <pt x="97" y="1315" on="1"/>
        <pt x="284" y="1122" on="1"/>
        <pt x="284" y="1089" on="1"/>
        <pt x="228" y="1089" on="1"/>
        <pt x="0" y="1212" on="1"/>
        <pt x="-228" y="1089" on="1"/>
      </contour>
      <contour>
        <pt x="118" y="1330" on="1"/>
        <pt x="75" y="1330" on="0"/>
        <pt x="2" y="1361" on="0"/>
        <pt x="-63" y="1399" on="0"/>
        <pt x="-123" y="1430" on="0"/>
        <pt x="-153" y="1430" on="1"/>
        <pt x="-182" y="1430" on="0"/>
        <pt x="-217" y="1412" on="0"/>
        <pt x="-236" y="1382" on="0"/>
        <pt x="-243" y="1344" on="1"/>
        <pt x="-290" y="1344" on="1"/>
        <pt x="-274" y="1520" on="0"/>
        <pt x="-114" y="1520" on="1"/>
        <pt x="-71" y="1520" on="0"/>
        <pt x="2" y="1489" on="0"/>
        <pt x="68" y="1451" on="0"/>
        <pt x="128" y="1420" on="0"/>
        <pt x="157" y="1420" on="1"/>
        <pt x="195" y="1420" on="0"/>
        <pt x="237" y="1453" on="0"/>
        <pt x="247" y="1505" on="1"/>
        <pt x="294" y="1505" on="1"/>
        <pt x="279" y="1330" on="0"/>
      </contour>
    </TTGlyph>
    <TTGlyph name="club" xMin="60" yMin="0" xMax="1284" yMax="1223">
      <contour>
        <pt x="1094" y="0" on="1"/>
        <pt x="252" y="0" on="1"/>
        <pt x="260" y="35" on="1"/>
        <pt x="395" y="62" on="0"/>
        <pt x="514" y="116" on="0"/>
        <pt x="609" y="236" on="0"/>
        <pt x="662" y="385" on="0"/>
        <pt x="662" y="461" on="1"/>
        <pt x="660" y="508" on="1"/>
        <pt x="603" y="388" on="0"/>
        <pt x="425" y="270" on="0"/>
        <pt x="336" y="270" on="1"/>
        <pt x="259" y="270" on="0"/>
        <pt x="130" y="346" on="0"/>
        <pt x="60" y="472" on="0"/>
        <pt x="60" y="549" on="1"/>
        <pt x="60" y="664" on="0"/>
        <pt x="206" y="822" on="0"/>
        <pt x="299" y="823" on="1"/>
        <pt x="361" y="823" on="0"/>
        <pt x="461" y="772" on="1"/>
        <pt x="423" y="837" on="0"/>
        <pt x="406" y="877" on="1"/>
        <pt x="395" y="914" on="0"/>
        <pt x="395" y="952" on="1"/>
        <pt x="395" y="1073" on="0"/>
        <pt x="557" y="1223" on="0"/>
        <pt x="670" y="1223" on="1"/>
        <pt x="786" y="1223" on="0"/>
        <pt x="946" y="1063" on="0"/>
        <pt x="946" y="956" on="1"/>
        <pt x="946" y="870" on="0"/>
        <pt x="877" y="772" on="1"/>
        <pt x="961" y="812" on="0"/>
        <pt x="977" y="815" on="1"/>
        <pt x="999" y="823" on="0"/>
        <pt x="1038" y="823" on="1"/>
        <pt x="1143" y="823" on="0"/>
        <pt x="1211" y="745" on="1"/>
        <pt x="1284" y="669" on="0"/>
        <pt x="1284" y="553" on="1"/>
        <pt x="1284" y="437" on="0"/>
        <pt x="1128" y="272" on="0"/>
        <pt x="1012" y="272" on="1"/>
        <pt x="956" y="272" on="0"/>
        <pt x="838" y="321" on="0"/>
        <pt x="743" y="403" on="0"/>
        <pt x="682" y="508" on="1"/>
        <pt x="687" y="382" on="0"/>
        <pt x="736" y="229" on="0"/>
        <pt x="845" y="109" on="0"/>
        <pt x="972" y="56" on="0"/>
        <pt x="1086" y="35" on="1"/>
      </contour>
    </TTGlyph>
    <TTGlyph name="colon" xMin="162" yMin="-29" xMax="403" yMax="961">
      <contour>
        <pt x="403" y="92" on="1"/>
        <pt x="403" y="43" on="0"/>
        <pt x="334" y="-29" on="0"/>
        <pt x="283" y="-29" on="1"/>
        <pt x="231" y="-29" on="0"/>
        <pt x="162" y="43" on="0"/>
        <pt x="162" y="92" on="1"/>
        <pt x="162" y="143" on="0"/>
        <pt x="232" y="213" on="0"/>
        <pt x="283" y="213" on="1"/>
        <pt x="333" y="213" on="0"/>
        <pt x="403" y="144" on="0"/>
      </contour>
      <contour>
        <pt x="403" y="840" on="1"/>
        <pt x="403" y="789" on="0"/>
        <pt x="333" y="719" on="0"/>
        <pt x="283" y="719" on="1"/>
        <pt x="232" y="719" on="0"/>
        <pt x="162" y="789" on="0"/>
        <pt x="162" y="840" on="1"/>
        <pt x="162" y="889" on="0"/>
        <pt x="231" y="961" on="0"/>
        <pt x="283" y="961" on="1"/>
        <pt x="334" y="961" on="0"/>
        <pt x="403" y="889" on="0"/>
      </contour>
    </TTGlyph>
    <TTGlyph name="comma" xMin="78" yMin="-315" xMax="383" yMax="211">
      <contour>
        <pt x="383" y="49" on="1"/>
        <pt x="383" y="-88" on="0"/>
        <pt x="224" y="-273" on="0"/>
        <pt x="78" y="-315" on="1"/>
        <pt x="78" y="-238" on="1"/>
        <pt x="254" y="-182" on="0"/>
        <pt x="254" y="-70" on="1"/>
        <pt x="254" y="-50" on="0"/>
        <pt x="224" y="-18" on="0"/>
        <pt x="187" y="1" on="1"/>
        <pt x="119" y="36" on="0"/>
        <pt x="119" y="100" on="1"/>
        <pt x="119" y="154" on="0"/>
        <pt x="187" y="211" on="0"/>
        <pt x="240" y="211" on="1"/>
        <pt x="304" y="211" on="0"/>
        <pt x="383" y="119" on="0"/>
      </contour>
    </TTGlyph>
    <TTGlyph name="commaaccentrotate" xMin="50" yMin="1120" xMax="274" yMax="1487">
      <contour>
        <pt x="50" y="1255" on="1"/>
        <pt x="50" y="1343" on="0"/>
        <pt x="150" y="1450" on="0"/>
        <pt x="274" y="1487" on="1"/>
        <pt x="274" y="1424" on="1"/>
        <pt x="154" y="1388" on="0"/>
        <pt x="154" y="1335" on="1"/>
        <pt x="154" y="1312" on="0"/>
        <pt x="188" y="1290" on="0"/>
        <pt x="230" y="1269" on="0"/>
        <pt x="264" y="1236" on="0"/>
        <pt x="264" y="1202" on="1"/>
        <pt x="264" y="1164" on="0"/>
        <pt x="209" y="1120" on="0"/>
        <pt x="166" y="1120" on="1"/>
        <pt x="115" y="1120" on="0"/>
        <pt x="50" y="1197" on="0"/>
      </contour>
    </TTGlyph>
    <TTGlyph name="copyright" xMin="88" yMin="-20" xMax="1470" yMax="1362">
      <contour>
        <pt x="88" y="670" on="1"/>
        <pt x="88" y="859" on="0"/>
        <pt x="275" y="1180" on="0"/>
        <pt x="592" y="1362" on="0"/>
        <pt x="778" y="1362" on="1"/>
        <pt x="965" y="1362" on="0"/>
        <pt x="1285" y="1178" on="0"/>
        <pt x="1470" y="859" on="0"/>
        <pt x="1470" y="670" on="1"/>
        <pt x="1470" y="485" on="0"/>
        <pt x="1289" y="168" on="0"/>
        <pt x="968" y="-20" on="0"/>
        <pt x="778" y="-20" on="1"/>
        <pt x="592" y="-20" on="0"/>
        <pt x="272" y="164" on="0"/>
        <pt x="88" y="484" on="0"/>
      </contour>
      <contour>
        <pt x="158" y="670" on="1"/>
        <pt x="158" y="503" on="0"/>
        <pt x="325" y="214" on="0"/>
        <pt x="612" y="49" on="0"/>
        <pt x="778" y="49" on="1"/>
        <pt x="945" y="49" on="0"/>
        <pt x="1233" y="214" on="0"/>
        <pt x="1401" y="502" on="0"/>
        <pt x="1401" y="670" on="1"/>
        <pt x="1401" y="838" on="0"/>
        <pt x="1231" y="1128" on="0"/>
        <pt x="945" y="1292" on="0"/>
        <pt x="778" y="1292" on="1"/>
        <pt x="611" y="1292" on="0"/>
        <pt x="323" y="1125" on="0"/>
        <pt x="158" y="836" on="0"/>
      </contour>
      <contour>
        <pt x="795" y="258" on="1"/>
        <pt x="600" y="258" on="0"/>
        <pt x="379" y="471" on="0"/>
        <pt x="379" y="664" on="1"/>
        <pt x="379" y="873" on="0"/>
        <pt x="590" y="1085" on="0"/>
        <pt x="797" y="1085" on="1"/>
        <pt x="912" y="1085" on="0"/>
        <pt x="1065" y="1055" on="1"/>
        <pt x="1069" y="868" on="1"/>
        <pt x="1020" y="868" on="1"/>
        <pt x="1001" y="973" on="1"/>
        <pt x="919" y="1024" on="0"/>
        <pt x="801" y="1024" on="1"/>
        <pt x="654" y="1024" on="0"/>
        <pt x="526" y="854" on="0"/>
        <pt x="526" y="666" on="1"/>
        <pt x="526" y="317" on="0"/>
        <pt x="795" y="317" on="1"/>
        <pt x="936" y="317" on="0"/>
        <pt x="1010" y="377" on="1"/>
        <pt x="1032" y="496" on="1"/>
        <pt x="1081" y="496" on="1"/>
        <pt x="1077" y="297" on="1"/>
        <pt x="953" y="258" on="0"/>
      </contour>
    </TTGlyph>
    <TTGlyph name="currency" xMin="96" yMin="260" xMax="930" yMax="1094">
      <contour>
        <pt x="123" y="676" on="1"/>
        <pt x="123" y="810" on="0"/>
        <pt x="203" y="913" on="1"/>
        <pt x="96" y="1020" on="1"/>
        <pt x="170" y="1094" on="1"/>
        <pt x="274" y="985" on="1"/>
        <pt x="382" y="1067" on="0"/>
        <pt x="512" y="1067" on="1"/>
        <pt x="642" y="1067" on="0"/>
        <pt x="750" y="985" on="1"/>
        <pt x="858" y="1094" on="1"/>
        <pt x="930" y="1022" on="1"/>
        <pt x="821" y="913" on="1"/>
        <pt x="903" y="803" on="0"/>
        <pt x="903" y="676" on="1"/>
        <pt x="903" y="546" on="0"/>
        <pt x="821" y="438" on="1"/>
        <pt x="930" y="332" on="1"/>
        <pt x="858" y="260" on="1"/>
        <pt x="750" y="367" on="1"/>
        <pt x="647" y="287" on="0"/>
        <pt x="512" y="287" on="1"/>
        <pt x="379" y="287" on="0"/>
        <pt x="274" y="367" on="1"/>
        <pt x="168" y="260" on="1"/>
        <pt x="96" y="332" on="1"/>
        <pt x="203" y="438" on="1"/>
        <pt x="123" y="543" on="0"/>
      </contour>
      <contour>
        <pt x="219" y="676" on="1"/>
        <pt x="219" y="599" on="0"/>
        <pt x="298" y="463" on="0"/>
        <pt x="434" y="383" on="0"/>
        <pt x="512" y="383" on="1"/>
        <pt x="632" y="383" on="0"/>
        <pt x="807" y="555" on="0"/>
        <pt x="807" y="676" on="1"/>
        <pt x="807" y="797" on="0"/>
        <pt x="633" y="971" on="0"/>
        <pt x="512" y="971" on="1"/>
        <pt x="435" y="971" on="0"/>
        <pt x="300" y="893" on="0"/>
        <pt x="219" y="755" on="0"/>
      </contour>
    </TTGlyph>
    <TTGlyph name="cyrillic_otmark" xMin="-450" yMin="1132" xMax="450" yMax="1341">
      <contour>
        <pt x="450" y="1304" on="1"/>
        <pt x="366" y="1132" on="1"/>
        <pt x="312" y="1132" on="1"/>
        <pt x="263" y="1242" on="1"/>
        <pt x="76" y="1242" on="1"/>
        <pt x="27" y="1132" on="1"/>
        <pt x="-27" y="1132" on="1"/>
        <pt x="-76" y="1242" on="1"/>
        <pt x="-263" y="1242" on="1"/>
        <pt x="-312" y="1132" on="1"/>
        <pt x="-366" y="1132" on="1"/>
        <pt x="-450" y="1304" on="1"/>
        <pt x="-450" y="1341" on="1"/>
        <pt x="450" y="1341" on="1"/>
      </contour>
    </TTGlyph>
    <TTGlyph name="cyrillicbreve" xMin="-27" yMin="1122" xMax="707" yMax="1402">
      <contour>
        <pt x="340" y="1122" on="1"/>
        <pt x="157" y="1122" on="0"/>
        <pt x="-22" y="1254" on="0"/>
        <pt x="-27" y="1402" on="1"/>
        <pt x="137" y="1402" on="1"/>
        <pt x="143" y="1299" on="0"/>
        <pt x="247" y="1193" on="0"/>
        <pt x="340" y="1193" on="1"/>
        <pt x="433" y="1193" on="0"/>
        <pt x="537" y="1299" on="0"/>
        <pt x="543" y="1402" on="1"/>
        <pt x="707" y="1402" on="1"/>
        <pt x="702" y="1253" on="0"/>
        <pt x="523" y="1122" on="0"/>
      </contour>
    </TTGlyph>
    <TTGlyph name="d" xMin="74" yMin="-20" xMax="999" yMax="1421">
      <contour>
        <pt x="723" y="70" on="1"/>
        <pt x="610" y="-20" on="0"/>
        <pt x="459" y="-20" on="1"/>
        <pt x="74" y="-20" on="0"/>
        <pt x="74" y="461" on="1"/>
        <pt x="74" y="708" on="0"/>
        <pt x="292" y="965" on="0"/>
        <pt x="504" y="965" on="1"/>
        <pt x="612" y="965" on="0"/>
        <pt x="723" y="942" on="1"/>
        <pt x="717" y="975" on="0"/>
        <pt x="717" y="1108" on="1"/>
        <pt x="717" y="1352" on="1"/>
        <pt x="559" y="1376" on="1"/>
        <pt x="559" y="1421" on="1"/>
        <pt x="883" y="1421" on="1"/>
        <pt x="883" y="70" on="1"/>
        <pt x="999" y="45" on="1"/>
        <pt x="999" y="0" on="1"/>
        <pt x="735" y="0" on="1"/>
      </contour>
      <contour>
        <pt x="254" y="461" on="1"/>
        <pt x="254" y="271" on="0"/>
        <pt x="382" y="84" on="0"/>
        <pt x="514" y="84" on="1"/>
        <pt x="627" y="84" on="0"/>
        <pt x="717" y="123" on="1"/>
        <pt x="717" y="866" on="1"/>
        <pt x="628" y="883" on="0"/>
        <pt x="514" y="883" on="1"/>
        <pt x="254" y="883" on="0"/>
      </contour>
    </TTGlyph>
    <TTGlyph name="dagesh" xMin="-80" yMin="625" xMax="80" yMax="782">
      <contour>
        <pt x="-80" y="702" on="1"/>
        <pt x="-80" y="737" on="0"/>
        <pt x="-32" y="782" on="0"/>
        <pt x="0" y="782" on="1"/>
        <pt x="32" y="782" on="0"/>
        <pt x="80" y="737" on="0"/>
        <pt x="80" y="702" on="1"/>
        <pt x="80" y="670" on="0"/>
        <pt x="32" y="625" on="0"/>
        <pt x="0" y="625" on="1"/>
        <pt x="-32" y="625" on="0"/>
        <pt x="-80" y="670" on="0"/>
      </contour>
    </TTGlyph>
    <TTGlyph name="dagger" xMin="63" yMin="-240" xMax="961" yMax="1421">
      <contour>
        <pt x="612" y="780" on="1"/>
        <pt x="535" y="-240" on="1"/>
        <pt x="489" y="-240" on="1"/>
        <pt x="416" y="780" on="1"/>
        <pt x="479" y="940" on="1"/>
        <pt x="63" y="893" on="1"/>
        <pt x="63" y="1049" on="1"/>
        <pt x="479" y="1006" on="1"/>
        <pt x="436" y="1421" on="1"/>
        <pt x="592" y="1421" on="1"/>
        <pt x="545" y="1006" on="1"/>
        <pt x="961" y="1049" on="1"/>
        <pt x="961" y="893" on="1"/>
        <pt x="545" y="940" on="1"/>
      </contour>
    </TTGlyph>
    <TTGlyph name="daggerdbl" xMin="63" yMin="-240" xMax="961" yMax="1421">
      <contour>
        <pt x="416" y="401" on="1"/>
        <pt x="489" y="590" on="1"/>
        <pt x="416" y="780" on="1"/>
        <pt x="479" y="940" on="1"/>
        <pt x="63" y="893" on="1"/>
        <pt x="63" y="1049" on="1"/>
        <pt x="479" y="1006" on="1"/>
        <pt x="436" y="1421" on="1"/>
        <pt x="592" y="1421" on="1"/>
        <pt x="545" y="1006" on="1"/>
        <pt x="961" y="1049" on="1"/>
        <pt x="961" y="893" on="1"/>
        <pt x="545" y="940" on="1"/>
        <pt x="612" y="780" on="1"/>
        <pt x="535" y="590" on="1"/>
        <pt x="612" y="401" on="1"/>
        <pt x="545" y="242" on="1"/>
        <pt x="961" y="289" on="1"/>
        <pt x="961" y="133" on="1"/>
        <pt x="545" y="176" on="1"/>
        <pt x="592" y="-240" on="1"/>
        <pt x="436" y="-240" on="1"/>
        <pt x="479" y="176" on="1"/>
        <pt x="63" y="133" on="1"/>
        <pt x="63" y="289" on="1"/>
        <pt x="479" y="242" on="1"/>
      </contour>
    </TTGlyph>
    <TTGlyph name="dalet" xMin="25" yMin="-25" xMax="889" yMax="1204">
      <contour>
        <pt x="889" y="985" on="1"/>
        <pt x="889" y="971" on="0"/>
        <pt x="885" y="960" on="0"/>
        <pt x="877" y="958" on="1"/>
        <pt x="774" y="934" on="0"/>
        <pt x="774" y="762" on="1"/>
        <pt x="774" y="678" on="0"/>
        <pt x="789" y="486" on="1"/>
        <pt x="803" y="294" on="0"/>
        <pt x="803" y="152" on="1"/>
        <pt x="803" y="124" on="0"/>
        <pt x="794" y="87" on="0"/>
        <pt x="766" y="47" on="0"/>
        <pt x="660" y="-25" on="0"/>
        <pt x="649" y="-25" on="1"/>
        <pt x="631" y="-25" on="0"/>
        <pt x="631" y="-4" on="1"/>
        <pt x="634" y="8" on="1"/>
        <pt x="659" y="79" on="0"/>
        <pt x="659" y="246" on="1"/>
        <pt x="656" y="480" on="1"/>
        <pt x="653" y="657" on="1"/>
        <pt x="653" y="754" on="0"/>
        <pt x="702" y="886" on="0"/>
        <pt x="760" y="952" on="1"/>
        <pt x="121" y="952" on="1"/>
        <pt x="70" y="952" on="0"/>
        <pt x="25" y="1021" on="0"/>
        <pt x="25" y="1075" on="1"/>
        <pt x="25" y="1106" on="0"/>
        <pt x="46" y="1166" on="0"/>
        <pt x="77" y="1204" on="0"/>
        <pt x="90" y="1204" on="1"/>
        <pt x="102" y="1204" on="0"/>
        <pt x="102" y="1188" on="1"/>
        <pt x="100" y="1165" on="1"/>
        <pt x="100" y="1133" on="0"/>
        <pt x="145" y="1133" on="1"/>
        <pt x="815" y="1133" on="1"/>
        <pt x="842" y="1133" on="0"/>
        <pt x="874" y="1118" on="0"/>
        <pt x="889" y="1093" on="0"/>
        <pt x="889" y="1063" on="1"/>
      </contour>
    </TTGlyph>
    <TTGlyph name="daletdagesh" xMin="25" yMin="-25" xMax="889" yMax="1204">
      <component glyphName="dalet" x="0" y="0" flags="0x204"/>
      <component glyphName="dagesh" x="383" y="-155" flags="0x4"/>
    </TTGlyph>
    <TTGlyph name="daletwide" xMin="25" yMin="-25" xMax="889" yMax="1204">
      <component glyphName="dalet" x="0" y="0" flags="0x204"/>
    </TTGlyph>
    <TTGlyph name="dcaron" xMin="74" yMin="-20" xMax="1288" yMax="1422">
      <component glyphName="d" x="0" y="0" flags="0x4"/>
      <component glyphName="caroncommaaccent" x="932" y="81" flags="0x4"/>
    </TTGlyph>
    <TTGlyph name="degree" xMin="98" yMin="741" xMax="719" yMax="1362">
      <contour>
        <pt x="98" y="1051" on="1"/>
        <pt x="98" y="1134" on="0"/>
        <pt x="180" y="1278" on="0"/>
        <pt x="325" y="1362" on="0"/>
        <pt x="408" y="1362" on="1"/>
        <pt x="491" y="1362" on="0"/>
        <pt x="635" y="1279" on="0"/>
        <pt x="719" y="1135" on="0"/>
        <pt x="719" y="1051" on="1"/>
        <pt x="719" y="967" on="0"/>
        <pt x="634" y="822" on="0"/>
        <pt x="490" y="741" on="0"/>
        <pt x="408" y="741" on="1"/>
        <pt x="278" y="741" on="0"/>
        <pt x="98" y="921" on="0"/>
      </contour>
      <contour>
        <pt x="200" y="1051" on="1"/>
        <pt x="200" y="962" on="0"/>
        <pt x="323" y="841" on="0"/>
        <pt x="408" y="841" on="1"/>
        <pt x="496" y="841" on="0"/>
        <pt x="617" y="963" on="0"/>
        <pt x="617" y="1051" on="1"/>
        <pt x="617" y="1140" on="0"/>
        <pt x="496" y="1262" on="0"/>
        <pt x="408" y="1262" on="1"/>
        <pt x="323" y="1262" on="0"/>
        <pt x="200" y="1141" on="0"/>
      </contour>
    </TTGlyph>
    <TTGlyph name="delta" xMin="77" yMin="-20" xMax="888" yMax="1431">
      <contour>
        <pt x="251" y="1188" on="1"/>
        <pt x="251" y="1300" on="0"/>
        <pt x="421" y="1431" on="0"/>
        <pt x="564" y="1431" on="1"/>
        <pt x="661" y="1431" on="0"/>
        <pt x="810" y="1400" on="1"/>
        <pt x="810" y="1195" on="1"/>
        <pt x="763" y="1195" on="1"/>
        <pt x="721" y="1304" on="1"/>
        <pt x="668" y="1351" on="0"/>
        <pt x="566" y="1351" on="1"/>
        <pt x="485" y="1351" on="0"/>
        <pt x="400" y="1271" on="0"/>
        <pt x="400" y="1203" on="1"/>
        <pt x="400" y="1148" on="0"/>
        <pt x="485" y="1033" on="0"/>
        <pt x="631" y="915" on="1"/>
        <pt x="773" y="798" on="0"/>
        <pt x="888" y="585" on="0"/>
        <pt x="888" y="450" on="1"/>
        <pt x="888" y="229" on="0"/>
        <pt x="679" y="-20" on="0"/>
        <pt x="486" y="-20" on="1"/>
        <pt x="290" y="-20" on="0"/>
        <pt x="77" y="196" on="0"/>
        <pt x="77" y="399" on="1"/>
        <pt x="77" y="583" on="0"/>
        <pt x="267" y="827" on="0"/>
        <pt x="444" y="873" on="1"/>
        <pt x="335" y="969" on="0"/>
        <pt x="251" y="1112" on="0"/>
      </contour>
      <contour>
        <pt x="249" y="391" on="1"/>
        <pt x="249" y="231" on="0"/>
        <pt x="373" y="59" on="0"/>
        <pt x="487" y="59" on="1"/>
        <pt x="596" y="59" on="0"/>
        <pt x="714" y="238" on="0"/>
        <pt x="714" y="422" on="1"/>
        <pt x="714" y="540" on="0"/>
        <pt x="628" y="717" on="0"/>
        <pt x="529" y="801" on="1"/>
        <pt x="504" y="821" on="1"/>
        <pt x="366" y="773" on="0"/>
        <pt x="249" y="560" on="0"/>
      </contour>
    </TTGlyph>
    <TTGlyph name="diamond" xMin="66" yMin="-25" xMax="978" yMax="1223">
      <contour>
        <pt x="519" y="1223" on="1"/>
        <pt x="591" y="1098" on="0"/>
        <pt x="856" y="737" on="0"/>
        <pt x="978" y="600" on="1"/>
        <pt x="910" y="530" on="0"/>
        <pt x="604" y="123" on="0"/>
        <pt x="521" y="-25" on="1"/>
        <pt x="484" y="46" on="0"/>
        <pt x="299" y="307" on="0"/>
        <pt x="151" y="498" on="0"/>
        <pt x="66" y="600" on="1"/>
        <pt x="182" y="737" on="0"/>
        <pt x="441" y="1082" on="0"/>
      </contour>
    </TTGlyph>
    <TTGlyph name="dieresis" xMin="63" yMin="1093" xMax="618" yMax="1294">
      <contour>
        <pt x="618" y="1194" on="1"/>
        <pt x="618" y="1152" on="0"/>
        <pt x="562" y="1093" on="0"/>
        <pt x="520" y="1093" on="1"/>
        <pt x="478" y="1093" on="0"/>
        <pt x="420" y="1155" on="0"/>
        <pt x="420" y="1194" on="1"/>
        <pt x="420" y="1236" on="0"/>
        <pt x="478" y="1294" on="0"/>
        <pt x="520" y="1294" on="1"/>
        <pt x="562" y="1294" on="0"/>
        <pt x="618" y="1236" on="0"/>
      </contour>
      <contour>
        <pt x="262" y="1194" on="1"/>
        <pt x="262" y="1152" on="0"/>
        <pt x="206" y="1093" on="0"/>
        <pt x="164" y="1093" on="1"/>
        <pt x="123" y="1093" on="0"/>
        <pt x="63" y="1153" on="0"/>
        <pt x="63" y="1194" on="1"/>
        <pt x="63" y="1236" on="0"/>
        <pt x="125" y="1294" on="0"/>
        <pt x="164" y="1294" on="1"/>
        <pt x="206" y="1294" on="0"/>
        <pt x="262" y="1236" on="0"/>
      </contour>
    </TTGlyph>
    <TTGlyph name="dieresistonos" xMin="51" yMin="1119" xMax="630" yMax="1474">
      <contour>
        <pt x="265" y="1119" on="1"/>
        <pt x="265" y="1152" on="1"/>
        <pt x="314" y="1474" on="1"/>
        <pt x="501" y="1474" on="1"/>
        <pt x="501" y="1437" on="1"/>
        <pt x="320" y="1119" on="1"/>
      </contour>
      <contour>
        <pt x="630" y="1212" on="1"/>
        <pt x="630" y="1174" on="0"/>
        <pt x="580" y="1121" on="0"/>
        <pt x="542" y="1121" on="1"/>
        <pt x="505" y="1121" on="0"/>
        <pt x="452" y="1174" on="0"/>
        <pt x="452" y="1212" on="1"/>
        <pt x="452" y="1250" on="0"/>
        <pt x="505" y="1302" on="0"/>
        <pt x="542" y="1302" on="1"/>
        <pt x="580" y="1302" on="0"/>
        <pt x="630" y="1250" on="0"/>
      </contour>
      <contour>
        <pt x="230" y="1212" on="1"/>
        <pt x="230" y="1174" on="0"/>
        <pt x="179" y="1121" on="0"/>
        <pt x="142" y="1121" on="1"/>
        <pt x="104" y="1121" on="0"/>
        <pt x="51" y="1174" on="0"/>
        <pt x="51" y="1212" on="1"/>
        <pt x="51" y="1250" on="0"/>
        <pt x="104" y="1302" on="0"/>
        <pt x="142" y="1302" on="1"/>
        <pt x="179" y="1302" on="0"/>
        <pt x="230" y="1250" on="0"/>
      </contour>
    </TTGlyph>
    <TTGlyph name="divide" xMin="85" yMin="201" xMax="1038" yMax="1159">
      <contour>
        <pt x="657" y="1063" on="1"/>
        <pt x="657" y="1023" on="0"/>
        <pt x="601" y="967" on="0"/>
        <pt x="561" y="967" on="1"/>
        <pt x="520" y="967" on="0"/>
        <pt x="464" y="1023" on="0"/>
        <pt x="464" y="1063" on="1"/>
        <pt x="464" y="1103" on="0"/>
        <pt x="520" y="1159" on="0"/>
        <pt x="561" y="1159" on="1"/>
        <pt x="601" y="1159" on="0"/>
        <pt x="657" y="1103" on="0"/>
      </contour>
      <contour>
        <pt x="657" y="297" on="1"/>
        <pt x="657" y="257" on="0"/>
        <pt x="601" y="201" on="0"/>
        <pt x="561" y="201" on="1"/>
        <pt x="520" y="201" on="0"/>
        <pt x="464" y="257" on="0"/>
        <pt x="464" y="297" on="1"/>
        <pt x="464" y="337" on="0"/>
        <pt x="520" y="393" on="0"/>
        <pt x="561" y="393" on="1"/>
        <pt x="601" y="393" on="0"/>
        <pt x="657" y="337" on="0"/>
      </contour>
      <contour>
        <pt x="1038" y="731" on="1"/>
        <pt x="1038" y="629" on="1"/>
        <pt x="85" y="629" on="1"/>
        <pt x="85" y="731" on="1"/>
      </contour>
    </TTGlyph>
    <TTGlyph name="dkshade" xMin="0" yMin="-621" xMax="1493" yMax="1699">
      <contour>
        <pt x="1493" y="-621" on="1"/>
        <pt x="0" y="-621" on="1"/>
        <pt x="0" y="-331" on="1"/>
        <pt x="106" y="-331" on="1"/>
        <pt x="106" y="-234" on="1"/>
        <pt x="0" y="-234" on="1"/>
        <pt x="0" y="56" on="1"/>
        <pt x="106" y="56" on="1"/>
        <pt x="106" y="153" on="1"/>
        <pt x="0" y="153" on="1"/>
        <pt x="0" y="444" on="1"/>
        <pt x="106" y="444" on="1"/>
        <pt x="106" y="540" on="1"/>
        <pt x="0" y="540" on="1"/>
        <pt x="0" y="829" on="1"/>
        <pt x="106" y="829" on="1"/>
        <pt x="106" y="927" on="1"/>
        <pt x="0" y="927" on="1"/>
        <pt x="0" y="1216" on="1"/>
        <pt x="106" y="1216" on="1"/>
        <pt x="106" y="1314" on="1"/>
        <pt x="0" y="1314" on="1"/>
        <pt x="0" y="1603" on="1"/>
        <pt x="106" y="1603" on="1"/>
        <pt x="106" y="1699" on="1"/>
        <pt x="213" y="1699" on="1"/>
        <pt x="213" y="1603" on="1"/>
        <pt x="319" y="1603" on="1"/>
        <pt x="319" y="1699" on="1"/>
        <pt x="426" y="1699" on="1"/>
        <pt x="426" y="1603" on="1"/>
        <pt x="532" y="1603" on="1"/>
        <pt x="532" y="1699" on="1"/>
        <pt x="639" y="1699" on="1"/>
        <pt x="639" y="1603" on="1"/>
        <pt x="746" y="1603" on="1"/>
        <pt x="746" y="1699" on="1"/>
        <pt x="853" y="1699" on="1"/>
        <pt x="853" y="1603" on="1"/>
        <pt x="960" y="1603" on="1"/>
        <pt x="960" y="1699" on="1"/>
        <pt x="1067" y="1699" on="1"/>
        <pt x="1067" y="1603" on="1"/>
        <pt x="1173" y="1603" on="1"/>
        <pt x="1173" y="1699" on="1"/>
        <pt x="1280" y="1699" on="1"/>
        <pt x="1280" y="1603" on="1"/>
        <pt x="1386" y="1603" on="1"/>
        <pt x="1386" y="1699" on="1"/>
        <pt x="1493" y="1699" on="1"/>
        <pt x="1493" y="1506" on="1"/>
        <pt x="1386" y="1506" on="1"/>
        <pt x="1386" y="1408" on="1"/>
        <pt x="1493" y="1408" on="1"/>
        <pt x="1493" y="1119" on="1"/>
        <pt x="1386" y="1119" on="1"/>
        <pt x="1386" y="1023" on="1"/>
        <pt x="1493" y="1023" on="1"/>
        <pt x="1493" y="732" on="1"/>
        <pt x="1386" y="732" on="1"/>
        <pt x="1386" y="636" on="1"/>
        <pt x="1493" y="636" on="1"/>
        <pt x="1493" y="345" on="1"/>
        <pt x="1386" y="345" on="1"/>
        <pt x="1386" y="249" on="1"/>
        <pt x="1493" y="249" on="1"/>
        <pt x="1493" y="-42" on="1"/>
        <pt x="1386" y="-42" on="1"/>
        <pt x="1386" y="-136" on="1"/>
        <pt x="1493" y="-136" on="1"/>
        <pt x="1493" y="-427" on="1"/>
        <pt x="1386" y="-427" on="1"/>
        <pt x="1386" y="-523" on="1"/>
        <pt x="1493" y="-523" on="1"/>
      </contour>
      <contour>
        <pt x="106" y="1119" on="1"/>
        <pt x="106" y="1023" on="1"/>
        <pt x="213" y="1023" on="1"/>
        <pt x="213" y="1119" on="1"/>
      </contour>
      <contour>
        <pt x="319" y="1119" on="1"/>
        <pt x="319" y="1023" on="1"/>
        <pt x="426" y="1023" on="1"/>
        <pt x="426" y="1119" on="1"/>
      </contour>
      <contour>
        <pt x="532" y="1119" on="1"/>
        <pt x="532" y="1023" on="1"/>
        <pt x="639" y="1023" on="1"/>
        <pt x="639" y="1119" on="1"/>
      </contour>
      <contour>
        <pt x="746" y="1119" on="1"/>
        <pt x="746" y="1023" on="1"/>
        <pt x="853" y="1023" on="1"/>
        <pt x="853" y="1119" on="1"/>
      </contour>
      <contour>
        <pt x="960" y="927" on="1"/>
        <pt x="853" y="927" on="1"/>
        <pt x="853" y="829" on="1"/>
        <pt x="960" y="829" on="1"/>
      </contour>
      <contour>
        <pt x="746" y="927" on="1"/>
        <pt x="639" y="927" on="1"/>
        <pt x="639" y="829" on="1"/>
        <pt x="746" y="829" on="1"/>
      </contour>
      <contour>
        <pt x="532" y="927" on="1"/>
        <pt x="426" y="927" on="1"/>
        <pt x="426" y="829" on="1"/>
        <pt x="532" y="829" on="1"/>
      </contour>
      <contour>
        <pt x="319" y="927" on="1"/>
        <pt x="213" y="927" on="1"/>
        <pt x="213" y="829" on="1"/>
        <pt x="319" y="829" on="1"/>
      </contour>
      <contour>
        <pt x="106" y="732" on="1"/>
        <pt x="106" y="636" on="1"/>
        <pt x="213" y="636" on="1"/>
        <pt x="213" y="732" on="1"/>
      </contour>
      <contour>
        <pt x="319" y="732" on="1"/>
        <pt x="319" y="636" on="1"/>
        <pt x="426" y="636" on="1"/>
        <pt x="426" y="732" on="1"/>
      </contour>
      <contour>
        <pt x="532" y="732" on="1"/>
        <pt x="532" y="636" on="1"/>
        <pt x="639" y="636" on="1"/>
        <pt x="639" y="732" on="1"/>
      </contour>
      <contour>
        <pt x="746" y="732" on="1"/>
        <pt x="746" y="636" on="1"/>
        <pt x="853" y="636" on="1"/>
        <pt x="853" y="732" on="1"/>
      </contour>
      <contour>
        <pt x="319" y="540" on="1"/>
        <pt x="213" y="540" on="1"/>
        <pt x="213" y="444" on="1"/>
        <pt x="319" y="444" on="1"/>
      </contour>
      <contour>
        <pt x="426" y="540" on="1"/>
        <pt x="426" y="444" on="1"/>
        <pt x="532" y="444" on="1"/>
        <pt x="532" y="540" on="1"/>
      </contour>
      <contour>
        <pt x="639" y="540" on="1"/>
        <pt x="639" y="444" on="1"/>
        <pt x="746" y="444" on="1"/>
        <pt x="746" y="540" on="1"/>
      </contour>
      <contour>
        <pt x="853" y="540" on="1"/>
        <pt x="853" y="444" on="1"/>
        <pt x="960" y="444" on="1"/>
        <pt x="960" y="540" on="1"/>
      </contour>
      <contour>
        <pt x="106" y="345" on="1"/>
        <pt x="106" y="249" on="1"/>
        <pt x="213" y="249" on="1"/>
        <pt x="213" y="345" on="1"/>
      </contour>
      <contour>
        <pt x="532" y="345" on="1"/>
        <pt x="532" y="249" on="1"/>
        <pt x="639" y="249" on="1"/>
        <pt x="639" y="345" on="1"/>
      </contour>
      <contour>
        <pt x="426" y="249" on="1"/>
        <pt x="426" y="345" on="1"/>
        <pt x="319" y="345" on="1"/>
        <pt x="319" y="249" on="1"/>
      </contour>
      <contour>
        <pt x="746" y="345" on="1"/>
        <pt x="746" y="249" on="1"/>
        <pt x="853" y="249" on="1"/>
        <pt x="853" y="345" on="1"/>
      </contour>
      <contour>
        <pt x="960" y="56" on="1"/>
        <pt x="960" y="153" on="1"/>
        <pt x="853" y="153" on="1"/>
        <pt x="853" y="56" on="1"/>
      </contour>
      <contour>
        <pt x="746" y="56" on="1"/>
        <pt x="746" y="153" on="1"/>
        <pt x="639" y="153" on="1"/>
        <pt x="639" y="56" on="1"/>
      </contour>
      <contour>
        <pt x="532" y="56" on="1"/>
        <pt x="532" y="153" on="1"/>
        <pt x="426" y="153" on="1"/>
        <pt x="426" y="56" on="1"/>
      </contour>
      <contour>
        <pt x="319" y="56" on="1"/>
        <pt x="319" y="153" on="1"/>
        <pt x="213" y="153" on="1"/>
        <pt x="213" y="56" on="1"/>
      </contour>
      <contour>
        <pt x="106" y="-42" on="1"/>
        <pt x="106" y="-136" on="1"/>
        <pt x="213" y="-136" on="1"/>
        <pt x="213" y="-42" on="1"/>
      </contour>
      <contour>
        <pt x="319" y="-42" on="1"/>
        <pt x="319" y="-136" on="1"/>
        <pt x="426" y="-136" on="1"/>
        <pt x="426" y="-42" on="1"/>
      </contour>
      <contour>
        <pt x="532" y="-42" on="1"/>
        <pt x="532" y="-136" on="1"/>
        <pt x="639" y="-136" on="1"/>
        <pt x="639" y="-42" on="1"/>
      </contour>
      <contour>
        <pt x="746" y="-42" on="1"/>
        <pt x="746" y="-136" on="1"/>
        <pt x="853" y="-136" on="1"/>
        <pt x="853" y="-42" on="1"/>
      </contour>
      <contour>
        <pt x="960" y="-331" on="1"/>
        <pt x="960" y="-234" on="1"/>
        <pt x="853" y="-234" on="1"/>
        <pt x="853" y="-331" on="1"/>
      </contour>
      <contour>
        <pt x="746" y="-331" on="1"/>
        <pt x="746" y="-234" on="1"/>
        <pt x="639" y="-234" on="1"/>
        <pt x="639" y="-331" on="1"/>
      </contour>
      <contour>
        <pt x="532" y="-331" on="1"/>
        <pt x="532" y="-234" on="1"/>
        <pt x="426" y="-234" on="1"/>
        <pt x="426" y="-331" on="1"/>
      </contour>
      <contour>
        <pt x="319" y="-331" on="1"/>
        <pt x="319" y="-234" on="1"/>
        <pt x="213" y="-234" on="1"/>
        <pt x="213" y="-331" on="1"/>
      </contour>
      <contour>
        <pt x="106" y="-427" on="1"/>
        <pt x="106" y="-523" on="1"/>
        <pt x="213" y="-523" on="1"/>
        <pt x="213" y="-427" on="1"/>
      </contour>
      <contour>
        <pt x="319" y="-427" on="1"/>
        <pt x="319" y="-523" on="1"/>
        <pt x="426" y="-523" on="1"/>
        <pt x="426" y="-427" on="1"/>
      </contour>
      <contour>
        <pt x="532" y="-427" on="1"/>
        <pt x="532" y="-523" on="1"/>
        <pt x="639" y="-523" on="1"/>
        <pt x="639" y="-427" on="1"/>
      </contour>
      <contour>
        <pt x="746" y="-427" on="1"/>
        <pt x="746" y="-523" on="1"/>
        <pt x="853" y="-523" on="1"/>
        <pt x="853" y="-427" on="1"/>
      </contour>
      <contour>
        <pt x="960" y="1314" on="1"/>
        <pt x="853" y="1314" on="1"/>
        <pt x="853" y="1216" on="1"/>
        <pt x="960" y="1216" on="1"/>
      </contour>
      <contour>
        <pt x="746" y="1314" on="1"/>
        <pt x="639" y="1314" on="1"/>
        <pt x="639" y="1216" on="1"/>
        <pt x="746" y="1216" on="1"/>
      </contour>
      <contour>
        <pt x="532" y="1314" on="1"/>
        <pt x="426" y="1314" on="1"/>
        <pt x="426" y="1216" on="1"/>
        <pt x="532" y="1216" on="1"/>
      </contour>
      <contour>
        <pt x="319" y="1314" on="1"/>
        <pt x="213" y="1314" on="1"/>
        <pt x="213" y="1216" on="1"/>
        <pt x="319" y="1216" on="1"/>
      </contour>
      <contour>
        <pt x="853" y="1506" on="1"/>
        <pt x="746" y="1506" on="1"/>
        <pt x="746" y="1408" on="1"/>
        <pt x="853" y="1408" on="1"/>
      </contour>
      <contour>
        <pt x="639" y="1506" on="1"/>
        <pt x="532" y="1506" on="1"/>
        <pt x="532" y="1408" on="1"/>
        <pt x="639" y="1408" on="1"/>
      </contour>
      <contour>
        <pt x="426" y="1506" on="1"/>
        <pt x="319" y="1506" on="1"/>
        <pt x="319" y="1408" on="1"/>
        <pt x="426" y="1408" on="1"/>
      </contour>
      <contour>
        <pt x="213" y="1506" on="1"/>
        <pt x="106" y="1506" on="1"/>
        <pt x="106" y="1408" on="1"/>
        <pt x="213" y="1408" on="1"/>
      </contour>
      <contour>
        <pt x="960" y="1119" on="1"/>
        <pt x="960" y="1023" on="1"/>
        <pt x="1067" y="1023" on="1"/>
        <pt x="1067" y="1119" on="1"/>
      </contour>
      <contour>
        <pt x="1173" y="1119" on="1"/>
        <pt x="1173" y="1023" on="1"/>
        <pt x="1280" y="1023" on="1"/>
        <pt x="1280" y="1119" on="1"/>
      </contour>
      <contour>
        <pt x="1386" y="927" on="1"/>
        <pt x="1280" y="927" on="1"/>
        <pt x="1280" y="829" on="1"/>
        <pt x="1386" y="829" on="1"/>
      </contour>
      <contour>
        <pt x="1173" y="927" on="1"/>
        <pt x="1067" y="927" on="1"/>
        <pt x="1067" y="829" on="1"/>
        <pt x="1173" y="829" on="1"/>
      </contour>
      <contour>
        <pt x="960" y="732" on="1"/>
        <pt x="960" y="636" on="1"/>
        <pt x="1067" y="636" on="1"/>
        <pt x="1067" y="732" on="1"/>
      </contour>
      <contour>
        <pt x="1173" y="732" on="1"/>
        <pt x="1173" y="636" on="1"/>
        <pt x="1280" y="636" on="1"/>
        <pt x="1280" y="732" on="1"/>
      </contour>
      <contour>
        <pt x="1173" y="540" on="1"/>
        <pt x="1067" y="540" on="1"/>
        <pt x="1067" y="444" on="1"/>
        <pt x="1173" y="444" on="1"/>
      </contour>
      <contour>
        <pt x="1280" y="540" on="1"/>
        <pt x="1280" y="444" on="1"/>
        <pt x="1386" y="444" on="1"/>
        <pt x="1386" y="540" on="1"/>
      </contour>
      <contour>
        <pt x="960" y="345" on="1"/>
        <pt x="960" y="249" on="1"/>
        <pt x="1067" y="249" on="1"/>
        <pt x="1067" y="345" on="1"/>
      </contour>
      <contour>
        <pt x="1280" y="249" on="1"/>
        <pt x="1280" y="345" on="1"/>
        <pt x="1173" y="345" on="1"/>
        <pt x="1173" y="249" on="1"/>
      </contour>
      <contour>
        <pt x="1386" y="56" on="1"/>
        <pt x="1386" y="153" on="1"/>
        <pt x="1280" y="153" on="1"/>
        <pt x="1280" y="56" on="1"/>
      </contour>
      <contour>
        <pt x="1173" y="56" on="1"/>
        <pt x="1173" y="153" on="1"/>
        <pt x="1067" y="153" on="1"/>
        <pt x="1067" y="56" on="1"/>
      </contour>
      <contour>
        <pt x="960" y="-42" on="1"/>
        <pt x="960" y="-136" on="1"/>
        <pt x="1067" y="-136" on="1"/>
        <pt x="1067" y="-42" on="1"/>
      </contour>
      <contour>
        <pt x="1173" y="-42" on="1"/>
        <pt x="1173" y="-136" on="1"/>
        <pt x="1280" y="-136" on="1"/>
        <pt x="1280" y="-42" on="1"/>
      </contour>
      <contour>
        <pt x="1386" y="-331" on="1"/>
        <pt x="1386" y="-234" on="1"/>
        <pt x="1280" y="-234" on="1"/>
        <pt x="1280" y="-331" on="1"/>
      </contour>
      <contour>
        <pt x="1173" y="-331" on="1"/>
        <pt x="1173" y="-234" on="1"/>
        <pt x="1067" y="-234" on="1"/>
        <pt x="1067" y="-331" on="1"/>
      </contour>
      <contour>
        <pt x="960" y="-427" on="1"/>
        <pt x="960" y="-523" on="1"/>
        <pt x="1067" y="-523" on="1"/>
        <pt x="1067" y="-427" on="1"/>
      </contour>
      <contour>
        <pt x="1173" y="-427" on="1"/>
        <pt x="1173" y="-523" on="1"/>
        <pt x="1280" y="-523" on="1"/>
        <pt x="1280" y="-427" on="1"/>
      </contour>
      <contour>
        <pt x="1386" y="1314" on="1"/>
        <pt x="1280" y="1314" on="1"/>
        <pt x="1280" y="1216" on="1"/>
        <pt x="1386" y="1216" on="1"/>
      </contour>
      <contour>
        <pt x="1173" y="1314" on="1"/>
        <pt x="1067" y="1314" on="1"/>
        <pt x="1067" y="1216" on="1"/>
        <pt x="1173" y="1216" on="1"/>
      </contour>
      <contour>
        <pt x="1280" y="1506" on="1"/>
        <pt x="1173" y="1506" on="1"/>
        <pt x="1173" y="1408" on="1"/>
        <pt x="1280" y="1408" on="1"/>
      </contour>
      <contour>
        <pt x="1067" y="1506" on="1"/>
        <pt x="960" y="1506" on="1"/>
        <pt x="960" y="1408" on="1"/>
        <pt x="1067" y="1408" on="1"/>
      </contour>
    </TTGlyph>
    <TTGlyph name="dnblock" xMin="0" yMin="-621" xMax="1451" yMax="621">
      <contour>
        <pt x="1451" y="-621" on="1"/>
        <pt x="0" y="-621" on="1"/>
        <pt x="0" y="621" on="1"/>
        <pt x="1451" y="621" on="1"/>
      </contour>
    </TTGlyph>
    <TTGlyph name="dollar" xMin="88" yMin="-156" xMax="961" yMax="1483">
      <contour>
        <pt x="481" y="-20" on="1"/>
        <pt x="374" y="-18" on="0"/>
        <pt x="143" y="26" on="0"/>
        <pt x="88" y="51" on="1"/>
        <pt x="88" y="371" on="1"/>
        <pt x="154" y="371" on="1"/>
        <pt x="188" y="180" on="1"/>
        <pt x="219" y="139" on="0"/>
        <pt x="392" y="66" on="0"/>
        <pt x="481" y="61" on="1"/>
        <pt x="481" y="627" on="1"/>
        <pt x="362" y="668" on="0"/>
        <pt x="266" y="715" on="0"/>
        <pt x="190" y="773" on="0"/>
        <pt x="135" y="851" on="0"/>
        <pt x="106" y="952" on="0"/>
        <pt x="106" y="1014" on="1"/>
        <pt x="106" y="1158" on="0"/>
        <pt x="311" y="1340" on="0"/>
        <pt x="481" y="1354" on="1"/>
        <pt x="481" y="1483" on="1"/>
        <pt x="563" y="1483" on="1"/>
        <pt x="563" y="1356" on="1"/>
        <pt x="716" y="1350" on="0"/>
        <pt x="870" y="1313" on="1"/>
        <pt x="870" y="1034" on="1"/>
        <pt x="805" y="1034" on="1"/>
        <pt x="776" y="1198" on="1"/>
        <pt x="746" y="1226" on="0"/>
        <pt x="625" y="1268" on="0"/>
        <pt x="563" y="1272" on="1"/>
        <pt x="563" y="795" on="1"/>
        <pt x="658" y="761" on="1"/>
        <pt x="823" y="700" on="0"/>
        <pt x="961" y="521" on="0"/>
        <pt x="961" y="387" on="1"/>
        <pt x="961" y="212" on="0"/>
        <pt x="746" y="-3" on="0"/>
        <pt x="563" y="-16" on="1"/>
        <pt x="563" y="-156" on="1"/>
        <pt x="481" y="-156" on="1"/>
      </contour>
      <contour>
        <pt x="791" y="330" on="1"/>
        <pt x="791" y="424" on="0"/>
        <pt x="694" y="546" on="0"/>
        <pt x="563" y="596" on="1"/>
        <pt x="563" y="66" on="1"/>
        <pt x="673" y="83" on="0"/>
        <pt x="791" y="215" on="0"/>
      </contour>
      <contour>
        <pt x="274" y="1067" on="1"/>
        <pt x="274" y="1008" on="0"/>
        <pt x="313" y="925" on="0"/>
        <pt x="387" y="864" on="0"/>
        <pt x="481" y="825" on="1"/>
        <pt x="481" y="1268" on="1"/>
        <pt x="381" y="1255" on="0"/>
        <pt x="274" y="1149" on="0"/>
      </contour>
    </TTGlyph>
    <TTGlyph name="dotaccent" xMin="235" yMin="1139" xMax="452" yMax="1356">
      <contour>
        <pt x="452" y="1247" on="1"/>
        <pt x="452" y="1203" on="0"/>
        <pt x="388" y="1139" on="0"/>
        <pt x="343" y="1139" on="1"/>
        <pt x="299" y="1139" on="0"/>
        <pt x="235" y="1203" on="0"/>
        <pt x="235" y="1247" on="1"/>
        <pt x="235" y="1292" on="0"/>
        <pt x="299" y="1356" on="0"/>
        <pt x="343" y="1356" on="1"/>
        <pt x="388" y="1356" on="0"/>
        <pt x="452" y="1292" on="0"/>
      </contour>
    </TTGlyph>
    <TTGlyph name="dotbelow.alt1" xMin="-241" yMin="-311" xMax="-61" yMax="-139">
      <contour>
        <pt x="-241" y="-311" on="1"/>
        <pt x="-241" y="-139" on="1"/>
        <pt x="-61" y="-139" on="1"/>
        <pt x="-61" y="-311" on="1"/>
      </contour>
    </TTGlyph>
    <TTGlyph name="dotbelow.alt10" xMin="-775" yMin="-311" xMax="-595" yMax="-139">
      <component glyphName="dotbelow.alt1" x="-534" y="0" flags="0x4"/>
    </TTGlyph>
    <TTGlyph name="dotbelow.alt11" xMin="-646" yMin="-311" xMax="-466" yMax="-139">
      <component glyphName="dotbelow.alt1" x="-405" y="0" flags="0x4"/>
    </TTGlyph>
    <TTGlyph name="dotbelow.alt12" xMin="-666" yMin="-311" xMax="-486" yMax="-139">
      <component glyphName="dotbelow.alt1" x="-425" y="0" flags="0x4"/>
    </TTGlyph>
    <TTGlyph name="dotbelow.alt13" xMin="-866" yMin="-311" xMax="-686" yMax="-139">
      <component glyphName="dotbelow.alt1" x="-625" y="0" flags="0x4"/>
    </TTGlyph>
    <TTGlyph name="dotbelow.alt14" xMin="-733" yMin="-311" xMax="-553" yMax="-139">
      <component glyphName="dotbelow.alt1" x="-492" y="0" flags="0x4"/>
    </TTGlyph>
    <TTGlyph name="dotbelow.alt15" xMin="-966" yMin="-311" xMax="-786" yMax="-139">
      <component glyphName="dotbelow.alt1" x="-725" y="0" flags="0x4"/>
    </TTGlyph>
    <TTGlyph name="dotbelow.alt2" xMin="-769" yMin="-311" xMax="-589" yMax="-139">
      <component glyphName="dotbelow.alt1" x="-528" y="0" flags="0x4"/>
    </TTGlyph>
    <TTGlyph name="dotbelow.alt3" xMin="-885" yMin="-311" xMax="-705" yMax="-139">
      <component glyphName="dotbelow.alt1" x="-644" y="0" flags="0x4"/>
    </TTGlyph>
    <TTGlyph name="dotbelow.alt4" xMin="-1045" yMin="-311" xMax="-865" yMax="-139">
      <component glyphName="dotbelow.alt1" x="-804" y="0" flags="0x4"/>
    </TTGlyph>
    <TTGlyph name="dotbelow.alt5" xMin="-817" yMin="-311" xMax="-637" yMax="-139">
      <component glyphName="dotbelow.alt1" x="-576" y="0" flags="0x4"/>
    </TTGlyph>
    <TTGlyph name="dotbelow.alt6" xMin="-1114" yMin="-311" xMax="-934" yMax="-139">
      <component glyphName="dotbelow.alt1" x="-873" y="0" flags="0x4"/>
    </TTGlyph>
    <TTGlyph name="dotbelow.alt7" xMin="-659" yMin="-311" xMax="-479" yMax="-139">
      <component glyphName="dotbelow.alt1" x="-418" y="0" flags="0x4"/>
    </TTGlyph>
    <TTGlyph name="dotbelow.alt8" xMin="-380" yMin="-311" xMax="-200" yMax="-139">
      <component glyphName="dotbelow.alt1" x="-139" y="0" flags="0x4"/>
    </TTGlyph>
    <TTGlyph name="dotbelow.alt9" xMin="-310" yMin="-311" xMax="-130" yMax="-139">
      <component glyphName="dotbelow.alt1" x="-69" y="0" flags="0x4"/>
    </TTGlyph>
    <TTGlyph name="dotbelowcomb" xMin="-109" yMin="-339" xMax="108" yMax="-122">
      <contour>
        <pt x="108" y="-231" on="1"/>
        <pt x="108" y="-275" on="0"/>
        <pt x="44" y="-339" on="0"/>
        <pt x="-1" y="-339" on="1"/>
        <pt x="-45" y="-339" on="0"/>
        <pt x="-109" y="-275" on="0"/>
        <pt x="-109" y="-231" on="1"/>
        <pt x="-109" y="-186" on="0"/>
        <pt x="-45" y="-122" on="0"/>
        <pt x="-1" y="-122" on="1"/>
        <pt x="44" y="-122" on="0"/>
        <pt x="108" y="-186" on="0"/>
      </contour>
    </TTGlyph>
    <TTGlyph name="dotlessi" xMin="43" yMin="0" xMax="530" yMax="940">
      <contour>
        <pt x="369" y="70" on="1"/>
        <pt x="530" y="45" on="1"/>
        <pt x="530" y="0" on="1"/>
        <pt x="43" y="0" on="1"/>
        <pt x="43" y="45" on="1"/>
        <pt x="203" y="70" on="1"/>
        <pt x="203" y="870" on="1"/>
        <pt x="70" y="895" on="1"/>
        <pt x="70" y="940" on="1"/>
        <pt x="369" y="940" on="1"/>
      </contour>
    </TTGlyph>
    <TTGlyph name="dotlessi.alt1" xMin="43" yMin="0" xMax="530" yMax="940">
      <contour>
        <pt x="369" y="70" on="1"/>
        <pt x="530" y="45" on="1"/>
        <pt x="530" y="0" on="1"/>
        <pt x="43" y="0" on="1"/>
        <pt x="43" y="45" on="1"/>
        <pt x="203" y="70" on="1"/>
        <pt x="203" y="870" on="1"/>
        <pt x="70" y="895" on="1"/>
        <pt x="70" y="940" on="1"/>
        <pt x="369" y="940" on="1"/>
      </contour>
    </TTGlyph>
    <TTGlyph name="dottediacute" xMin="43" yMin="0" xMax="569" yMax="1825">
      <component glyphName="i" x="0" y="0" flags="0x204"/>
      <component glyphName="acute" x="4" y="401" flags="0x4"/>
    </TTGlyph>
    <TTGlyph name="e" xMin="80" yMin="-20" xMax="838" yMax="965">
      <contour>
        <pt x="260" y="473" on="1"/>
        <pt x="260" y="455" on="1"/>
        <pt x="260" y="317" on="0"/>
        <pt x="321" y="164" on="0"/>
        <pt x="448" y="84" on="0"/>
        <pt x="551" y="84" on="1"/>
        <pt x="605" y="84" on="0"/>
        <pt x="753" y="102" on="0"/>
        <pt x="801" y="113" on="1"/>
        <pt x="801" y="57" on="1"/>
        <pt x="753" y="26" on="0"/>
        <pt x="588" y="-20" on="0"/>
        <pt x="502" y="-20" on="1"/>
        <pt x="283" y="-20" on="0"/>
        <pt x="80" y="216" on="0"/>
        <pt x="80" y="477" on="1"/>
        <pt x="80" y="723" on="0"/>
        <pt x="286" y="965" on="0"/>
        <pt x="477" y="965" on="1"/>
        <pt x="838" y="965" on="0"/>
        <pt x="838" y="555" on="1"/>
        <pt x="838" y="473" on="1"/>
      </contour>
      <contour>
        <pt x="477" y="885" on="1"/>
        <pt x="373" y="885" on="0"/>
        <pt x="262" y="717" on="0"/>
        <pt x="262" y="553" on="1"/>
        <pt x="664" y="553" on="1"/>
        <pt x="664" y="732" on="0"/>
        <pt x="572" y="885" on="0"/>
      </contour>
    </TTGlyph>
</ttFont>
